<svg xmlns="http://www.w3.org/2000/svg" xmlns:xlink="http://www.w3.org/1999/xlink" width="500" zoomAndPan="magnify" viewBox="0 0 375 374.999991" height="500" preserveAspectRatio="xMidYMid meet" version="1.0"><defs><clipPath id="422b1a2808"><path d="M 120.867188 93 L 291 93 L 291 282 L 120.867188 282 Z M 120.867188 93 " clip-rule="nonzero"/></clipPath></defs><g clip-path="url(#422b1a2808)"><path fill="#e50914" d="M 151.582031 97.503906 C 134.617188 87.765625 120.867188 95.746094 120.867188 115.308594 L 120.867188 259.6875 C 120.867188 279.269531 134.617188 287.238281 151.582031 277.507812 L 277.671875 205.136719 C 294.640625 195.394531 294.640625 179.613281 277.671875 169.875 Z M 151.582031 97.503906 " fill-opacity="1" fill-rule="nonzero"/></g><path fill="#000000" d="M 1.113281 187.550781 C 1.113281 179.25 6.726562 172.050781 14.695312 169.699219 C 20.558594 168 25.222656 165.101562 28.730469 161.050781 C 34.59375 154.300781 38.203125 145.949219 39.605469 136.050781 C 40.960938 126.148438 41.660156 112.800781 41.660156 96 C 41.660156 72.050781 42.363281 55 43.714844 44.851562 C 45.070312 34.699219 48.726562 25.699219 54.691406 17.800781 C 60.65625 9.898438 67.523438 5 75.441406 2.949219 C 83.3125 1 92.683594 0 103.511719 0 L 114.289062 0 L 114.289062 30.449219 L 108.222656 30.449219 C 94.789062 30.449219 86.417969 32.101562 83.0625 35.351562 C 79.703125 38.601562 77.449219 43.25 76.296875 49.300781 C 75.140625 55.351562 74.539062 72 74.539062 99.199219 C 74.539062 128.75 71.03125 149.5 64.066406 161.5 C 57.097656 173.5 46.921875 182.199219 33.640625 187.648438 C 47.074219 194.050781 56.648438 201.550781 62.3125 210.199219 C 67.976562 218.851562 71.433594 229.550781 72.6875 242.300781 C 73.9375 255.050781 74.539062 275.75 74.539062 304.398438 C 74.539062 321.449219 76.796875 332.398438 81.308594 337.300781 C 85.816406 342.199219 94.789062 344.601562 108.222656 344.601562 L 114.289062 344.601562 L 114.289062 375.050781 L 103.511719 375.050781 C 92.683594 375.050781 83.363281 374.050781 75.542969 372.101562 C 67.722656 370.148438 60.90625 365.351562 55.09375 357.648438 C 49.28125 349.949219 45.671875 340.949219 44.21875 330.601562 C 42.761719 320.25 41.910156 303.101562 41.660156 279.148438 C 41.511719 261.699219 40.757812 248.148438 39.40625 238.449219 C 38.050781 228.75 34.441406 220.550781 28.628906 213.851562 C 25.171875 209.851562 20.558594 207.050781 14.746094 205.300781 C 6.726562 203.050781 1.113281 195.898438 1.113281 187.550781 Z M 1.113281 187.550781 " fill-opacity="1" fill-rule="nonzero"/><path fill="#000000" d="M 373.878906 187.449219 C 373.878906 195.75 368.265625 202.949219 360.296875 205.300781 C 354.433594 207 349.769531 209.898438 346.261719 213.949219 C 340.398438 220.699219 336.789062 229.050781 335.386719 238.949219 C 334.03125 248.851562 333.332031 262.199219 333.332031 279 C 333.332031 302.949219 332.628906 320 331.277344 330.148438 C 329.921875 340.300781 326.261719 349.300781 320.300781 357.199219 C 314.335938 365.101562 307.46875 370 299.546875 372.050781 C 291.679688 374 282.304688 375 271.480469 375 L 260.703125 375 L 260.703125 344.550781 L 266.769531 344.550781 C 280.203125 344.550781 288.570312 342.898438 291.929688 339.648438 C 295.289062 336.398438 297.542969 331.75 298.695312 325.699219 C 299.847656 319.648438 300.449219 303 300.449219 275.800781 C 300.449219 246.25 303.960938 225.5 310.925781 213.5 C 317.894531 201.5 328.066406 192.800781 341.351562 187.351562 C 327.917969 180.949219 318.34375 173.449219 312.679688 164.800781 C 307.015625 156.148438 303.558594 145.449219 302.304688 132.699219 C 301.050781 119.949219 300.449219 99.25 300.449219 70.601562 C 300.449219 53.550781 298.195312 42.601562 293.683594 37.699219 C 289.171875 32.800781 280.203125 30.398438 266.769531 30.398438 L 260.703125 30.398438 L 260.703125 -0.0507812 L 271.480469 -0.0507812 C 282.304688 -0.0507812 291.628906 0.949219 299.449219 2.898438 C 307.265625 4.851562 314.082031 9.648438 319.898438 17.351562 C 325.710938 25.050781 329.320312 34.050781 330.773438 44.398438 C 332.226562 54.75 333.078125 71.898438 333.332031 95.851562 C 333.480469 113.300781 334.234375 126.851562 335.585938 136.550781 C 336.9375 146.25 340.546875 154.449219 346.363281 161.148438 C 349.820312 165.148438 354.433594 167.949219 360.246094 169.699219 C 368.265625 171.949219 373.878906 179.101562 373.878906 187.449219 Z M 373.878906 187.449219 " fill-opacity="1" fill-rule="nonzero"/></svg>