<svg xmlns="http://www.w3.org/2000/svg" xmlns:xlink="http://www.w3.org/1999/xlink" width="300" zoomAndPan="magnify" viewBox="0 0 224.87999 60" height="80" preserveAspectRatio="xMidYMid meet" version="1.2"><defs><clipPath id="86f813cd13"><path d="M 15 0.015625 L 211 0.015625 L 211 59.984375 L 15 59.984375 Z M 15 0.015625 "/></clipPath><clipPath id="30bbf86e4a"><path d="M 62 0.015625 L 93 0.015625 L 93 56 L 62 56 Z M 62 0.015625 "/></clipPath><clipPath id="ffde8c5433"><rect x="0" width="196" y="0" height="60"/></clipPath></defs><g id="cd618e6818"><g clip-rule="nonzero" clip-path="url(#86f813cd13)"><g transform="matrix(1,0,0,1,15,-0.000000000000011803)"><g clip-path="url(#ffde8c5433)"><g style="fill:#db0000;fill-opacity:1;"><g transform="translate(3.827083, 58.186346)"><path style="stroke:none" d="M -0.359375 -53.734375 L 12.9375 -54.578125 C 17.164062 -54.847656 20.382812 -53.925781 22.59375 -51.8125 C 24.8125 -49.695312 26.054688 -46.472656 26.328125 -42.140625 L 28.0625 -15.0625 C 28.332031 -10.738281 27.503906 -7.390625 25.578125 -5.015625 C 23.660156 -2.640625 20.585938 -1.316406 16.359375 -1.046875 L 3.0625 -0.203125 Z M 8.53125 -46.609375 L 10.984375 -8.375 L 15.734375 -8.671875 C 17.054688 -8.753906 18.070312 -9.207031 18.78125 -10.03125 C 19.488281 -10.851562 19.78125 -12.226562 19.65625 -14.15625 L 17.890625 -42 C 17.765625 -43.925781 17.296875 -45.242188 16.484375 -45.953125 C 15.671875 -46.671875 14.601562 -46.988281 13.28125 -46.90625 Z M 8.53125 -46.609375 "/></g></g><g style="fill:#db0000;fill-opacity:1;"><g transform="translate(34.579408, 56.232974)"><path style="stroke:none" d="M 10.25 -31.453125 L 21.8125 -31.921875 L 22.109375 -24.28125 L 10.546875 -23.8125 L 11.171875 -8.109375 L 25.71875 -8.703125 L 26.03125 -1.046875 L 3.0625 -0.125 L 0.921875 -53.71875 L 23.890625 -54.640625 L 24.1875 -46.984375 L 9.640625 -46.390625 Z M 10.25 -31.453125 "/></g></g><g clip-rule="nonzero" clip-path="url(#30bbf86e4a)"><g style="fill:#db0000;fill-opacity:1;"><g transform="translate(62.309907, 55.103367)"><path style="stroke:none" d="M 15.625 -10.140625 L 21.34375 -54 L 29.078125 -54.125 L 21.6875 -0.359375 L 9.125 -0.140625 L -0.03125 -53.65625 L 8.46875 -53.796875 Z M 15.625 -10.140625 "/></g></g></g><g style="fill:#db0000;fill-opacity:1;"><g transform="translate(92.677824, 54.629443)"><path style="stroke:none" d="M 11.703125 -29.734375 L 22.578125 -29.65625 L 22.515625 -21.984375 L 11.640625 -22.0625 L 11.5 0.078125 L 3.0625 0.015625 L 3.421875 -53.625 L 25.71875 -53.46875 L 25.671875 -45.796875 L 11.8125 -45.890625 Z M 11.703125 -29.734375 "/></g></g><g style="fill:#db0000;fill-opacity:1;"><g transform="translate(118.640219, 54.799743)"><path style="stroke:none" d="M 4.546875 -53.546875 L 12.984375 -53.3125 L 11.71875 -7.34375 L 25.5625 -6.953125 L 25.34375 0.703125 L 3.0625 0.078125 Z M 4.546875 -53.546875 "/></g></g><g style="fill:#db0000;fill-opacity:1;"><g transform="translate(144.449779, 55.56084)"><path style="stroke:none" d="M 5.421875 -53.453125 L 13.84375 -53.09375 L 11.484375 0.5 L 3.0625 0.140625 Z M 5.421875 -53.453125 "/></g></g><g style="fill:#db0000;fill-opacity:1;"><g transform="translate(158.642101, 56.0962)"><path style="stroke:none" d="M 34.515625 -51.5625 L 24.0625 -26.109375 L 31.734375 2 L 22.859375 1.453125 L 17.328125 -20.15625 L 9.03125 0.578125 L 1.15625 0.078125 L 12.296875 -26.84375 L 5.15625 -53.421875 L 13.875 -52.875 L 18.96875 -32.75 L 26.71875 -52.0625 Z M 34.515625 -51.5625 "/></g></g></g></g></g></g></svg>