<svg xmlns="http://www.w3.org/2000/svg" xmlns:xlink="http://www.w3.org/1999/xlink" width="300" zoomAndPan="magnify" viewBox="0 0 224.87999 42" height="56" preserveAspectRatio="xMidYMid meet" version="1.0"><defs><g/><clipPath id="65a13fb399"><rect x="0" width="137" y="0" height="35"/></clipPath><clipPath id="494df1f8d3"><path d="M 161.480469 2.148438 L 168.804688 2.148438 L 168.804688 27 L 161.480469 27 Z M 161.480469 2.148438 " clip-rule="nonzero"/></clipPath><clipPath id="54702a5af8"><path d="M 199.9375 2 L 207.261719 2 L 207.261719 26.703125 L 199.9375 26.703125 Z M 199.9375 2 " clip-rule="nonzero"/></clipPath><clipPath id="064265a190"><path d="M 177.523438 5.164062 L 193.636719 5.164062 L 193.636719 23.476562 L 177.523438 23.476562 Z M 177.523438 5.164062 " clip-rule="nonzero"/></clipPath></defs><g transform="matrix(1, 0, 0, 1, 16, 0.000000000000004377)"><g clip-path="url(#65a13fb399)"><g fill="#ffffff" fill-opacity="1"><g transform="translate(0.328365, 26.004709)"><g><path d="M 14.859375 -2.796875 L 1.203125 -8.8125 L 1.203125 -10.765625 L 14.859375 -17.59375 L 14.859375 -14.296875 L 5.453125 -9.9375 L 14.859375 -6.078125 Z M 14.859375 -2.796875 "/></g></g></g><g fill="#ffffff" fill-opacity="1"><g transform="translate(16.389236, 26.004709)"><g><path d="M 19.203125 -10.234375 C 19.203125 -6.929688 18.257812 -4.398438 16.375 -2.640625 C 14.488281 -0.878906 11.769531 0 8.21875 0 L 2.53125 0 L 2.53125 -20.09375 L 8.828125 -20.09375 C 12.109375 -20.09375 14.65625 -19.222656 16.46875 -17.484375 C 18.289062 -15.753906 19.203125 -13.335938 19.203125 -10.234375 Z M 14.765625 -10.125 C 14.765625 -14.4375 12.863281 -16.59375 9.0625 -16.59375 L 6.78125 -16.59375 L 6.78125 -3.515625 L 8.609375 -3.515625 C 12.710938 -3.515625 14.765625 -5.71875 14.765625 -10.125 Z M 14.765625 -10.125 "/></g></g></g><g fill="#ffffff" fill-opacity="1"><g transform="translate(37.217526, 26.004709)"><g><path d="M 8.5625 -12.671875 C 7.675781 -12.671875 6.976562 -12.390625 6.46875 -11.828125 C 5.96875 -11.265625 5.679688 -10.460938 5.609375 -9.421875 L 11.484375 -9.421875 C 11.460938 -10.460938 11.191406 -11.265625 10.671875 -11.828125 C 10.148438 -12.390625 9.445312 -12.671875 8.5625 -12.671875 Z M 9.15625 0.28125 C 6.675781 0.28125 4.738281 -0.398438 3.34375 -1.765625 C 1.957031 -3.128906 1.265625 -5.066406 1.265625 -7.578125 C 1.265625 -10.148438 1.90625 -12.140625 3.1875 -13.546875 C 4.476562 -14.953125 6.257812 -15.65625 8.53125 -15.65625 C 10.707031 -15.65625 12.398438 -15.035156 13.609375 -13.796875 C 14.816406 -12.554688 15.421875 -10.847656 15.421875 -8.671875 L 15.421875 -6.640625 L 5.515625 -6.640625 C 5.554688 -5.441406 5.90625 -4.507812 6.5625 -3.84375 C 7.226562 -3.175781 8.15625 -2.84375 9.34375 -2.84375 C 10.269531 -2.84375 11.144531 -2.9375 11.96875 -3.125 C 12.789062 -3.320312 13.648438 -3.628906 14.546875 -4.046875 L 14.546875 -0.8125 C 13.816406 -0.445312 13.035156 -0.175781 12.203125 0 C 11.367188 0.1875 10.351562 0.28125 9.15625 0.28125 Z M 9.15625 0.28125 "/></g></g></g><g fill="#ffffff" fill-opacity="1"><g transform="translate(53.841689, 26.004709)"><g><path d="M 5.859375 0 L 0 -15.359375 L 4.390625 -15.359375 L 7.34375 -6.609375 C 7.675781 -5.503906 7.882812 -4.457031 7.96875 -3.46875 L 8.046875 -3.46875 C 8.097656 -4.34375 8.304688 -5.390625 8.671875 -6.609375 L 11.625 -15.359375 L 16 -15.359375 L 10.15625 0 Z M 5.859375 0 "/></g></g></g><g fill="#ffffff" fill-opacity="1"><g transform="translate(69.847604, 26.004709)"><g><path d="M 1.203125 -6.078125 L 10.609375 -9.9375 L 1.203125 -14.296875 L 1.203125 -17.59375 L 14.859375 -10.765625 L 14.859375 -8.8125 L 1.203125 -2.796875 Z M 1.203125 -6.078125 "/></g></g></g><g fill="#e50914" fill-opacity="1"><g transform="translate(85.913585, 26.004709)"><g><path d="M 6.71875 0 L 2.53125 0 L 2.53125 -20.09375 L 14.046875 -20.09375 L 14.046875 -16.59375 L 6.71875 -16.59375 L 6.71875 -11.421875 L 13.53125 -11.421875 L 13.53125 -7.9375 L 6.71875 -7.9375 Z M 6.71875 0 "/></g></g></g><g fill="#e50914" fill-opacity="1"><g transform="translate(101.356196, 26.004709)"><g><path d="M 6.390625 0 L 2.203125 0 L 2.203125 -21.375 L 6.390625 -21.375 Z M 6.390625 0 "/></g></g></g><g fill="#e50914" fill-opacity="1"><g transform="translate(109.943063, 26.004709)"><g><path d="M 2.015625 -19.328125 C 2.015625 -20.691406 2.773438 -21.375 4.296875 -21.375 C 5.816406 -21.375 6.578125 -20.691406 6.578125 -19.328125 C 6.578125 -18.679688 6.382812 -18.175781 6 -17.8125 C 5.625 -17.445312 5.054688 -17.265625 4.296875 -17.265625 C 2.773438 -17.265625 2.015625 -17.953125 2.015625 -19.328125 Z M 6.390625 0 L 2.203125 0 L 2.203125 -15.359375 L 6.390625 -15.359375 Z M 6.390625 0 "/></g></g></g><g fill="#e50914" fill-opacity="1"><g transform="translate(118.529931, 26.004709)"><g><path d="M 5.34375 -7.84375 L 0.40625 -15.359375 L 5.15625 -15.359375 L 8.140625 -10.46875 L 11.140625 -15.359375 L 15.890625 -15.359375 L 10.890625 -7.84375 L 16.125 0 L 11.359375 0 L 8.140625 -5.265625 L 4.890625 0 L 0.140625 0 Z M 5.34375 -7.84375 "/></g></g></g></g></g><g clip-path="url(#494df1f8d3)"><path fill="#ffffff" d="M 161.550781 14.429688 C 161.550781 13.886719 161.917969 13.414062 162.4375 13.261719 C 162.820312 13.148438 163.125 12.960938 163.355469 12.695312 C 163.738281 12.253906 163.972656 11.707031 164.066406 11.058594 C 164.152344 10.410156 164.199219 9.535156 164.199219 8.433594 C 164.199219 6.867188 164.246094 5.75 164.335938 5.085938 C 164.421875 4.421875 164.660156 3.832031 165.050781 3.316406 C 165.441406 2.796875 165.890625 2.476562 166.40625 2.34375 C 166.921875 2.214844 167.53125 2.148438 168.238281 2.148438 L 168.941406 2.148438 L 168.941406 4.144531 L 168.546875 4.144531 C 167.667969 4.144531 167.125 4.25 166.902344 4.464844 C 166.683594 4.675781 166.539062 4.980469 166.460938 5.378906 C 166.386719 5.773438 166.347656 6.863281 166.347656 8.644531 C 166.347656 10.578125 166.117188 11.9375 165.664062 12.722656 C 165.207031 13.507812 164.542969 14.078125 163.675781 14.4375 C 164.554688 14.855469 165.179688 15.347656 165.546875 15.914062 C 165.917969 16.476562 166.144531 17.179688 166.226562 18.015625 C 166.308594 18.847656 166.347656 20.203125 166.347656 22.078125 C 166.347656 23.195312 166.496094 23.914062 166.789062 24.234375 C 167.082031 24.554688 167.667969 24.710938 168.546875 24.710938 L 168.941406 24.710938 L 168.941406 26.707031 L 168.238281 26.707031 C 167.53125 26.707031 166.921875 26.640625 166.414062 26.511719 C 165.902344 26.382812 165.457031 26.070312 165.078125 25.566406 C 164.699219 25.0625 164.460938 24.472656 164.367188 23.796875 C 164.273438 23.117188 164.214844 21.996094 164.199219 20.425781 C 164.191406 19.285156 164.140625 18.398438 164.050781 17.761719 C 163.964844 17.125 163.726562 16.589844 163.347656 16.152344 C 163.121094 15.890625 162.820312 15.707031 162.441406 15.589844 C 161.917969 15.445312 161.550781 14.976562 161.550781 14.429688 Z M 161.550781 14.429688 " fill-opacity="1" fill-rule="nonzero"/></g><g clip-path="url(#54702a5af8)"><path fill="#ffffff" d="M 207.1875 14.421875 C 207.1875 14.964844 206.824219 15.4375 206.300781 15.589844 C 205.917969 15.703125 205.613281 15.890625 205.386719 16.15625 C 205.003906 16.597656 204.765625 17.144531 204.675781 17.792969 C 204.585938 18.441406 204.539062 19.316406 204.539062 20.417969 C 204.539062 21.984375 204.496094 23.101562 204.40625 23.765625 C 204.320312 24.429688 204.078125 25.019531 203.691406 25.535156 C 203.300781 26.054688 202.851562 26.375 202.335938 26.507812 C 201.820312 26.636719 201.207031 26.703125 200.5 26.703125 L 199.796875 26.703125 L 199.796875 24.707031 L 200.195312 24.707031 C 201.070312 24.707031 201.617188 24.601562 201.835938 24.386719 C 202.054688 24.175781 202.203125 23.871094 202.277344 23.472656 C 202.355469 23.078125 202.394531 21.988281 202.394531 20.207031 C 202.394531 18.273438 202.621094 16.914062 203.078125 16.128906 C 203.53125 15.34375 204.199219 14.773438 205.066406 14.417969 C 204.1875 13.996094 203.5625 13.507812 203.191406 12.941406 C 202.824219 12.375 202.597656 11.671875 202.515625 10.839844 C 202.433594 10.003906 202.394531 8.648438 202.394531 6.773438 C 202.394531 5.65625 202.246094 4.9375 201.953125 4.617188 C 201.65625 4.296875 201.070312 4.140625 200.195312 4.140625 L 199.796875 4.140625 L 199.796875 2.148438 L 200.5 2.148438 C 201.207031 2.148438 201.816406 2.210938 202.328125 2.339844 C 202.839844 2.46875 203.285156 2.78125 203.664062 3.285156 C 204.042969 3.789062 204.277344 4.378906 204.375 5.058594 C 204.46875 5.734375 204.523438 6.855469 204.539062 8.425781 C 204.550781 9.566406 204.601562 10.453125 204.6875 11.089844 C 204.777344 11.726562 205.011719 12.261719 205.390625 12.699219 C 205.617188 12.960938 205.917969 13.144531 206.300781 13.261719 C 206.824219 13.40625 207.1875 13.875 207.1875 14.421875 Z M 207.1875 14.421875 " fill-opacity="1" fill-rule="nonzero"/></g><g clip-path="url(#064265a190)"><path fill="#e50914" d="M 180.375 6.066406 C 178.800781 5.164062 177.523438 5.902344 177.523438 7.71875 L 177.523438 21.125 C 177.523438 22.941406 178.800781 23.683594 180.375 22.78125 L 192.082031 16.058594 C 193.660156 15.15625 193.660156 13.691406 192.082031 12.785156 Z M 180.375 6.066406 " fill-opacity="1" fill-rule="nonzero"/></g><g fill="#ffffff" fill-opacity="1"><g transform="translate(16.932726, 37.7024)"><g><path d="M -0.140625 0.03125 C -0.191406 0.03125 -0.226562 0.0078125 -0.25 -0.03125 C -0.28125 -0.0820312 -0.285156 -0.140625 -0.265625 -0.203125 C -0.234375 -0.304688 -0.195312 -0.367188 -0.15625 -0.390625 C -0.113281 -0.410156 -0.0390625 -0.421875 0.0625 -0.421875 C 0.269531 -0.421875 0.429688 -0.457031 0.546875 -0.53125 C 0.660156 -0.613281 0.742188 -0.707031 0.796875 -0.8125 C 0.847656 -0.925781 0.898438 -1.070312 0.953125 -1.25 L 1.9375 -5.515625 C 1.96875 -5.691406 1.984375 -5.835938 1.984375 -5.953125 C 1.984375 -6.066406 1.941406 -6.160156 1.859375 -6.234375 C 1.785156 -6.304688 1.644531 -6.34375 1.4375 -6.34375 L 1.375 -6.34375 C 1.300781 -6.34375 1.25 -6.351562 1.21875 -6.375 C 1.1875 -6.40625 1.179688 -6.46875 1.203125 -6.5625 C 1.222656 -6.632812 1.253906 -6.691406 1.296875 -6.734375 C 1.347656 -6.785156 1.398438 -6.8125 1.453125 -6.8125 C 1.910156 -6.78125 2.335938 -6.765625 2.734375 -6.765625 L 4.34375 -6.765625 C 4.96875 -6.765625 5.539062 -6.632812 6.0625 -6.375 C 6.582031 -6.125 6.753906 -5.613281 6.578125 -4.84375 C 6.472656 -4.414062 6.253906 -4.03125 5.921875 -3.6875 C 5.585938 -3.351562 5.191406 -3.09375 4.734375 -2.90625 C 4.285156 -2.71875 3.835938 -2.625 3.390625 -2.625 C 2.984375 -2.625 2.640625 -2.679688 2.359375 -2.796875 L 2 -1.25 C 1.96875 -1.070312 1.953125 -0.925781 1.953125 -0.8125 C 1.953125 -0.707031 1.988281 -0.613281 2.0625 -0.53125 C 2.144531 -0.457031 2.289062 -0.421875 2.5 -0.421875 L 2.578125 -0.421875 C 2.640625 -0.421875 2.6875 -0.410156 2.71875 -0.390625 C 2.75 -0.367188 2.753906 -0.304688 2.734375 -0.203125 C 2.710938 -0.140625 2.679688 -0.0820312 2.640625 -0.03125 C 2.597656 0.0078125 2.546875 0.03125 2.484375 0.03125 C 2.035156 0.0078125 1.59375 0 1.15625 0 C 0.769531 0 0.335938 0.0078125 -0.140625 0.03125 Z M 3.1875 -3.109375 C 3.445312 -3.109375 3.726562 -3.160156 4.03125 -3.265625 C 4.332031 -3.367188 4.609375 -3.546875 4.859375 -3.796875 C 5.109375 -4.054688 5.28125 -4.394531 5.375 -4.8125 C 5.519531 -5.4375 5.414062 -5.851562 5.0625 -6.0625 C 4.707031 -6.269531 4.304688 -6.375 3.859375 -6.375 C 3.671875 -6.375 3.523438 -6.351562 3.421875 -6.3125 C 3.328125 -6.28125 3.242188 -6.207031 3.171875 -6.09375 C 3.109375 -5.976562 3.050781 -5.796875 3 -5.546875 L 2.46875 -3.234375 C 2.613281 -3.148438 2.851562 -3.109375 3.1875 -3.109375 Z M 3.1875 -3.109375 "/></g></g></g><g fill="#ffffff" fill-opacity="1"><g transform="translate(22.794745, 37.7024)"><g><path d="M -0.71875 0.03125 C -0.78125 0.03125 -0.820312 0.0078125 -0.84375 -0.03125 C -0.863281 -0.0820312 -0.867188 -0.140625 -0.859375 -0.203125 C -0.816406 -0.304688 -0.773438 -0.367188 -0.734375 -0.390625 C -0.703125 -0.410156 -0.660156 -0.421875 -0.609375 -0.421875 C -0.554688 -0.421875 -0.523438 -0.421875 -0.515625 -0.421875 C -0.296875 -0.421875 -0.125 -0.476562 0 -0.59375 C 0.125 -0.707031 0.234375 -0.832031 0.328125 -0.96875 C 0.421875 -1.113281 0.484375 -1.207031 0.515625 -1.25 L 3.421875 -5.703125 C 3.492188 -5.804688 3.535156 -5.890625 3.546875 -5.953125 C 3.578125 -6.085938 3.546875 -6.179688 3.453125 -6.234375 C 3.367188 -6.296875 3.242188 -6.34375 3.078125 -6.375 C 2.960938 -6.394531 2.890625 -6.414062 2.859375 -6.4375 C 2.835938 -6.457031 2.835938 -6.519531 2.859375 -6.625 C 2.878906 -6.707031 2.914062 -6.765625 2.96875 -6.796875 C 3.019531 -6.828125 3.097656 -6.84375 3.203125 -6.84375 C 3.554688 -6.84375 3.832031 -6.8125 4.03125 -6.75 C 4.226562 -6.695312 4.390625 -6.585938 4.515625 -6.421875 C 4.640625 -6.265625 4.726562 -6.023438 4.78125 -5.703125 L 5.5625 -1.25 C 5.601562 -0.976562 5.65625 -0.773438 5.71875 -0.640625 C 5.789062 -0.503906 5.929688 -0.429688 6.140625 -0.421875 L 6.203125 -0.421875 C 6.273438 -0.421875 6.320312 -0.410156 6.34375 -0.390625 C 6.363281 -0.367188 6.363281 -0.304688 6.34375 -0.203125 C 6.332031 -0.140625 6.304688 -0.0820312 6.265625 -0.03125 C 6.222656 0.0078125 6.171875 0.03125 6.109375 0.03125 C 5.648438 0.0078125 5.257812 0 4.9375 0 C 4.5 0 4.050781 0.0078125 3.59375 0.03125 C 3.53125 0.03125 3.484375 0.0078125 3.453125 -0.03125 C 3.429688 -0.0820312 3.429688 -0.140625 3.453125 -0.203125 C 3.484375 -0.304688 3.515625 -0.367188 3.546875 -0.390625 C 3.578125 -0.410156 3.628906 -0.421875 3.703125 -0.421875 C 3.953125 -0.421875 4.128906 -0.441406 4.234375 -0.484375 C 4.347656 -0.535156 4.421875 -0.625 4.453125 -0.75 C 4.472656 -0.84375 4.46875 -1.007812 4.4375 -1.25 L 4.28125 -2.140625 L 1.625 -2.140625 C 1.34375 -1.703125 1.179688 -1.445312 1.140625 -1.375 C 1.097656 -1.300781 1.078125 -1.257812 1.078125 -1.25 C 0.929688 -0.976562 0.847656 -0.804688 0.828125 -0.734375 C 0.796875 -0.609375 0.828125 -0.523438 0.921875 -0.484375 C 1.023438 -0.441406 1.226562 -0.421875 1.53125 -0.421875 L 1.59375 -0.421875 C 1.664062 -0.421875 1.710938 -0.410156 1.734375 -0.390625 C 1.753906 -0.367188 1.757812 -0.304688 1.75 -0.203125 C 1.726562 -0.140625 1.695312 -0.0820312 1.65625 -0.03125 C 1.613281 0.0078125 1.5625 0.03125 1.5 0.03125 C 1.050781 0.0078125 0.664062 0 0.34375 0 C 0.113281 0 -0.238281 0.0078125 -0.71875 0.03125 Z M 1.9375 -2.609375 L 4.1875 -2.609375 L 3.734375 -5.359375 L 3.703125 -5.359375 Z M 1.9375 -2.609375 "/></g></g></g><g fill="#ffffff" fill-opacity="1"><g transform="translate(29.376176, 37.7024)"><g><path d="M -0.125 0.03125 C -0.1875 0.03125 -0.226562 0.0078125 -0.25 -0.03125 C -0.269531 -0.0820312 -0.269531 -0.140625 -0.25 -0.203125 C -0.21875 -0.304688 -0.179688 -0.367188 -0.140625 -0.390625 C -0.109375 -0.410156 -0.0390625 -0.421875 0.0625 -0.421875 C 0.269531 -0.421875 0.429688 -0.457031 0.546875 -0.53125 C 0.660156 -0.613281 0.742188 -0.707031 0.796875 -0.8125 C 0.847656 -0.925781 0.898438 -1.070312 0.953125 -1.25 L 1.9375 -5.5 C 1.96875 -5.6875 1.984375 -5.832031 1.984375 -5.9375 C 1.984375 -6.050781 1.941406 -6.144531 1.859375 -6.21875 C 1.785156 -6.300781 1.644531 -6.34375 1.4375 -6.34375 L 1.375 -6.34375 C 1.300781 -6.34375 1.25 -6.351562 1.21875 -6.375 C 1.195312 -6.40625 1.191406 -6.46875 1.203125 -6.5625 C 1.222656 -6.632812 1.253906 -6.691406 1.296875 -6.734375 C 1.347656 -6.785156 1.40625 -6.8125 1.46875 -6.8125 C 1.925781 -6.78125 2.347656 -6.765625 2.734375 -6.765625 L 4.578125 -6.765625 C 5.128906 -6.765625 5.566406 -6.679688 5.890625 -6.515625 C 6.222656 -6.347656 6.441406 -6.128906 6.546875 -5.859375 C 6.660156 -5.597656 6.6875 -5.320312 6.625 -5.03125 C 6.53125 -4.632812 6.285156 -4.269531 5.890625 -3.9375 C 5.503906 -3.613281 5.03125 -3.378906 4.46875 -3.234375 L 4.578125 -2.9375 C 4.773438 -2.457031 4.953125 -2.039062 5.109375 -1.6875 C 5.265625 -1.34375 5.457031 -1.019531 5.6875 -0.71875 C 5.84375 -0.550781 6.03125 -0.453125 6.25 -0.421875 C 6.269531 -0.421875 6.300781 -0.421875 6.34375 -0.421875 C 6.394531 -0.421875 6.429688 -0.398438 6.453125 -0.359375 C 6.484375 -0.328125 6.492188 -0.273438 6.484375 -0.203125 C 6.460938 -0.140625 6.425781 -0.0820312 6.375 -0.03125 C 6.332031 0.0078125 6.28125 0.03125 6.21875 0.03125 L 5.953125 0.015625 C 5.640625 0.00390625 5.410156 0 5.265625 0 C 4.992188 -0.0507812 4.769531 -0.148438 4.59375 -0.296875 C 4.425781 -0.453125 4.273438 -0.664062 4.140625 -0.9375 C 3.992188 -1.207031 3.804688 -1.648438 3.578125 -2.265625 L 3.46875 -2.578125 C 3.394531 -2.742188 3.3125 -2.851562 3.21875 -2.90625 C 3.132812 -2.96875 2.972656 -3 2.734375 -3 L 2.421875 -3 L 2.015625 -1.25 C 1.972656 -1.070312 1.953125 -0.925781 1.953125 -0.8125 C 1.953125 -0.707031 1.992188 -0.613281 2.078125 -0.53125 C 2.160156 -0.457031 2.304688 -0.421875 2.515625 -0.421875 L 2.578125 -0.421875 C 2.640625 -0.421875 2.6875 -0.410156 2.71875 -0.390625 C 2.75 -0.367188 2.753906 -0.304688 2.734375 -0.203125 C 2.710938 -0.140625 2.679688 -0.0820312 2.640625 -0.03125 C 2.597656 0.0078125 2.546875 0.03125 2.484375 0.03125 C 2.035156 0.0078125 1.59375 0 1.15625 0 C 0.769531 0 0.34375 0.0078125 -0.125 0.03125 Z M 3.46875 -3.421875 C 4.53125 -3.421875 5.175781 -3.921875 5.40625 -4.921875 C 5.5 -5.328125 5.4375 -5.671875 5.21875 -5.953125 C 5.007812 -6.234375 4.582031 -6.375 3.9375 -6.375 C 3.738281 -6.375 3.578125 -6.347656 3.453125 -6.296875 C 3.335938 -6.242188 3.242188 -6.15625 3.171875 -6.03125 C 3.109375 -5.914062 3.046875 -5.734375 2.984375 -5.484375 L 2.515625 -3.421875 Z M 3.46875 -3.421875 "/></g></g></g><g fill="#ffffff" fill-opacity="1"><g transform="translate(36.580432, 37.7024)"><g><path d="M -0.71875 0.03125 C -0.78125 0.03125 -0.820312 0.0078125 -0.84375 -0.03125 C -0.863281 -0.0820312 -0.867188 -0.140625 -0.859375 -0.203125 C -0.816406 -0.304688 -0.773438 -0.367188 -0.734375 -0.390625 C -0.703125 -0.410156 -0.660156 -0.421875 -0.609375 -0.421875 C -0.554688 -0.421875 -0.523438 -0.421875 -0.515625 -0.421875 C -0.296875 -0.421875 -0.125 -0.476562 0 -0.59375 C 0.125 -0.707031 0.234375 -0.832031 0.328125 -0.96875 C 0.421875 -1.113281 0.484375 -1.207031 0.515625 -1.25 L 3.421875 -5.703125 C 3.492188 -5.804688 3.535156 -5.890625 3.546875 -5.953125 C 3.578125 -6.085938 3.546875 -6.179688 3.453125 -6.234375 C 3.367188 -6.296875 3.242188 -6.34375 3.078125 -6.375 C 2.960938 -6.394531 2.890625 -6.414062 2.859375 -6.4375 C 2.835938 -6.457031 2.835938 -6.519531 2.859375 -6.625 C 2.878906 -6.707031 2.914062 -6.765625 2.96875 -6.796875 C 3.019531 -6.828125 3.097656 -6.84375 3.203125 -6.84375 C 3.554688 -6.84375 3.832031 -6.8125 4.03125 -6.75 C 4.226562 -6.695312 4.390625 -6.585938 4.515625 -6.421875 C 4.640625 -6.265625 4.726562 -6.023438 4.78125 -5.703125 L 5.5625 -1.25 C 5.601562 -0.976562 5.65625 -0.773438 5.71875 -0.640625 C 5.789062 -0.503906 5.929688 -0.429688 6.140625 -0.421875 L 6.203125 -0.421875 C 6.273438 -0.421875 6.320312 -0.410156 6.34375 -0.390625 C 6.363281 -0.367188 6.363281 -0.304688 6.34375 -0.203125 C 6.332031 -0.140625 6.304688 -0.0820312 6.265625 -0.03125 C 6.222656 0.0078125 6.171875 0.03125 6.109375 0.03125 C 5.648438 0.0078125 5.257812 0 4.9375 0 C 4.5 0 4.050781 0.0078125 3.59375 0.03125 C 3.53125 0.03125 3.484375 0.0078125 3.453125 -0.03125 C 3.429688 -0.0820312 3.429688 -0.140625 3.453125 -0.203125 C 3.484375 -0.304688 3.515625 -0.367188 3.546875 -0.390625 C 3.578125 -0.410156 3.628906 -0.421875 3.703125 -0.421875 C 3.953125 -0.421875 4.128906 -0.441406 4.234375 -0.484375 C 4.347656 -0.535156 4.421875 -0.625 4.453125 -0.75 C 4.472656 -0.84375 4.46875 -1.007812 4.4375 -1.25 L 4.28125 -2.140625 L 1.625 -2.140625 C 1.34375 -1.703125 1.179688 -1.445312 1.140625 -1.375 C 1.097656 -1.300781 1.078125 -1.257812 1.078125 -1.25 C 0.929688 -0.976562 0.847656 -0.804688 0.828125 -0.734375 C 0.796875 -0.609375 0.828125 -0.523438 0.921875 -0.484375 C 1.023438 -0.441406 1.226562 -0.421875 1.53125 -0.421875 L 1.59375 -0.421875 C 1.664062 -0.421875 1.710938 -0.410156 1.734375 -0.390625 C 1.753906 -0.367188 1.757812 -0.304688 1.75 -0.203125 C 1.726562 -0.140625 1.695312 -0.0820312 1.65625 -0.03125 C 1.613281 0.0078125 1.5625 0.03125 1.5 0.03125 C 1.050781 0.0078125 0.664062 0 0.34375 0 C 0.113281 0 -0.238281 0.0078125 -0.71875 0.03125 Z M 1.9375 -2.609375 L 4.1875 -2.609375 L 3.734375 -5.359375 L 3.703125 -5.359375 Z M 1.9375 -2.609375 "/></g></g></g><g fill="#ffffff" fill-opacity="1"><g transform="translate(43.591432, 37.7024)"><g/></g></g><g fill="#ffffff" fill-opacity="1"><g transform="translate(45.985693, 37.7024)"><g><path d="M -0.140625 0.03125 C -0.191406 0.03125 -0.226562 0.0078125 -0.25 -0.03125 C -0.28125 -0.0820312 -0.285156 -0.140625 -0.265625 -0.203125 C -0.234375 -0.304688 -0.195312 -0.367188 -0.15625 -0.390625 C -0.113281 -0.410156 -0.0390625 -0.421875 0.0625 -0.421875 C 0.269531 -0.421875 0.429688 -0.457031 0.546875 -0.53125 C 0.660156 -0.613281 0.742188 -0.707031 0.796875 -0.8125 C 0.847656 -0.925781 0.898438 -1.070312 0.953125 -1.25 L 1.9375 -5.515625 C 1.96875 -5.691406 1.984375 -5.835938 1.984375 -5.953125 C 1.984375 -6.066406 1.941406 -6.160156 1.859375 -6.234375 C 1.785156 -6.304688 1.644531 -6.34375 1.4375 -6.34375 L 1.375 -6.34375 C 1.300781 -6.34375 1.25 -6.351562 1.21875 -6.375 C 1.1875 -6.40625 1.179688 -6.46875 1.203125 -6.5625 C 1.222656 -6.632812 1.253906 -6.691406 1.296875 -6.734375 C 1.347656 -6.785156 1.398438 -6.8125 1.453125 -6.8125 C 1.910156 -6.78125 2.335938 -6.765625 2.734375 -6.765625 L 4.34375 -6.765625 C 4.96875 -6.765625 5.539062 -6.632812 6.0625 -6.375 C 6.582031 -6.125 6.753906 -5.613281 6.578125 -4.84375 C 6.472656 -4.414062 6.253906 -4.03125 5.921875 -3.6875 C 5.585938 -3.351562 5.191406 -3.09375 4.734375 -2.90625 C 4.285156 -2.71875 3.835938 -2.625 3.390625 -2.625 C 2.984375 -2.625 2.640625 -2.679688 2.359375 -2.796875 L 2 -1.25 C 1.96875 -1.070312 1.953125 -0.925781 1.953125 -0.8125 C 1.953125 -0.707031 1.988281 -0.613281 2.0625 -0.53125 C 2.144531 -0.457031 2.289062 -0.421875 2.5 -0.421875 L 2.578125 -0.421875 C 2.640625 -0.421875 2.6875 -0.410156 2.71875 -0.390625 C 2.75 -0.367188 2.753906 -0.304688 2.734375 -0.203125 C 2.710938 -0.140625 2.679688 -0.0820312 2.640625 -0.03125 C 2.597656 0.0078125 2.546875 0.03125 2.484375 0.03125 C 2.035156 0.0078125 1.59375 0 1.15625 0 C 0.769531 0 0.335938 0.0078125 -0.140625 0.03125 Z M 3.1875 -3.109375 C 3.445312 -3.109375 3.726562 -3.160156 4.03125 -3.265625 C 4.332031 -3.367188 4.609375 -3.546875 4.859375 -3.796875 C 5.109375 -4.054688 5.28125 -4.394531 5.375 -4.8125 C 5.519531 -5.4375 5.414062 -5.851562 5.0625 -6.0625 C 4.707031 -6.269531 4.304688 -6.375 3.859375 -6.375 C 3.671875 -6.375 3.523438 -6.351562 3.421875 -6.3125 C 3.328125 -6.28125 3.242188 -6.207031 3.171875 -6.09375 C 3.109375 -5.976562 3.050781 -5.796875 3 -5.546875 L 2.46875 -3.234375 C 2.613281 -3.148438 2.851562 -3.109375 3.1875 -3.109375 Z M 3.1875 -3.109375 "/></g></g></g><g fill="#ffffff" fill-opacity="1"><g transform="translate(52.39542, 37.7024)"><g><path d="M -0.125 0.03125 C -0.1875 0.03125 -0.226562 0.0078125 -0.25 -0.03125 C -0.269531 -0.0820312 -0.269531 -0.140625 -0.25 -0.203125 C -0.21875 -0.304688 -0.179688 -0.367188 -0.140625 -0.390625 C -0.109375 -0.410156 -0.0390625 -0.421875 0.0625 -0.421875 C 0.269531 -0.421875 0.429688 -0.457031 0.546875 -0.53125 C 0.660156 -0.613281 0.742188 -0.707031 0.796875 -0.8125 C 0.847656 -0.925781 0.898438 -1.070312 0.953125 -1.25 L 1.9375 -5.5 C 1.96875 -5.6875 1.984375 -5.832031 1.984375 -5.9375 C 1.984375 -6.050781 1.941406 -6.144531 1.859375 -6.21875 C 1.785156 -6.300781 1.644531 -6.34375 1.4375 -6.34375 L 1.375 -6.34375 C 1.300781 -6.34375 1.25 -6.351562 1.21875 -6.375 C 1.195312 -6.40625 1.191406 -6.46875 1.203125 -6.5625 C 1.222656 -6.632812 1.253906 -6.691406 1.296875 -6.734375 C 1.347656 -6.785156 1.40625 -6.8125 1.46875 -6.8125 C 1.925781 -6.78125 2.347656 -6.765625 2.734375 -6.765625 L 4.578125 -6.765625 C 5.128906 -6.765625 5.566406 -6.679688 5.890625 -6.515625 C 6.222656 -6.347656 6.441406 -6.128906 6.546875 -5.859375 C 6.660156 -5.597656 6.6875 -5.320312 6.625 -5.03125 C 6.53125 -4.632812 6.285156 -4.269531 5.890625 -3.9375 C 5.503906 -3.613281 5.03125 -3.378906 4.46875 -3.234375 L 4.578125 -2.9375 C 4.773438 -2.457031 4.953125 -2.039062 5.109375 -1.6875 C 5.265625 -1.34375 5.457031 -1.019531 5.6875 -0.71875 C 5.84375 -0.550781 6.03125 -0.453125 6.25 -0.421875 C 6.269531 -0.421875 6.300781 -0.421875 6.34375 -0.421875 C 6.394531 -0.421875 6.429688 -0.398438 6.453125 -0.359375 C 6.484375 -0.328125 6.492188 -0.273438 6.484375 -0.203125 C 6.460938 -0.140625 6.425781 -0.0820312 6.375 -0.03125 C 6.332031 0.0078125 6.28125 0.03125 6.21875 0.03125 L 5.953125 0.015625 C 5.640625 0.00390625 5.410156 0 5.265625 0 C 4.992188 -0.0507812 4.769531 -0.148438 4.59375 -0.296875 C 4.425781 -0.453125 4.273438 -0.664062 4.140625 -0.9375 C 3.992188 -1.207031 3.804688 -1.648438 3.578125 -2.265625 L 3.46875 -2.578125 C 3.394531 -2.742188 3.3125 -2.851562 3.21875 -2.90625 C 3.132812 -2.96875 2.972656 -3 2.734375 -3 L 2.421875 -3 L 2.015625 -1.25 C 1.972656 -1.070312 1.953125 -0.925781 1.953125 -0.8125 C 1.953125 -0.707031 1.992188 -0.613281 2.078125 -0.53125 C 2.160156 -0.457031 2.304688 -0.421875 2.515625 -0.421875 L 2.578125 -0.421875 C 2.640625 -0.421875 2.6875 -0.410156 2.71875 -0.390625 C 2.75 -0.367188 2.753906 -0.304688 2.734375 -0.203125 C 2.710938 -0.140625 2.679688 -0.0820312 2.640625 -0.03125 C 2.597656 0.0078125 2.546875 0.03125 2.484375 0.03125 C 2.035156 0.0078125 1.59375 0 1.15625 0 C 0.769531 0 0.34375 0.0078125 -0.125 0.03125 Z M 3.46875 -3.421875 C 4.53125 -3.421875 5.175781 -3.921875 5.40625 -4.921875 C 5.5 -5.328125 5.4375 -5.671875 5.21875 -5.953125 C 5.007812 -6.234375 4.582031 -6.375 3.9375 -6.375 C 3.738281 -6.375 3.578125 -6.347656 3.453125 -6.296875 C 3.335938 -6.242188 3.242188 -6.15625 3.171875 -6.03125 C 3.109375 -5.914062 3.046875 -5.734375 2.984375 -5.484375 L 2.515625 -3.421875 Z M 3.46875 -3.421875 "/></g></g></g><g fill="#ffffff" fill-opacity="1"><g transform="translate(59.427848, 37.7024)"><g><path d="M 3.109375 0.21875 C 2.421875 0.21875 1.851562 0.0546875 1.40625 -0.265625 C 0.96875 -0.597656 0.664062 -1.03125 0.5 -1.5625 C 0.34375 -2.101562 0.335938 -2.679688 0.484375 -3.296875 C 0.648438 -4.046875 0.96875 -4.695312 1.4375 -5.25 C 1.90625 -5.8125 2.4375 -6.238281 3.03125 -6.53125 C 3.632812 -6.832031 4.207031 -6.984375 4.75 -6.984375 C 5.4375 -6.984375 6.003906 -6.820312 6.453125 -6.5 C 6.910156 -6.175781 7.21875 -5.742188 7.375 -5.203125 C 7.539062 -4.671875 7.550781 -4.097656 7.40625 -3.484375 C 7.238281 -2.734375 6.914062 -2.078125 6.4375 -1.515625 C 5.96875 -0.953125 5.429688 -0.519531 4.828125 -0.21875 C 4.222656 0.0703125 3.648438 0.21875 3.109375 0.21875 Z M 3.203125 -0.25 C 3.679688 -0.25 4.113281 -0.394531 4.5 -0.6875 C 4.894531 -0.976562 5.226562 -1.367188 5.5 -1.859375 C 5.78125 -2.347656 5.988281 -2.890625 6.125 -3.484375 C 6.257812 -4.035156 6.296875 -4.539062 6.234375 -5 C 6.179688 -5.46875 6.019531 -5.835938 5.75 -6.109375 C 5.488281 -6.390625 5.117188 -6.53125 4.640625 -6.53125 C 3.929688 -6.53125 3.328125 -6.226562 2.828125 -5.625 C 2.328125 -5.019531 1.96875 -4.253906 1.75 -3.328125 C 1.625 -2.765625 1.585938 -2.25 1.640625 -1.78125 C 1.691406 -1.320312 1.84375 -0.953125 2.09375 -0.671875 C 2.351562 -0.390625 2.722656 -0.25 3.203125 -0.25 Z M 3.203125 -0.25 "/></g></g></g><g fill="#ffffff" fill-opacity="1"><g transform="translate(67.319246, 37.7024)"><g><path d="M 3.03125 0.21875 C 2.40625 0.21875 1.867188 0.0859375 1.421875 -0.171875 C 0.972656 -0.429688 0.664062 -0.828125 0.5 -1.359375 C 0.332031 -1.898438 0.335938 -2.5625 0.515625 -3.34375 C 0.679688 -4.0625 0.988281 -4.695312 1.4375 -5.25 C 1.882812 -5.800781 2.421875 -6.226562 3.046875 -6.53125 C 3.679688 -6.832031 4.363281 -6.984375 5.09375 -6.984375 C 5.457031 -6.984375 5.800781 -6.929688 6.125 -6.828125 C 6.457031 -6.722656 6.710938 -6.554688 6.890625 -6.328125 C 7.066406 -6.097656 7.113281 -5.8125 7.03125 -5.46875 C 6.957031 -5.15625 6.800781 -4.882812 6.5625 -4.65625 C 6.320312 -4.425781 6.050781 -4.3125 5.75 -4.3125 C 5.59375 -4.3125 5.453125 -4.347656 5.328125 -4.421875 C 5.210938 -4.492188 5.160156 -4.585938 5.171875 -4.703125 C 5.179688 -4.710938 5.238281 -4.75 5.34375 -4.8125 C 5.457031 -4.882812 5.566406 -4.984375 5.671875 -5.109375 C 5.785156 -5.234375 5.867188 -5.378906 5.921875 -5.546875 C 5.984375 -5.847656 5.914062 -6.09375 5.71875 -6.28125 C 5.53125 -6.46875 5.25 -6.5625 4.875 -6.5625 C 4.425781 -6.5625 3.992188 -6.4375 3.578125 -6.1875 C 3.171875 -5.9375 2.804688 -5.570312 2.484375 -5.09375 C 2.171875 -4.625 1.9375 -4.0625 1.78125 -3.40625 C 1.632812 -2.769531 1.609375 -2.21875 1.703125 -1.75 C 1.804688 -1.28125 2.015625 -0.921875 2.328125 -0.671875 C 2.640625 -0.429688 3.035156 -0.3125 3.515625 -0.3125 C 3.742188 -0.3125 3.945312 -0.320312 4.125 -0.34375 C 4.300781 -0.375 4.5 -0.421875 4.71875 -0.484375 L 4.96875 -1.578125 C 5.03125 -1.828125 5.0625 -2 5.0625 -2.09375 C 5.070312 -2.195312 5.03125 -2.273438 4.9375 -2.328125 C 4.851562 -2.378906 4.695312 -2.40625 4.46875 -2.40625 C 4.394531 -2.40625 4.34375 -2.414062 4.3125 -2.4375 C 4.28125 -2.46875 4.273438 -2.53125 4.296875 -2.625 C 4.304688 -2.6875 4.335938 -2.738281 4.390625 -2.78125 C 4.441406 -2.832031 4.503906 -2.859375 4.578125 -2.859375 C 5.015625 -2.835938 5.40625 -2.828125 5.75 -2.828125 C 6.0625 -2.828125 6.445312 -2.835938 6.90625 -2.859375 C 6.976562 -2.859375 7.023438 -2.832031 7.046875 -2.78125 C 7.066406 -2.738281 7.070312 -2.6875 7.0625 -2.625 C 7.03125 -2.53125 6.992188 -2.46875 6.953125 -2.4375 C 6.910156 -2.414062 6.847656 -2.40625 6.765625 -2.40625 C 6.554688 -2.40625 6.394531 -2.375 6.28125 -2.3125 C 6.175781 -2.257812 6.097656 -2.179688 6.046875 -2.078125 C 6.003906 -1.972656 5.960938 -1.804688 5.921875 -1.578125 L 5.625 -0.3125 C 5.15625 -0.113281 4.738281 0.0195312 4.375 0.09375 C 4.007812 0.175781 3.5625 0.21875 3.03125 0.21875 Z M 3.03125 0.21875 "/></g></g></g><g fill="#ffffff" fill-opacity="1"><g transform="translate(74.695273, 37.7024)"><g><path d="M -0.125 0.03125 C -0.1875 0.03125 -0.226562 0.0078125 -0.25 -0.03125 C -0.269531 -0.0820312 -0.269531 -0.140625 -0.25 -0.203125 C -0.21875 -0.304688 -0.179688 -0.367188 -0.140625 -0.390625 C -0.109375 -0.410156 -0.0390625 -0.421875 0.0625 -0.421875 C 0.269531 -0.421875 0.429688 -0.457031 0.546875 -0.53125 C 0.660156 -0.613281 0.742188 -0.707031 0.796875 -0.8125 C 0.847656 -0.925781 0.898438 -1.070312 0.953125 -1.25 L 1.9375 -5.5 C 1.96875 -5.6875 1.984375 -5.832031 1.984375 -5.9375 C 1.984375 -6.050781 1.941406 -6.144531 1.859375 -6.21875 C 1.785156 -6.300781 1.644531 -6.34375 1.4375 -6.34375 L 1.375 -6.34375 C 1.300781 -6.34375 1.25 -6.351562 1.21875 -6.375 C 1.195312 -6.40625 1.191406 -6.46875 1.203125 -6.5625 C 1.222656 -6.632812 1.253906 -6.691406 1.296875 -6.734375 C 1.347656 -6.785156 1.40625 -6.8125 1.46875 -6.8125 C 1.925781 -6.78125 2.347656 -6.765625 2.734375 -6.765625 L 4.578125 -6.765625 C 5.128906 -6.765625 5.566406 -6.679688 5.890625 -6.515625 C 6.222656 -6.347656 6.441406 -6.128906 6.546875 -5.859375 C 6.660156 -5.597656 6.6875 -5.320312 6.625 -5.03125 C 6.53125 -4.632812 6.285156 -4.269531 5.890625 -3.9375 C 5.503906 -3.613281 5.03125 -3.378906 4.46875 -3.234375 L 4.578125 -2.9375 C 4.773438 -2.457031 4.953125 -2.039062 5.109375 -1.6875 C 5.265625 -1.34375 5.457031 -1.019531 5.6875 -0.71875 C 5.84375 -0.550781 6.03125 -0.453125 6.25 -0.421875 C 6.269531 -0.421875 6.300781 -0.421875 6.34375 -0.421875 C 6.394531 -0.421875 6.429688 -0.398438 6.453125 -0.359375 C 6.484375 -0.328125 6.492188 -0.273438 6.484375 -0.203125 C 6.460938 -0.140625 6.425781 -0.0820312 6.375 -0.03125 C 6.332031 0.0078125 6.28125 0.03125 6.21875 0.03125 L 5.953125 0.015625 C 5.640625 0.00390625 5.410156 0 5.265625 0 C 4.992188 -0.0507812 4.769531 -0.148438 4.59375 -0.296875 C 4.425781 -0.453125 4.273438 -0.664062 4.140625 -0.9375 C 3.992188 -1.207031 3.804688 -1.648438 3.578125 -2.265625 L 3.46875 -2.578125 C 3.394531 -2.742188 3.3125 -2.851562 3.21875 -2.90625 C 3.132812 -2.96875 2.972656 -3 2.734375 -3 L 2.421875 -3 L 2.015625 -1.25 C 1.972656 -1.070312 1.953125 -0.925781 1.953125 -0.8125 C 1.953125 -0.707031 1.992188 -0.613281 2.078125 -0.53125 C 2.160156 -0.457031 2.304688 -0.421875 2.515625 -0.421875 L 2.578125 -0.421875 C 2.640625 -0.421875 2.6875 -0.410156 2.71875 -0.390625 C 2.75 -0.367188 2.753906 -0.304688 2.734375 -0.203125 C 2.710938 -0.140625 2.679688 -0.0820312 2.640625 -0.03125 C 2.597656 0.0078125 2.546875 0.03125 2.484375 0.03125 C 2.035156 0.0078125 1.59375 0 1.15625 0 C 0.769531 0 0.34375 0.0078125 -0.125 0.03125 Z M 3.46875 -3.421875 C 4.53125 -3.421875 5.175781 -3.921875 5.40625 -4.921875 C 5.5 -5.328125 5.4375 -5.671875 5.21875 -5.953125 C 5.007812 -6.234375 4.582031 -6.375 3.9375 -6.375 C 3.738281 -6.375 3.578125 -6.347656 3.453125 -6.296875 C 3.335938 -6.242188 3.242188 -6.15625 3.171875 -6.03125 C 3.109375 -5.914062 3.046875 -5.734375 2.984375 -5.484375 L 2.515625 -3.421875 Z M 3.46875 -3.421875 "/></g></g></g><g fill="#ffffff" fill-opacity="1"><g transform="translate(81.899529, 37.7024)"><g><path d="M -0.71875 0.03125 C -0.78125 0.03125 -0.820312 0.0078125 -0.84375 -0.03125 C -0.863281 -0.0820312 -0.867188 -0.140625 -0.859375 -0.203125 C -0.816406 -0.304688 -0.773438 -0.367188 -0.734375 -0.390625 C -0.703125 -0.410156 -0.660156 -0.421875 -0.609375 -0.421875 C -0.554688 -0.421875 -0.523438 -0.421875 -0.515625 -0.421875 C -0.296875 -0.421875 -0.125 -0.476562 0 -0.59375 C 0.125 -0.707031 0.234375 -0.832031 0.328125 -0.96875 C 0.421875 -1.113281 0.484375 -1.207031 0.515625 -1.25 L 3.421875 -5.703125 C 3.492188 -5.804688 3.535156 -5.890625 3.546875 -5.953125 C 3.578125 -6.085938 3.546875 -6.179688 3.453125 -6.234375 C 3.367188 -6.296875 3.242188 -6.34375 3.078125 -6.375 C 2.960938 -6.394531 2.890625 -6.414062 2.859375 -6.4375 C 2.835938 -6.457031 2.835938 -6.519531 2.859375 -6.625 C 2.878906 -6.707031 2.914062 -6.765625 2.96875 -6.796875 C 3.019531 -6.828125 3.097656 -6.84375 3.203125 -6.84375 C 3.554688 -6.84375 3.832031 -6.8125 4.03125 -6.75 C 4.226562 -6.695312 4.390625 -6.585938 4.515625 -6.421875 C 4.640625 -6.265625 4.726562 -6.023438 4.78125 -5.703125 L 5.5625 -1.25 C 5.601562 -0.976562 5.65625 -0.773438 5.71875 -0.640625 C 5.789062 -0.503906 5.929688 -0.429688 6.140625 -0.421875 L 6.203125 -0.421875 C 6.273438 -0.421875 6.320312 -0.410156 6.34375 -0.390625 C 6.363281 -0.367188 6.363281 -0.304688 6.34375 -0.203125 C 6.332031 -0.140625 6.304688 -0.0820312 6.265625 -0.03125 C 6.222656 0.0078125 6.171875 0.03125 6.109375 0.03125 C 5.648438 0.0078125 5.257812 0 4.9375 0 C 4.5 0 4.050781 0.0078125 3.59375 0.03125 C 3.53125 0.03125 3.484375 0.0078125 3.453125 -0.03125 C 3.429688 -0.0820312 3.429688 -0.140625 3.453125 -0.203125 C 3.484375 -0.304688 3.515625 -0.367188 3.546875 -0.390625 C 3.578125 -0.410156 3.628906 -0.421875 3.703125 -0.421875 C 3.953125 -0.421875 4.128906 -0.441406 4.234375 -0.484375 C 4.347656 -0.535156 4.421875 -0.625 4.453125 -0.75 C 4.472656 -0.84375 4.46875 -1.007812 4.4375 -1.25 L 4.28125 -2.140625 L 1.625 -2.140625 C 1.34375 -1.703125 1.179688 -1.445312 1.140625 -1.375 C 1.097656 -1.300781 1.078125 -1.257812 1.078125 -1.25 C 0.929688 -0.976562 0.847656 -0.804688 0.828125 -0.734375 C 0.796875 -0.609375 0.828125 -0.523438 0.921875 -0.484375 C 1.023438 -0.441406 1.226562 -0.421875 1.53125 -0.421875 L 1.59375 -0.421875 C 1.664062 -0.421875 1.710938 -0.410156 1.734375 -0.390625 C 1.753906 -0.367188 1.757812 -0.304688 1.75 -0.203125 C 1.726562 -0.140625 1.695312 -0.0820312 1.65625 -0.03125 C 1.613281 0.0078125 1.5625 0.03125 1.5 0.03125 C 1.050781 0.0078125 0.664062 0 0.34375 0 C 0.113281 0 -0.238281 0.0078125 -0.71875 0.03125 Z M 1.9375 -2.609375 L 4.1875 -2.609375 L 3.734375 -5.359375 L 3.703125 -5.359375 Z M 1.9375 -2.609375 "/></g></g></g><g fill="#ffffff" fill-opacity="1"><g transform="translate(88.48096, 37.7024)"><g><path d="M 3.8125 0.046875 C 3.707031 0.046875 3.640625 0.015625 3.609375 -0.046875 L 2.46875 -5.515625 L 2.4375 -5.515625 L 1.46875 -1.25 C 1.425781 -1.0625 1.40625 -0.914062 1.40625 -0.8125 C 1.40625 -0.707031 1.441406 -0.613281 1.515625 -0.53125 C 1.597656 -0.457031 1.742188 -0.421875 1.953125 -0.421875 L 2.015625 -0.421875 C 2.085938 -0.421875 2.132812 -0.410156 2.15625 -0.390625 C 2.1875 -0.367188 2.191406 -0.304688 2.171875 -0.203125 C 2.160156 -0.140625 2.128906 -0.0820312 2.078125 -0.03125 C 2.035156 0.0078125 1.984375 0.03125 1.921875 0.03125 L 1.671875 0.015625 C 1.335938 0.00390625 1.097656 0 0.953125 0 C 0.710938 0 0.359375 0.0078125 -0.109375 0.03125 C -0.171875 0.03125 -0.210938 0.0078125 -0.234375 -0.03125 C -0.265625 -0.0820312 -0.269531 -0.140625 -0.25 -0.203125 C -0.21875 -0.304688 -0.179688 -0.367188 -0.140625 -0.390625 C -0.0976562 -0.410156 -0.03125 -0.421875 0.0625 -0.421875 C 0.269531 -0.421875 0.429688 -0.457031 0.546875 -0.53125 C 0.660156 -0.613281 0.738281 -0.707031 0.78125 -0.8125 C 0.832031 -0.914062 0.882812 -1.0625 0.9375 -1.25 L 1.953125 -5.515625 C 1.992188 -5.734375 2.003906 -5.898438 1.984375 -6.015625 C 1.960938 -6.128906 1.90625 -6.207031 1.8125 -6.25 C 1.726562 -6.300781 1.597656 -6.34375 1.421875 -6.375 C 1.390625 -6.382812 1.347656 -6.394531 1.296875 -6.40625 C 1.242188 -6.414062 1.210938 -6.4375 1.203125 -6.46875 C 1.191406 -6.5 1.191406 -6.550781 1.203125 -6.625 C 1.222656 -6.707031 1.257812 -6.765625 1.3125 -6.796875 C 1.375 -6.828125 1.453125 -6.84375 1.546875 -6.84375 C 1.972656 -6.84375 2.316406 -6.8125 2.578125 -6.75 C 2.835938 -6.695312 3.050781 -6.585938 3.21875 -6.421875 C 3.382812 -6.265625 3.5 -6.023438 3.5625 -5.703125 L 4.453125 -1.5625 L 4.484375 -1.5625 L 7.796875 -6.765625 L 8.40625 -6.765625 C 8.800781 -6.765625 9.226562 -6.78125 9.6875 -6.8125 C 9.75 -6.8125 9.789062 -6.785156 9.8125 -6.734375 C 9.832031 -6.691406 9.835938 -6.632812 9.828125 -6.5625 C 9.796875 -6.457031 9.753906 -6.394531 9.703125 -6.375 C 9.660156 -6.351562 9.59375 -6.34375 9.5 -6.34375 C 9.289062 -6.34375 9.128906 -6.304688 9.015625 -6.234375 C 8.898438 -6.160156 8.816406 -6.066406 8.765625 -5.953125 C 8.710938 -5.835938 8.664062 -5.691406 8.625 -5.515625 L 7.640625 -1.25 C 7.597656 -1.070312 7.578125 -0.925781 7.578125 -0.8125 C 7.578125 -0.707031 7.617188 -0.613281 7.703125 -0.53125 C 7.785156 -0.457031 7.929688 -0.421875 8.140625 -0.421875 L 8.203125 -0.421875 C 8.265625 -0.421875 8.3125 -0.410156 8.34375 -0.390625 C 8.375 -0.367188 8.378906 -0.304688 8.359375 -0.203125 C 8.335938 -0.140625 8.304688 -0.0820312 8.265625 -0.03125 C 8.222656 0.0078125 8.171875 0.03125 8.109375 0.03125 C 7.660156 0.0078125 7.234375 0 6.828125 0 C 6.410156 0 5.96875 0.0078125 5.5 0.03125 C 5.4375 0.03125 5.394531 0.0078125 5.375 -0.03125 C 5.351562 -0.0820312 5.347656 -0.140625 5.359375 -0.203125 C 5.398438 -0.304688 5.4375 -0.367188 5.46875 -0.390625 C 5.507812 -0.410156 5.582031 -0.421875 5.6875 -0.421875 C 5.894531 -0.421875 6.054688 -0.457031 6.171875 -0.53125 C 6.285156 -0.613281 6.367188 -0.707031 6.421875 -0.8125 C 6.472656 -0.925781 6.523438 -1.070312 6.578125 -1.25 L 7.5625 -5.515625 L 7.53125 -5.515625 L 4.046875 -0.046875 C 4.003906 0.015625 3.925781 0.046875 3.8125 0.046875 Z M 3.8125 0.046875 "/></g></g></g><g fill="#ffffff" fill-opacity="1"><g transform="translate(98.025789, 37.7024)"><g><path d="M -0.71875 0.03125 C -0.78125 0.03125 -0.820312 0.0078125 -0.84375 -0.03125 C -0.863281 -0.0820312 -0.867188 -0.140625 -0.859375 -0.203125 C -0.816406 -0.304688 -0.773438 -0.367188 -0.734375 -0.390625 C -0.703125 -0.410156 -0.660156 -0.421875 -0.609375 -0.421875 C -0.554688 -0.421875 -0.523438 -0.421875 -0.515625 -0.421875 C -0.296875 -0.421875 -0.125 -0.476562 0 -0.59375 C 0.125 -0.707031 0.234375 -0.832031 0.328125 -0.96875 C 0.421875 -1.113281 0.484375 -1.207031 0.515625 -1.25 L 3.421875 -5.703125 C 3.492188 -5.804688 3.535156 -5.890625 3.546875 -5.953125 C 3.578125 -6.085938 3.546875 -6.179688 3.453125 -6.234375 C 3.367188 -6.296875 3.242188 -6.34375 3.078125 -6.375 C 2.960938 -6.394531 2.890625 -6.414062 2.859375 -6.4375 C 2.835938 -6.457031 2.835938 -6.519531 2.859375 -6.625 C 2.878906 -6.707031 2.914062 -6.765625 2.96875 -6.796875 C 3.019531 -6.828125 3.097656 -6.84375 3.203125 -6.84375 C 3.554688 -6.84375 3.832031 -6.8125 4.03125 -6.75 C 4.226562 -6.695312 4.390625 -6.585938 4.515625 -6.421875 C 4.640625 -6.265625 4.726562 -6.023438 4.78125 -5.703125 L 5.5625 -1.25 C 5.601562 -0.976562 5.65625 -0.773438 5.71875 -0.640625 C 5.789062 -0.503906 5.929688 -0.429688 6.140625 -0.421875 L 6.203125 -0.421875 C 6.273438 -0.421875 6.320312 -0.410156 6.34375 -0.390625 C 6.363281 -0.367188 6.363281 -0.304688 6.34375 -0.203125 C 6.332031 -0.140625 6.304688 -0.0820312 6.265625 -0.03125 C 6.222656 0.0078125 6.171875 0.03125 6.109375 0.03125 C 5.648438 0.0078125 5.257812 0 4.9375 0 C 4.5 0 4.050781 0.0078125 3.59375 0.03125 C 3.53125 0.03125 3.484375 0.0078125 3.453125 -0.03125 C 3.429688 -0.0820312 3.429688 -0.140625 3.453125 -0.203125 C 3.484375 -0.304688 3.515625 -0.367188 3.546875 -0.390625 C 3.578125 -0.410156 3.628906 -0.421875 3.703125 -0.421875 C 3.953125 -0.421875 4.128906 -0.441406 4.234375 -0.484375 C 4.347656 -0.535156 4.421875 -0.625 4.453125 -0.75 C 4.472656 -0.84375 4.46875 -1.007812 4.4375 -1.25 L 4.28125 -2.140625 L 1.625 -2.140625 C 1.34375 -1.703125 1.179688 -1.445312 1.140625 -1.375 C 1.097656 -1.300781 1.078125 -1.257812 1.078125 -1.25 C 0.929688 -0.976562 0.847656 -0.804688 0.828125 -0.734375 C 0.796875 -0.609375 0.828125 -0.523438 0.921875 -0.484375 C 1.023438 -0.441406 1.226562 -0.421875 1.53125 -0.421875 L 1.59375 -0.421875 C 1.664062 -0.421875 1.710938 -0.410156 1.734375 -0.390625 C 1.753906 -0.367188 1.757812 -0.304688 1.75 -0.203125 C 1.726562 -0.140625 1.695312 -0.0820312 1.65625 -0.03125 C 1.613281 0.0078125 1.5625 0.03125 1.5 0.03125 C 1.050781 0.0078125 0.664062 0 0.34375 0 C 0.113281 0 -0.238281 0.0078125 -0.71875 0.03125 Z M 1.9375 -2.609375 L 4.1875 -2.609375 L 3.734375 -5.359375 L 3.703125 -5.359375 Z M 1.9375 -2.609375 "/></g></g></g><g fill="#ffffff" fill-opacity="1"><g transform="translate(104.607221, 37.7024)"><g><path d="M -0.140625 0.03125 C -0.191406 0.03125 -0.226562 0.0078125 -0.25 -0.03125 C -0.269531 -0.0820312 -0.269531 -0.140625 -0.25 -0.203125 C -0.21875 -0.304688 -0.179688 -0.367188 -0.140625 -0.390625 C -0.109375 -0.410156 -0.0390625 -0.421875 0.0625 -0.421875 C 0.269531 -0.421875 0.429688 -0.457031 0.546875 -0.53125 C 0.660156 -0.613281 0.742188 -0.707031 0.796875 -0.8125 C 0.847656 -0.925781 0.898438 -1.070312 0.953125 -1.25 L 1.9375 -5.515625 C 1.96875 -5.691406 1.984375 -5.835938 1.984375 -5.953125 C 1.984375 -6.066406 1.941406 -6.160156 1.859375 -6.234375 C 1.785156 -6.304688 1.644531 -6.34375 1.4375 -6.34375 L 1.375 -6.34375 C 1.300781 -6.34375 1.25 -6.351562 1.21875 -6.375 C 1.195312 -6.40625 1.191406 -6.46875 1.203125 -6.5625 C 1.222656 -6.632812 1.253906 -6.691406 1.296875 -6.734375 C 1.347656 -6.785156 1.398438 -6.8125 1.453125 -6.8125 C 1.921875 -6.78125 2.34375 -6.765625 2.71875 -6.765625 L 4.390625 -6.765625 C 5.078125 -6.765625 5.671875 -6.628906 6.171875 -6.359375 C 6.671875 -6.085938 7.023438 -5.691406 7.234375 -5.171875 C 7.441406 -4.660156 7.460938 -4.050781 7.296875 -3.34375 C 7.128906 -2.613281 6.800781 -1.992188 6.3125 -1.484375 C 5.832031 -0.984375 5.265625 -0.609375 4.609375 -0.359375 C 3.960938 -0.117188 3.304688 0 2.640625 0 L 1.15625 0 C 0.769531 0 0.335938 0.0078125 -0.140625 0.03125 Z M 2.890625 -0.390625 C 3.722656 -0.390625 4.394531 -0.648438 4.90625 -1.171875 C 5.414062 -1.691406 5.78125 -2.414062 6 -3.34375 C 6.132812 -3.9375 6.148438 -4.460938 6.046875 -4.921875 C 5.941406 -5.378906 5.71875 -5.738281 5.375 -6 C 5.039062 -6.257812 4.597656 -6.390625 4.046875 -6.390625 L 3.1875 -6.375 L 1.984375 -1.125 C 1.921875 -0.84375 1.960938 -0.648438 2.109375 -0.546875 C 2.253906 -0.441406 2.515625 -0.390625 2.890625 -0.390625 Z M 2.890625 -0.390625 "/></g></g></g><g fill="#ffffff" fill-opacity="1"><g transform="translate(112.423458, 37.7024)"><g><path d="M 3.109375 0.21875 C 2.421875 0.21875 1.851562 0.0546875 1.40625 -0.265625 C 0.96875 -0.597656 0.664062 -1.03125 0.5 -1.5625 C 0.34375 -2.101562 0.335938 -2.679688 0.484375 -3.296875 C 0.648438 -4.046875 0.96875 -4.695312 1.4375 -5.25 C 1.90625 -5.8125 2.4375 -6.238281 3.03125 -6.53125 C 3.632812 -6.832031 4.207031 -6.984375 4.75 -6.984375 C 5.4375 -6.984375 6.003906 -6.820312 6.453125 -6.5 C 6.910156 -6.175781 7.21875 -5.742188 7.375 -5.203125 C 7.539062 -4.671875 7.550781 -4.097656 7.40625 -3.484375 C 7.238281 -2.734375 6.914062 -2.078125 6.4375 -1.515625 C 5.96875 -0.953125 5.429688 -0.519531 4.828125 -0.21875 C 4.222656 0.0703125 3.648438 0.21875 3.109375 0.21875 Z M 3.203125 -0.25 C 3.679688 -0.25 4.113281 -0.394531 4.5 -0.6875 C 4.894531 -0.976562 5.226562 -1.367188 5.5 -1.859375 C 5.78125 -2.347656 5.988281 -2.890625 6.125 -3.484375 C 6.257812 -4.035156 6.296875 -4.539062 6.234375 -5 C 6.179688 -5.46875 6.019531 -5.835938 5.75 -6.109375 C 5.488281 -6.390625 5.117188 -6.53125 4.640625 -6.53125 C 3.929688 -6.53125 3.328125 -6.226562 2.828125 -5.625 C 2.328125 -5.019531 1.96875 -4.253906 1.75 -3.328125 C 1.625 -2.765625 1.585938 -2.25 1.640625 -1.78125 C 1.691406 -1.320312 1.84375 -0.953125 2.09375 -0.671875 C 2.351562 -0.390625 2.722656 -0.25 3.203125 -0.25 Z M 3.203125 -0.25 "/></g></g></g><g fill="#ffffff" fill-opacity="1"><g transform="translate(120.185985, 37.7024)"><g><path d="M -0.125 0.03125 C -0.1875 0.03125 -0.226562 0.0078125 -0.25 -0.03125 C -0.269531 -0.0820312 -0.269531 -0.140625 -0.25 -0.203125 C -0.21875 -0.304688 -0.179688 -0.367188 -0.140625 -0.390625 C -0.109375 -0.410156 -0.0390625 -0.421875 0.0625 -0.421875 C 0.269531 -0.421875 0.429688 -0.457031 0.546875 -0.53125 C 0.660156 -0.613281 0.742188 -0.707031 0.796875 -0.8125 C 0.847656 -0.925781 0.898438 -1.070312 0.953125 -1.25 L 1.9375 -5.5 C 1.96875 -5.6875 1.984375 -5.832031 1.984375 -5.9375 C 1.984375 -6.050781 1.941406 -6.144531 1.859375 -6.21875 C 1.785156 -6.300781 1.644531 -6.34375 1.4375 -6.34375 L 1.375 -6.34375 C 1.300781 -6.34375 1.25 -6.351562 1.21875 -6.375 C 1.195312 -6.40625 1.191406 -6.46875 1.203125 -6.5625 C 1.222656 -6.632812 1.253906 -6.691406 1.296875 -6.734375 C 1.347656 -6.785156 1.40625 -6.8125 1.46875 -6.8125 C 1.925781 -6.78125 2.347656 -6.765625 2.734375 -6.765625 L 4.578125 -6.765625 C 5.128906 -6.765625 5.566406 -6.679688 5.890625 -6.515625 C 6.222656 -6.347656 6.441406 -6.128906 6.546875 -5.859375 C 6.660156 -5.597656 6.6875 -5.320312 6.625 -5.03125 C 6.53125 -4.632812 6.285156 -4.269531 5.890625 -3.9375 C 5.503906 -3.613281 5.03125 -3.378906 4.46875 -3.234375 L 4.578125 -2.9375 C 4.773438 -2.457031 4.953125 -2.039062 5.109375 -1.6875 C 5.265625 -1.34375 5.457031 -1.019531 5.6875 -0.71875 C 5.84375 -0.550781 6.03125 -0.453125 6.25 -0.421875 C 6.269531 -0.421875 6.300781 -0.421875 6.34375 -0.421875 C 6.394531 -0.421875 6.429688 -0.398438 6.453125 -0.359375 C 6.484375 -0.328125 6.492188 -0.273438 6.484375 -0.203125 C 6.460938 -0.140625 6.425781 -0.0820312 6.375 -0.03125 C 6.332031 0.0078125 6.28125 0.03125 6.21875 0.03125 L 5.953125 0.015625 C 5.640625 0.00390625 5.410156 0 5.265625 0 C 4.992188 -0.0507812 4.769531 -0.148438 4.59375 -0.296875 C 4.425781 -0.453125 4.273438 -0.664062 4.140625 -0.9375 C 3.992188 -1.207031 3.804688 -1.648438 3.578125 -2.265625 L 3.46875 -2.578125 C 3.394531 -2.742188 3.3125 -2.851562 3.21875 -2.90625 C 3.132812 -2.96875 2.972656 -3 2.734375 -3 L 2.421875 -3 L 2.015625 -1.25 C 1.972656 -1.070312 1.953125 -0.925781 1.953125 -0.8125 C 1.953125 -0.707031 1.992188 -0.613281 2.078125 -0.53125 C 2.160156 -0.457031 2.304688 -0.421875 2.515625 -0.421875 L 2.578125 -0.421875 C 2.640625 -0.421875 2.6875 -0.410156 2.71875 -0.390625 C 2.75 -0.367188 2.753906 -0.304688 2.734375 -0.203125 C 2.710938 -0.140625 2.679688 -0.0820312 2.640625 -0.03125 C 2.597656 0.0078125 2.546875 0.03125 2.484375 0.03125 C 2.035156 0.0078125 1.59375 0 1.15625 0 C 0.769531 0 0.34375 0.0078125 -0.125 0.03125 Z M 3.46875 -3.421875 C 4.53125 -3.421875 5.175781 -3.921875 5.40625 -4.921875 C 5.5 -5.328125 5.4375 -5.671875 5.21875 -5.953125 C 5.007812 -6.234375 4.582031 -6.375 3.9375 -6.375 C 3.738281 -6.375 3.578125 -6.347656 3.453125 -6.296875 C 3.335938 -6.242188 3.242188 -6.15625 3.171875 -6.03125 C 3.109375 -5.914062 3.046875 -5.734375 2.984375 -5.484375 L 2.515625 -3.421875 Z M 3.46875 -3.421875 "/></g></g></g><g fill="#ffffff" fill-opacity="1"><g transform="translate(127.390241, 37.7024)"><g><path d="M -0.140625 0.03125 C -0.191406 0.03125 -0.226562 0.0078125 -0.25 -0.03125 C -0.269531 -0.0820312 -0.269531 -0.140625 -0.25 -0.203125 C -0.21875 -0.304688 -0.179688 -0.367188 -0.140625 -0.390625 C -0.109375 -0.410156 -0.0390625 -0.421875 0.0625 -0.421875 C 0.269531 -0.421875 0.429688 -0.457031 0.546875 -0.53125 C 0.660156 -0.613281 0.742188 -0.707031 0.796875 -0.8125 C 0.847656 -0.925781 0.898438 -1.070312 0.953125 -1.25 L 1.9375 -5.515625 C 1.96875 -5.691406 1.984375 -5.835938 1.984375 -5.953125 C 1.984375 -6.066406 1.941406 -6.160156 1.859375 -6.234375 C 1.785156 -6.304688 1.644531 -6.34375 1.4375 -6.34375 L 1.375 -6.34375 C 1.300781 -6.34375 1.25 -6.351562 1.21875 -6.375 C 1.195312 -6.40625 1.191406 -6.46875 1.203125 -6.5625 C 1.222656 -6.632812 1.253906 -6.691406 1.296875 -6.734375 C 1.347656 -6.785156 1.398438 -6.8125 1.453125 -6.8125 C 1.921875 -6.78125 2.34375 -6.765625 2.71875 -6.765625 L 6.09375 -6.765625 C 6.28125 -6.765625 6.351562 -6.679688 6.3125 -6.515625 L 6 -5.015625 C 5.976562 -4.953125 5.929688 -4.898438 5.859375 -4.859375 C 5.785156 -4.816406 5.71875 -4.796875 5.65625 -4.796875 C 5.5625 -4.796875 5.484375 -4.8125 5.421875 -4.84375 C 5.367188 -4.875 5.351562 -4.921875 5.375 -4.984375 C 5.394531 -5.335938 5.390625 -5.601562 5.359375 -5.78125 C 5.335938 -5.96875 5.269531 -6.101562 5.15625 -6.1875 C 5.039062 -6.28125 4.863281 -6.332031 4.625 -6.34375 L 3.1875 -6.34375 L 2.5625 -3.625 L 4.5 -3.625 C 4.550781 -3.613281 4.582031 -3.582031 4.59375 -3.53125 C 4.613281 -3.488281 4.617188 -3.4375 4.609375 -3.375 C 4.597656 -3.3125 4.570312 -3.257812 4.53125 -3.21875 C 4.488281 -3.175781 4.441406 -3.15625 4.390625 -3.15625 L 2.453125 -3.15625 L 1.984375 -1.125 C 1.960938 -0.976562 1.953125 -0.859375 1.953125 -0.765625 C 1.953125 -0.679688 2 -0.601562 2.09375 -0.53125 C 2.1875 -0.457031 2.347656 -0.421875 2.578125 -0.421875 L 3.5625 -0.421875 C 3.8125 -0.429688 4.007812 -0.472656 4.15625 -0.546875 C 4.300781 -0.628906 4.429688 -0.75 4.546875 -0.90625 C 4.660156 -1.0625 4.8125 -1.316406 5 -1.671875 C 5.070312 -1.804688 5.203125 -1.859375 5.390625 -1.828125 C 5.460938 -1.804688 5.519531 -1.773438 5.5625 -1.734375 C 5.601562 -1.691406 5.613281 -1.640625 5.59375 -1.578125 L 5.078125 -0.21875 C 5.023438 -0.125 4.972656 -0.0625 4.921875 -0.03125 C 4.878906 -0.0078125 4.804688 0 4.703125 0 L 1.171875 0 C 0.773438 0 0.335938 0.0078125 -0.140625 0.03125 Z M -0.140625 0.03125 "/></g></g></g><g fill="#ffffff" fill-opacity="1"><g transform="translate(133.767776, 37.7024)"><g><path d="M 2.03125 0.21875 C 1.28125 0.21875 0.734375 0.0859375 0.390625 -0.171875 C 0.0546875 -0.429688 -0.0507812 -0.816406 0.0625 -1.328125 C 0.125 -1.585938 0.257812 -1.800781 0.46875 -1.96875 C 0.6875 -2.132812 0.9375 -2.21875 1.21875 -2.21875 C 1.382812 -2.21875 1.5 -2.175781 1.5625 -2.09375 C 1.632812 -2.019531 1.660156 -1.953125 1.640625 -1.890625 C 1.640625 -1.878906 1.597656 -1.851562 1.515625 -1.8125 C 1.441406 -1.769531 1.363281 -1.703125 1.28125 -1.609375 C 1.207031 -1.523438 1.148438 -1.410156 1.109375 -1.265625 C 1.035156 -0.929688 1.078125 -0.671875 1.234375 -0.484375 C 1.398438 -0.304688 1.695312 -0.21875 2.125 -0.21875 C 2.425781 -0.21875 2.695312 -0.273438 2.9375 -0.390625 C 3.1875 -0.503906 3.390625 -0.65625 3.546875 -0.84375 C 3.710938 -1.03125 3.820312 -1.226562 3.875 -1.4375 C 3.925781 -1.695312 3.898438 -1.921875 3.796875 -2.109375 C 3.691406 -2.296875 3.546875 -2.453125 3.359375 -2.578125 C 3.171875 -2.703125 2.914062 -2.84375 2.59375 -3 C 2.207031 -3.195312 1.898438 -3.375 1.671875 -3.53125 C 1.441406 -3.6875 1.265625 -3.894531 1.140625 -4.15625 C 1.015625 -4.414062 1 -4.738281 1.09375 -5.125 C 1.226562 -5.75 1.539062 -6.210938 2.03125 -6.515625 C 2.53125 -6.828125 3.128906 -6.984375 3.828125 -6.984375 C 4.367188 -6.984375 4.816406 -6.867188 5.171875 -6.640625 C 5.523438 -6.410156 5.648438 -6.078125 5.546875 -5.640625 C 5.484375 -5.378906 5.34375 -5.164062 5.125 -5 C 4.914062 -4.832031 4.671875 -4.75 4.390625 -4.75 C 4.222656 -4.75 4.101562 -4.785156 4.03125 -4.859375 C 3.96875 -4.941406 3.945312 -5.015625 3.96875 -5.078125 C 3.976562 -5.085938 4.03125 -5.113281 4.125 -5.15625 C 4.226562 -5.195312 4.328125 -5.257812 4.421875 -5.34375 C 4.523438 -5.425781 4.59375 -5.546875 4.625 -5.703125 C 4.6875 -5.960938 4.632812 -6.164062 4.46875 -6.3125 C 4.300781 -6.46875 4.054688 -6.546875 3.734375 -6.546875 C 3.296875 -6.546875 2.941406 -6.441406 2.671875 -6.234375 C 2.398438 -6.035156 2.226562 -5.785156 2.15625 -5.484375 C 2.101562 -5.234375 2.125 -5.023438 2.21875 -4.859375 C 2.3125 -4.691406 2.492188 -4.523438 2.765625 -4.359375 C 2.972656 -4.234375 3.207031 -4.101562 3.46875 -3.96875 C 3.875 -3.757812 4.191406 -3.566406 4.421875 -3.390625 C 4.648438 -3.222656 4.820312 -3 4.9375 -2.71875 C 5.0625 -2.445312 5.070312 -2.101562 4.96875 -1.6875 C 4.894531 -1.332031 4.710938 -1.007812 4.421875 -0.71875 C 4.128906 -0.425781 3.769531 -0.195312 3.34375 -0.03125 C 2.925781 0.132812 2.488281 0.21875 2.03125 0.21875 Z M 2.03125 0.21875 "/></g></g></g><g fill="#ffffff" fill-opacity="1"><g transform="translate(139.61922, 37.7024)"><g/></g></g><g fill="#e50914" fill-opacity="1"><g transform="translate(142.017024, 37.7024)"><g><path d="M 2.03125 0.21875 C 1.28125 0.21875 0.734375 0.0859375 0.390625 -0.171875 C 0.0546875 -0.429688 -0.0507812 -0.816406 0.0625 -1.328125 C 0.125 -1.585938 0.257812 -1.800781 0.46875 -1.96875 C 0.6875 -2.132812 0.9375 -2.21875 1.21875 -2.21875 C 1.382812 -2.21875 1.5 -2.175781 1.5625 -2.09375 C 1.632812 -2.019531 1.660156 -1.953125 1.640625 -1.890625 C 1.640625 -1.878906 1.597656 -1.851562 1.515625 -1.8125 C 1.441406 -1.769531 1.363281 -1.703125 1.28125 -1.609375 C 1.207031 -1.523438 1.148438 -1.410156 1.109375 -1.265625 C 1.035156 -0.929688 1.078125 -0.671875 1.234375 -0.484375 C 1.398438 -0.304688 1.695312 -0.21875 2.125 -0.21875 C 2.425781 -0.21875 2.695312 -0.273438 2.9375 -0.390625 C 3.1875 -0.503906 3.390625 -0.65625 3.546875 -0.84375 C 3.710938 -1.03125 3.820312 -1.226562 3.875 -1.4375 C 3.925781 -1.695312 3.898438 -1.921875 3.796875 -2.109375 C 3.691406 -2.296875 3.546875 -2.453125 3.359375 -2.578125 C 3.171875 -2.703125 2.914062 -2.84375 2.59375 -3 C 2.207031 -3.195312 1.898438 -3.375 1.671875 -3.53125 C 1.441406 -3.6875 1.265625 -3.894531 1.140625 -4.15625 C 1.015625 -4.414062 1 -4.738281 1.09375 -5.125 C 1.226562 -5.75 1.539062 -6.210938 2.03125 -6.515625 C 2.53125 -6.828125 3.128906 -6.984375 3.828125 -6.984375 C 4.367188 -6.984375 4.816406 -6.867188 5.171875 -6.640625 C 5.523438 -6.410156 5.648438 -6.078125 5.546875 -5.640625 C 5.484375 -5.378906 5.34375 -5.164062 5.125 -5 C 4.914062 -4.832031 4.671875 -4.75 4.390625 -4.75 C 4.222656 -4.75 4.101562 -4.785156 4.03125 -4.859375 C 3.96875 -4.941406 3.945312 -5.015625 3.96875 -5.078125 C 3.976562 -5.085938 4.03125 -5.113281 4.125 -5.15625 C 4.226562 -5.195312 4.328125 -5.257812 4.421875 -5.34375 C 4.523438 -5.425781 4.59375 -5.546875 4.625 -5.703125 C 4.6875 -5.960938 4.632812 -6.164062 4.46875 -6.3125 C 4.300781 -6.46875 4.054688 -6.546875 3.734375 -6.546875 C 3.296875 -6.546875 2.941406 -6.441406 2.671875 -6.234375 C 2.398438 -6.035156 2.226562 -5.785156 2.15625 -5.484375 C 2.101562 -5.234375 2.125 -5.023438 2.21875 -4.859375 C 2.3125 -4.691406 2.492188 -4.523438 2.765625 -4.359375 C 2.972656 -4.234375 3.207031 -4.101562 3.46875 -3.96875 C 3.875 -3.757812 4.191406 -3.566406 4.421875 -3.390625 C 4.648438 -3.222656 4.820312 -3 4.9375 -2.71875 C 5.0625 -2.445312 5.070312 -2.101562 4.96875 -1.6875 C 4.894531 -1.332031 4.710938 -1.007812 4.421875 -0.71875 C 4.128906 -0.425781 3.769531 -0.195312 3.34375 -0.03125 C 2.925781 0.132812 2.488281 0.21875 2.03125 0.21875 Z M 2.03125 0.21875 "/></g></g></g><g fill="#e50914" fill-opacity="1"><g transform="translate(147.718114, 37.7024)"><g><path d="M -0.140625 0.03125 C -0.191406 0.03125 -0.226562 0.0078125 -0.25 -0.03125 C -0.269531 -0.0820312 -0.269531 -0.140625 -0.25 -0.203125 C -0.21875 -0.304688 -0.179688 -0.367188 -0.140625 -0.390625 C -0.109375 -0.410156 -0.0390625 -0.421875 0.0625 -0.421875 C 0.269531 -0.421875 0.429688 -0.457031 0.546875 -0.53125 C 0.660156 -0.613281 0.742188 -0.707031 0.796875 -0.8125 C 0.847656 -0.925781 0.898438 -1.070312 0.953125 -1.25 L 1.9375 -5.515625 C 1.96875 -5.691406 1.984375 -5.835938 1.984375 -5.953125 C 1.984375 -6.066406 1.941406 -6.160156 1.859375 -6.234375 C 1.785156 -6.304688 1.644531 -6.34375 1.4375 -6.34375 L 1.375 -6.34375 C 1.300781 -6.34375 1.25 -6.351562 1.21875 -6.375 C 1.195312 -6.40625 1.191406 -6.46875 1.203125 -6.5625 C 1.222656 -6.632812 1.253906 -6.691406 1.296875 -6.734375 C 1.347656 -6.785156 1.398438 -6.8125 1.453125 -6.8125 C 1.921875 -6.78125 2.34375 -6.765625 2.71875 -6.765625 L 6.09375 -6.765625 C 6.28125 -6.765625 6.351562 -6.679688 6.3125 -6.515625 L 6 -5.015625 C 5.976562 -4.953125 5.929688 -4.898438 5.859375 -4.859375 C 5.785156 -4.816406 5.71875 -4.796875 5.65625 -4.796875 C 5.5625 -4.796875 5.484375 -4.8125 5.421875 -4.84375 C 5.367188 -4.875 5.351562 -4.921875 5.375 -4.984375 C 5.394531 -5.335938 5.390625 -5.601562 5.359375 -5.78125 C 5.335938 -5.96875 5.269531 -6.101562 5.15625 -6.1875 C 5.039062 -6.28125 4.863281 -6.332031 4.625 -6.34375 L 3.1875 -6.34375 L 2.5625 -3.625 L 4.5 -3.625 C 4.550781 -3.613281 4.582031 -3.582031 4.59375 -3.53125 C 4.613281 -3.488281 4.617188 -3.4375 4.609375 -3.375 C 4.597656 -3.3125 4.570312 -3.257812 4.53125 -3.21875 C 4.488281 -3.175781 4.441406 -3.15625 4.390625 -3.15625 L 2.453125 -3.15625 L 1.984375 -1.125 C 1.960938 -0.976562 1.953125 -0.859375 1.953125 -0.765625 C 1.953125 -0.679688 2 -0.601562 2.09375 -0.53125 C 2.1875 -0.457031 2.347656 -0.421875 2.578125 -0.421875 L 3.5625 -0.421875 C 3.8125 -0.429688 4.007812 -0.472656 4.15625 -0.546875 C 4.300781 -0.628906 4.429688 -0.75 4.546875 -0.90625 C 4.660156 -1.0625 4.8125 -1.316406 5 -1.671875 C 5.070312 -1.804688 5.203125 -1.859375 5.390625 -1.828125 C 5.460938 -1.804688 5.519531 -1.773438 5.5625 -1.734375 C 5.601562 -1.691406 5.613281 -1.640625 5.59375 -1.578125 L 5.078125 -0.21875 C 5.023438 -0.125 4.972656 -0.0625 4.921875 -0.03125 C 4.878906 -0.0078125 4.804688 0 4.703125 0 L 1.171875 0 C 0.773438 0 0.335938 0.0078125 -0.140625 0.03125 Z M -0.140625 0.03125 "/></g></g></g><g fill="#e50914" fill-opacity="1"><g transform="translate(154.095649, 37.7024)"><g><path d="M 3.8125 0.046875 C 3.707031 0.046875 3.640625 0.015625 3.609375 -0.046875 L 2.46875 -5.515625 L 2.4375 -5.515625 L 1.46875 -1.25 C 1.425781 -1.0625 1.40625 -0.914062 1.40625 -0.8125 C 1.40625 -0.707031 1.441406 -0.613281 1.515625 -0.53125 C 1.597656 -0.457031 1.742188 -0.421875 1.953125 -0.421875 L 2.015625 -0.421875 C 2.085938 -0.421875 2.132812 -0.410156 2.15625 -0.390625 C 2.1875 -0.367188 2.191406 -0.304688 2.171875 -0.203125 C 2.160156 -0.140625 2.128906 -0.0820312 2.078125 -0.03125 C 2.035156 0.0078125 1.984375 0.03125 1.921875 0.03125 L 1.671875 0.015625 C 1.335938 0.00390625 1.097656 0 0.953125 0 C 0.710938 0 0.359375 0.0078125 -0.109375 0.03125 C -0.171875 0.03125 -0.210938 0.0078125 -0.234375 -0.03125 C -0.265625 -0.0820312 -0.269531 -0.140625 -0.25 -0.203125 C -0.21875 -0.304688 -0.179688 -0.367188 -0.140625 -0.390625 C -0.0976562 -0.410156 -0.03125 -0.421875 0.0625 -0.421875 C 0.269531 -0.421875 0.429688 -0.457031 0.546875 -0.53125 C 0.660156 -0.613281 0.738281 -0.707031 0.78125 -0.8125 C 0.832031 -0.914062 0.882812 -1.0625 0.9375 -1.25 L 1.953125 -5.515625 C 1.992188 -5.734375 2.003906 -5.898438 1.984375 -6.015625 C 1.960938 -6.128906 1.90625 -6.207031 1.8125 -6.25 C 1.726562 -6.300781 1.597656 -6.34375 1.421875 -6.375 C 1.390625 -6.382812 1.347656 -6.394531 1.296875 -6.40625 C 1.242188 -6.414062 1.210938 -6.4375 1.203125 -6.46875 C 1.191406 -6.5 1.191406 -6.550781 1.203125 -6.625 C 1.222656 -6.707031 1.257812 -6.765625 1.3125 -6.796875 C 1.375 -6.828125 1.453125 -6.84375 1.546875 -6.84375 C 1.972656 -6.84375 2.316406 -6.8125 2.578125 -6.75 C 2.835938 -6.695312 3.050781 -6.585938 3.21875 -6.421875 C 3.382812 -6.265625 3.5 -6.023438 3.5625 -5.703125 L 4.453125 -1.5625 L 4.484375 -1.5625 L 7.796875 -6.765625 L 8.40625 -6.765625 C 8.800781 -6.765625 9.226562 -6.78125 9.6875 -6.8125 C 9.75 -6.8125 9.789062 -6.785156 9.8125 -6.734375 C 9.832031 -6.691406 9.835938 -6.632812 9.828125 -6.5625 C 9.796875 -6.457031 9.753906 -6.394531 9.703125 -6.375 C 9.660156 -6.351562 9.59375 -6.34375 9.5 -6.34375 C 9.289062 -6.34375 9.128906 -6.304688 9.015625 -6.234375 C 8.898438 -6.160156 8.816406 -6.066406 8.765625 -5.953125 C 8.710938 -5.835938 8.664062 -5.691406 8.625 -5.515625 L 7.640625 -1.25 C 7.597656 -1.070312 7.578125 -0.925781 7.578125 -0.8125 C 7.578125 -0.707031 7.617188 -0.613281 7.703125 -0.53125 C 7.785156 -0.457031 7.929688 -0.421875 8.140625 -0.421875 L 8.203125 -0.421875 C 8.265625 -0.421875 8.3125 -0.410156 8.34375 -0.390625 C 8.375 -0.367188 8.378906 -0.304688 8.359375 -0.203125 C 8.335938 -0.140625 8.304688 -0.0820312 8.265625 -0.03125 C 8.222656 0.0078125 8.171875 0.03125 8.109375 0.03125 C 7.660156 0.0078125 7.234375 0 6.828125 0 C 6.410156 0 5.96875 0.0078125 5.5 0.03125 C 5.4375 0.03125 5.394531 0.0078125 5.375 -0.03125 C 5.351562 -0.0820312 5.347656 -0.140625 5.359375 -0.203125 C 5.398438 -0.304688 5.4375 -0.367188 5.46875 -0.390625 C 5.507812 -0.410156 5.582031 -0.421875 5.6875 -0.421875 C 5.894531 -0.421875 6.054688 -0.457031 6.171875 -0.53125 C 6.285156 -0.613281 6.367188 -0.707031 6.421875 -0.8125 C 6.472656 -0.925781 6.523438 -1.070312 6.578125 -1.25 L 7.5625 -5.515625 L 7.53125 -5.515625 L 4.046875 -0.046875 C 4.003906 0.015625 3.925781 0.046875 3.8125 0.046875 Z M 3.8125 0.046875 "/></g></g></g><g fill="#e50914" fill-opacity="1"><g transform="translate(163.640478, 37.7024)"><g/></g></g><g fill="#e50914" fill-opacity="1"><g transform="translate(166.034739, 37.7024)"><g><path d="M -0.140625 0.03125 C -0.191406 0.03125 -0.226562 0.0078125 -0.25 -0.03125 C -0.269531 -0.0820312 -0.269531 -0.140625 -0.25 -0.203125 C -0.21875 -0.304688 -0.179688 -0.367188 -0.140625 -0.390625 C -0.109375 -0.410156 -0.0390625 -0.421875 0.0625 -0.421875 C 0.269531 -0.421875 0.429688 -0.457031 0.546875 -0.53125 C 0.660156 -0.613281 0.742188 -0.707031 0.796875 -0.8125 C 0.847656 -0.925781 0.898438 -1.070312 0.953125 -1.25 L 1.9375 -5.515625 C 1.96875 -5.691406 1.984375 -5.835938 1.984375 -5.953125 C 1.984375 -6.066406 1.941406 -6.160156 1.859375 -6.234375 C 1.785156 -6.304688 1.644531 -6.34375 1.4375 -6.34375 L 1.375 -6.34375 C 1.300781 -6.34375 1.25 -6.351562 1.21875 -6.375 C 1.195312 -6.40625 1.191406 -6.46875 1.203125 -6.5625 C 1.222656 -6.632812 1.253906 -6.691406 1.296875 -6.734375 C 1.347656 -6.785156 1.398438 -6.8125 1.453125 -6.8125 C 1.921875 -6.78125 2.34375 -6.765625 2.71875 -6.765625 C 3.144531 -6.765625 3.597656 -6.78125 4.078125 -6.8125 C 4.140625 -6.8125 4.179688 -6.785156 4.203125 -6.734375 C 4.222656 -6.691406 4.222656 -6.632812 4.203125 -6.5625 C 4.171875 -6.457031 4.132812 -6.394531 4.09375 -6.375 C 4.050781 -6.351562 3.984375 -6.34375 3.890625 -6.34375 C 3.679688 -6.34375 3.515625 -6.304688 3.390625 -6.234375 C 3.273438 -6.160156 3.191406 -6.066406 3.140625 -5.953125 C 3.097656 -5.835938 3.050781 -5.691406 3 -5.515625 L 1.984375 -1.09375 C 1.960938 -0.945312 1.953125 -0.832031 1.953125 -0.75 C 1.953125 -0.664062 2 -0.585938 2.09375 -0.515625 C 2.1875 -0.453125 2.347656 -0.421875 2.578125 -0.421875 L 3.53125 -0.421875 C 3.789062 -0.429688 3.992188 -0.472656 4.140625 -0.546875 C 4.285156 -0.628906 4.414062 -0.75 4.53125 -0.90625 C 4.644531 -1.0625 4.789062 -1.316406 4.96875 -1.671875 C 5.050781 -1.804688 5.1875 -1.859375 5.375 -1.828125 C 5.4375 -1.804688 5.488281 -1.773438 5.53125 -1.734375 C 5.582031 -1.691406 5.597656 -1.640625 5.578125 -1.578125 L 5.046875 -0.21875 C 5.003906 -0.125 4.957031 -0.0625 4.90625 -0.03125 C 4.851562 -0.0078125 4.78125 0 4.6875 0 L 1.171875 0 C 0.773438 0 0.335938 0.0078125 -0.140625 0.03125 Z M -0.140625 0.03125 "/></g></g></g><g fill="#e50914" fill-opacity="1"><g transform="translate(172.16533, 37.7024)"><g><path d="M -0.140625 0.03125 C -0.203125 0.03125 -0.242188 0.0078125 -0.265625 -0.03125 C -0.285156 -0.0820312 -0.285156 -0.140625 -0.265625 -0.203125 C -0.234375 -0.304688 -0.195312 -0.367188 -0.15625 -0.390625 C -0.113281 -0.410156 -0.046875 -0.421875 0.046875 -0.421875 C 0.253906 -0.421875 0.414062 -0.457031 0.53125 -0.53125 C 0.65625 -0.613281 0.742188 -0.707031 0.796875 -0.8125 C 0.847656 -0.925781 0.898438 -1.070312 0.953125 -1.25 L 1.9375 -5.515625 C 1.96875 -5.703125 1.984375 -5.847656 1.984375 -5.953125 C 1.984375 -6.066406 1.941406 -6.160156 1.859375 -6.234375 C 1.773438 -6.304688 1.628906 -6.34375 1.421875 -6.34375 L 1.359375 -6.34375 C 1.296875 -6.34375 1.25 -6.351562 1.21875 -6.375 C 1.1875 -6.40625 1.179688 -6.46875 1.203125 -6.5625 C 1.222656 -6.632812 1.253906 -6.691406 1.296875 -6.734375 C 1.335938 -6.785156 1.390625 -6.8125 1.453125 -6.8125 C 1.910156 -6.78125 2.332031 -6.765625 2.71875 -6.765625 C 3.144531 -6.765625 3.597656 -6.78125 4.078125 -6.8125 C 4.140625 -6.8125 4.179688 -6.785156 4.203125 -6.734375 C 4.222656 -6.691406 4.222656 -6.632812 4.203125 -6.5625 C 4.171875 -6.457031 4.132812 -6.394531 4.09375 -6.375 C 4.050781 -6.351562 3.976562 -6.34375 3.875 -6.34375 C 3.664062 -6.34375 3.503906 -6.304688 3.390625 -6.234375 C 3.273438 -6.160156 3.191406 -6.066406 3.140625 -5.953125 C 3.085938 -5.835938 3.035156 -5.691406 2.984375 -5.515625 L 2 -1.25 C 1.96875 -1.070312 1.953125 -0.925781 1.953125 -0.8125 C 1.953125 -0.707031 1.988281 -0.613281 2.0625 -0.53125 C 2.144531 -0.457031 2.289062 -0.421875 2.5 -0.421875 L 2.578125 -0.421875 C 2.640625 -0.421875 2.6875 -0.410156 2.71875 -0.390625 C 2.75 -0.367188 2.753906 -0.304688 2.734375 -0.203125 C 2.710938 -0.140625 2.679688 -0.0820312 2.640625 -0.03125 C 2.597656 0.0078125 2.546875 0.03125 2.484375 0.03125 C 2.035156 0.0078125 1.597656 0 1.171875 0 C 0.773438 0 0.335938 0.0078125 -0.140625 0.03125 Z M -0.140625 0.03125 "/></g></g></g><g fill="#e50914" fill-opacity="1"><g transform="translate(176.073454, 37.7024)"><g><path d="M 3.8125 0.046875 C 3.707031 0.046875 3.640625 0.015625 3.609375 -0.046875 L 2.46875 -5.515625 L 2.4375 -5.515625 L 1.46875 -1.25 C 1.425781 -1.0625 1.40625 -0.914062 1.40625 -0.8125 C 1.40625 -0.707031 1.441406 -0.613281 1.515625 -0.53125 C 1.597656 -0.457031 1.742188 -0.421875 1.953125 -0.421875 L 2.015625 -0.421875 C 2.085938 -0.421875 2.132812 -0.410156 2.15625 -0.390625 C 2.1875 -0.367188 2.191406 -0.304688 2.171875 -0.203125 C 2.160156 -0.140625 2.128906 -0.0820312 2.078125 -0.03125 C 2.035156 0.0078125 1.984375 0.03125 1.921875 0.03125 L 1.671875 0.015625 C 1.335938 0.00390625 1.097656 0 0.953125 0 C 0.710938 0 0.359375 0.0078125 -0.109375 0.03125 C -0.171875 0.03125 -0.210938 0.0078125 -0.234375 -0.03125 C -0.265625 -0.0820312 -0.269531 -0.140625 -0.25 -0.203125 C -0.21875 -0.304688 -0.179688 -0.367188 -0.140625 -0.390625 C -0.0976562 -0.410156 -0.03125 -0.421875 0.0625 -0.421875 C 0.269531 -0.421875 0.429688 -0.457031 0.546875 -0.53125 C 0.660156 -0.613281 0.738281 -0.707031 0.78125 -0.8125 C 0.832031 -0.914062 0.882812 -1.0625 0.9375 -1.25 L 1.953125 -5.515625 C 1.992188 -5.734375 2.003906 -5.898438 1.984375 -6.015625 C 1.960938 -6.128906 1.90625 -6.207031 1.8125 -6.25 C 1.726562 -6.300781 1.597656 -6.34375 1.421875 -6.375 C 1.390625 -6.382812 1.347656 -6.394531 1.296875 -6.40625 C 1.242188 -6.414062 1.210938 -6.4375 1.203125 -6.46875 C 1.191406 -6.5 1.191406 -6.550781 1.203125 -6.625 C 1.222656 -6.707031 1.257812 -6.765625 1.3125 -6.796875 C 1.375 -6.828125 1.453125 -6.84375 1.546875 -6.84375 C 1.972656 -6.84375 2.316406 -6.8125 2.578125 -6.75 C 2.835938 -6.695312 3.050781 -6.585938 3.21875 -6.421875 C 3.382812 -6.265625 3.5 -6.023438 3.5625 -5.703125 L 4.453125 -1.5625 L 4.484375 -1.5625 L 7.796875 -6.765625 L 8.40625 -6.765625 C 8.800781 -6.765625 9.226562 -6.78125 9.6875 -6.8125 C 9.75 -6.8125 9.789062 -6.785156 9.8125 -6.734375 C 9.832031 -6.691406 9.835938 -6.632812 9.828125 -6.5625 C 9.796875 -6.457031 9.753906 -6.394531 9.703125 -6.375 C 9.660156 -6.351562 9.59375 -6.34375 9.5 -6.34375 C 9.289062 -6.34375 9.128906 -6.304688 9.015625 -6.234375 C 8.898438 -6.160156 8.816406 -6.066406 8.765625 -5.953125 C 8.710938 -5.835938 8.664062 -5.691406 8.625 -5.515625 L 7.640625 -1.25 C 7.597656 -1.070312 7.578125 -0.925781 7.578125 -0.8125 C 7.578125 -0.707031 7.617188 -0.613281 7.703125 -0.53125 C 7.785156 -0.457031 7.929688 -0.421875 8.140625 -0.421875 L 8.203125 -0.421875 C 8.265625 -0.421875 8.3125 -0.410156 8.34375 -0.390625 C 8.375 -0.367188 8.378906 -0.304688 8.359375 -0.203125 C 8.335938 -0.140625 8.304688 -0.0820312 8.265625 -0.03125 C 8.222656 0.0078125 8.171875 0.03125 8.109375 0.03125 C 7.660156 0.0078125 7.234375 0 6.828125 0 C 6.410156 0 5.96875 0.0078125 5.5 0.03125 C 5.4375 0.03125 5.394531 0.0078125 5.375 -0.03125 C 5.351562 -0.0820312 5.347656 -0.140625 5.359375 -0.203125 C 5.398438 -0.304688 5.4375 -0.367188 5.46875 -0.390625 C 5.507812 -0.410156 5.582031 -0.421875 5.6875 -0.421875 C 5.894531 -0.421875 6.054688 -0.457031 6.171875 -0.53125 C 6.285156 -0.613281 6.367188 -0.707031 6.421875 -0.8125 C 6.472656 -0.925781 6.523438 -1.070312 6.578125 -1.25 L 7.5625 -5.515625 L 7.53125 -5.515625 L 4.046875 -0.046875 C 4.003906 0.015625 3.925781 0.046875 3.8125 0.046875 Z M 3.8125 0.046875 "/></g></g></g><g fill="#e50914" fill-opacity="1"><g transform="translate(185.618283, 37.7024)"><g><path d="M -0.140625 0.03125 C -0.203125 0.03125 -0.242188 0.0078125 -0.265625 -0.03125 C -0.285156 -0.0820312 -0.285156 -0.140625 -0.265625 -0.203125 C -0.234375 -0.304688 -0.195312 -0.367188 -0.15625 -0.390625 C -0.113281 -0.410156 -0.046875 -0.421875 0.046875 -0.421875 C 0.253906 -0.421875 0.414062 -0.457031 0.53125 -0.53125 C 0.65625 -0.613281 0.742188 -0.707031 0.796875 -0.8125 C 0.847656 -0.925781 0.898438 -1.070312 0.953125 -1.25 L 1.9375 -5.515625 C 1.96875 -5.703125 1.984375 -5.847656 1.984375 -5.953125 C 1.984375 -6.066406 1.941406 -6.160156 1.859375 -6.234375 C 1.773438 -6.304688 1.628906 -6.34375 1.421875 -6.34375 L 1.359375 -6.34375 C 1.296875 -6.34375 1.25 -6.351562 1.21875 -6.375 C 1.1875 -6.40625 1.179688 -6.46875 1.203125 -6.5625 C 1.222656 -6.632812 1.253906 -6.691406 1.296875 -6.734375 C 1.335938 -6.785156 1.390625 -6.8125 1.453125 -6.8125 C 1.910156 -6.78125 2.332031 -6.765625 2.71875 -6.765625 C 3.144531 -6.765625 3.597656 -6.78125 4.078125 -6.8125 C 4.140625 -6.8125 4.179688 -6.785156 4.203125 -6.734375 C 4.222656 -6.691406 4.222656 -6.632812 4.203125 -6.5625 C 4.171875 -6.457031 4.132812 -6.394531 4.09375 -6.375 C 4.050781 -6.351562 3.976562 -6.34375 3.875 -6.34375 C 3.664062 -6.34375 3.503906 -6.304688 3.390625 -6.234375 C 3.273438 -6.160156 3.191406 -6.066406 3.140625 -5.953125 C 3.085938 -5.835938 3.035156 -5.691406 2.984375 -5.515625 L 2 -1.25 C 1.96875 -1.070312 1.953125 -0.925781 1.953125 -0.8125 C 1.953125 -0.707031 1.988281 -0.613281 2.0625 -0.53125 C 2.144531 -0.457031 2.289062 -0.421875 2.5 -0.421875 L 2.578125 -0.421875 C 2.640625 -0.421875 2.6875 -0.410156 2.71875 -0.390625 C 2.75 -0.367188 2.753906 -0.304688 2.734375 -0.203125 C 2.710938 -0.140625 2.679688 -0.0820312 2.640625 -0.03125 C 2.597656 0.0078125 2.546875 0.03125 2.484375 0.03125 C 2.035156 0.0078125 1.597656 0 1.171875 0 C 0.773438 0 0.335938 0.0078125 -0.140625 0.03125 Z M -0.140625 0.03125 "/></g></g></g><g fill="#e50914" fill-opacity="1"><g transform="translate(189.397537, 37.7024)"><g><path d="M 1.140625 0.03125 C 1.078125 0.03125 1.035156 0.0078125 1.015625 -0.03125 C 0.992188 -0.0820312 0.988281 -0.140625 1 -0.203125 C 1.03125 -0.304688 1.066406 -0.367188 1.109375 -0.390625 C 1.148438 -0.410156 1.222656 -0.421875 1.328125 -0.421875 C 1.523438 -0.421875 1.679688 -0.457031 1.796875 -0.53125 C 1.921875 -0.613281 2.007812 -0.707031 2.0625 -0.8125 C 2.113281 -0.925781 2.164062 -1.070312 2.21875 -1.25 L 3.390625 -6.375 L 2.65625 -6.375 C 2.40625 -6.363281 2.203125 -6.3125 2.046875 -6.21875 C 1.890625 -6.125 1.753906 -5.976562 1.640625 -5.78125 C 1.535156 -5.59375 1.414062 -5.328125 1.28125 -4.984375 C 1.257812 -4.921875 1.203125 -4.867188 1.109375 -4.828125 C 1.023438 -4.796875 0.941406 -4.78125 0.859375 -4.78125 C 0.796875 -4.78125 0.742188 -4.800781 0.703125 -4.84375 C 0.660156 -4.882812 0.644531 -4.9375 0.65625 -5 L 1.046875 -6.515625 C 1.078125 -6.679688 1.191406 -6.765625 1.390625 -6.765625 L 6.640625 -6.765625 C 6.816406 -6.765625 6.890625 -6.679688 6.859375 -6.515625 L 6.546875 -5 C 6.535156 -4.9375 6.492188 -4.882812 6.421875 -4.84375 C 6.359375 -4.800781 6.289062 -4.78125 6.21875 -4.78125 C 6.132812 -4.78125 6.0625 -4.796875 6 -4.828125 C 5.9375 -4.867188 5.910156 -4.921875 5.921875 -4.984375 C 5.941406 -5.335938 5.9375 -5.609375 5.90625 -5.796875 C 5.882812 -5.984375 5.816406 -6.125 5.703125 -6.21875 C 5.585938 -6.3125 5.414062 -6.363281 5.1875 -6.375 L 4.453125 -6.375 L 3.28125 -1.25 C 3.238281 -1.070312 3.21875 -0.925781 3.21875 -0.8125 C 3.21875 -0.707031 3.257812 -0.613281 3.34375 -0.53125 C 3.425781 -0.457031 3.570312 -0.421875 3.78125 -0.421875 L 3.84375 -0.421875 C 3.90625 -0.421875 3.945312 -0.410156 3.96875 -0.390625 C 4 -0.367188 4.007812 -0.304688 4 -0.203125 C 3.976562 -0.140625 3.945312 -0.0820312 3.90625 -0.03125 C 3.863281 0.0078125 3.8125 0.03125 3.75 0.03125 C 3.289062 0.0078125 2.867188 0 2.484375 0 C 2.054688 0 1.609375 0.0078125 1.140625 0.03125 Z M 1.140625 0.03125 "/></g></g></g><g fill="#e50914" fill-opacity="1"><g transform="translate(195.710619, 37.7024)"><g><path d="M -0.140625 0.03125 C -0.191406 0.03125 -0.226562 0.0078125 -0.25 -0.03125 C -0.269531 -0.0820312 -0.269531 -0.140625 -0.25 -0.203125 C -0.21875 -0.304688 -0.179688 -0.367188 -0.140625 -0.390625 C -0.109375 -0.410156 -0.0390625 -0.421875 0.0625 -0.421875 C 0.269531 -0.421875 0.429688 -0.457031 0.546875 -0.53125 C 0.660156 -0.613281 0.742188 -0.707031 0.796875 -0.8125 C 0.847656 -0.925781 0.898438 -1.070312 0.953125 -1.25 L 1.9375 -5.515625 C 1.96875 -5.691406 1.984375 -5.835938 1.984375 -5.953125 C 1.984375 -6.066406 1.941406 -6.160156 1.859375 -6.234375 C 1.785156 -6.304688 1.644531 -6.34375 1.4375 -6.34375 L 1.375 -6.34375 C 1.300781 -6.34375 1.25 -6.351562 1.21875 -6.375 C 1.195312 -6.40625 1.191406 -6.46875 1.203125 -6.5625 C 1.222656 -6.632812 1.253906 -6.691406 1.296875 -6.734375 C 1.347656 -6.785156 1.398438 -6.8125 1.453125 -6.8125 C 1.921875 -6.78125 2.34375 -6.765625 2.71875 -6.765625 L 6.09375 -6.765625 C 6.28125 -6.765625 6.351562 -6.679688 6.3125 -6.515625 L 6 -5.015625 C 5.976562 -4.953125 5.929688 -4.898438 5.859375 -4.859375 C 5.785156 -4.816406 5.71875 -4.796875 5.65625 -4.796875 C 5.5625 -4.796875 5.484375 -4.8125 5.421875 -4.84375 C 5.367188 -4.875 5.351562 -4.921875 5.375 -4.984375 C 5.394531 -5.335938 5.390625 -5.601562 5.359375 -5.78125 C 5.335938 -5.96875 5.269531 -6.101562 5.15625 -6.1875 C 5.039062 -6.28125 4.863281 -6.332031 4.625 -6.34375 L 3.1875 -6.34375 L 2.5625 -3.625 L 4.5 -3.625 C 4.550781 -3.613281 4.582031 -3.582031 4.59375 -3.53125 C 4.613281 -3.488281 4.617188 -3.4375 4.609375 -3.375 C 4.597656 -3.3125 4.570312 -3.257812 4.53125 -3.21875 C 4.488281 -3.175781 4.441406 -3.15625 4.390625 -3.15625 L 2.453125 -3.15625 L 1.984375 -1.125 C 1.960938 -0.976562 1.953125 -0.859375 1.953125 -0.765625 C 1.953125 -0.679688 2 -0.601562 2.09375 -0.53125 C 2.1875 -0.457031 2.347656 -0.421875 2.578125 -0.421875 L 3.5625 -0.421875 C 3.8125 -0.429688 4.007812 -0.472656 4.15625 -0.546875 C 4.300781 -0.628906 4.429688 -0.75 4.546875 -0.90625 C 4.660156 -1.0625 4.8125 -1.316406 5 -1.671875 C 5.070312 -1.804688 5.203125 -1.859375 5.390625 -1.828125 C 5.460938 -1.804688 5.519531 -1.773438 5.5625 -1.734375 C 5.601562 -1.691406 5.613281 -1.640625 5.59375 -1.578125 L 5.078125 -0.21875 C 5.023438 -0.125 4.972656 -0.0625 4.921875 -0.03125 C 4.878906 -0.0078125 4.804688 0 4.703125 0 L 1.171875 0 C 0.773438 0 0.335938 0.0078125 -0.140625 0.03125 Z M -0.140625 0.03125 "/></g></g></g><g fill="#e50914" fill-opacity="1"><g transform="translate(202.088154, 37.7024)"><g><path d="M 2.03125 0.21875 C 1.28125 0.21875 0.734375 0.0859375 0.390625 -0.171875 C 0.0546875 -0.429688 -0.0507812 -0.816406 0.0625 -1.328125 C 0.125 -1.585938 0.257812 -1.800781 0.46875 -1.96875 C 0.6875 -2.132812 0.9375 -2.21875 1.21875 -2.21875 C 1.382812 -2.21875 1.5 -2.175781 1.5625 -2.09375 C 1.632812 -2.019531 1.660156 -1.953125 1.640625 -1.890625 C 1.640625 -1.878906 1.597656 -1.851562 1.515625 -1.8125 C 1.441406 -1.769531 1.363281 -1.703125 1.28125 -1.609375 C 1.207031 -1.523438 1.148438 -1.410156 1.109375 -1.265625 C 1.035156 -0.929688 1.078125 -0.671875 1.234375 -0.484375 C 1.398438 -0.304688 1.695312 -0.21875 2.125 -0.21875 C 2.425781 -0.21875 2.695312 -0.273438 2.9375 -0.390625 C 3.1875 -0.503906 3.390625 -0.65625 3.546875 -0.84375 C 3.710938 -1.03125 3.820312 -1.226562 3.875 -1.4375 C 3.925781 -1.695312 3.898438 -1.921875 3.796875 -2.109375 C 3.691406 -2.296875 3.546875 -2.453125 3.359375 -2.578125 C 3.171875 -2.703125 2.914062 -2.84375 2.59375 -3 C 2.207031 -3.195312 1.898438 -3.375 1.671875 -3.53125 C 1.441406 -3.6875 1.265625 -3.894531 1.140625 -4.15625 C 1.015625 -4.414062 1 -4.738281 1.09375 -5.125 C 1.226562 -5.75 1.539062 -6.210938 2.03125 -6.515625 C 2.53125 -6.828125 3.128906 -6.984375 3.828125 -6.984375 C 4.367188 -6.984375 4.816406 -6.867188 5.171875 -6.640625 C 5.523438 -6.410156 5.648438 -6.078125 5.546875 -5.640625 C 5.484375 -5.378906 5.34375 -5.164062 5.125 -5 C 4.914062 -4.832031 4.671875 -4.75 4.390625 -4.75 C 4.222656 -4.75 4.101562 -4.785156 4.03125 -4.859375 C 3.96875 -4.941406 3.945312 -5.015625 3.96875 -5.078125 C 3.976562 -5.085938 4.03125 -5.113281 4.125 -5.15625 C 4.226562 -5.195312 4.328125 -5.257812 4.421875 -5.34375 C 4.523438 -5.425781 4.59375 -5.546875 4.625 -5.703125 C 4.6875 -5.960938 4.632812 -6.164062 4.46875 -6.3125 C 4.300781 -6.46875 4.054688 -6.546875 3.734375 -6.546875 C 3.296875 -6.546875 2.941406 -6.441406 2.671875 -6.234375 C 2.398438 -6.035156 2.226562 -5.785156 2.15625 -5.484375 C 2.101562 -5.234375 2.125 -5.023438 2.21875 -4.859375 C 2.3125 -4.691406 2.492188 -4.523438 2.765625 -4.359375 C 2.972656 -4.234375 3.207031 -4.101562 3.46875 -3.96875 C 3.875 -3.757812 4.191406 -3.566406 4.421875 -3.390625 C 4.648438 -3.222656 4.820312 -3 4.9375 -2.71875 C 5.0625 -2.445312 5.070312 -2.101562 4.96875 -1.6875 C 4.894531 -1.332031 4.710938 -1.007812 4.421875 -0.71875 C 4.128906 -0.425781 3.769531 -0.195312 3.34375 -0.03125 C 2.925781 0.132812 2.488281 0.21875 2.03125 0.21875 Z M 2.03125 0.21875 "/></g></g></g></svg>