<svg xmlns="http://www.w3.org/2000/svg" xmlns:xlink="http://www.w3.org/1999/xlink" width="300" zoomAndPan="magnify" viewBox="0 0 224.87999 42" height="56" preserveAspectRatio="xMidYMid meet" version="1.0"><defs><g/><clipPath id="773ee33023"><path d="M 175.789062 6.253906 L 193.371094 6.253906 L 193.371094 24.570312 L 175.789062 24.570312 Z M 175.789062 6.253906 " clip-rule="nonzero"/></clipPath><clipPath id="9587d5b176"><rect x="0" width="196" y="0" height="13"/></clipPath></defs><g fill="#ffffff" fill-opacity="1"><g transform="translate(18.901476, 22.839363)"><g><path d="M 15.015625 -2.8125 L 1.21875 -8.90625 L 1.21875 -10.890625 L 15.015625 -17.78125 L 15.015625 -14.4375 L 5.515625 -10.046875 L 15.015625 -6.140625 Z M 15.015625 -2.8125 "/></g></g></g><g fill="#ffffff" fill-opacity="1"><g transform="translate(35.137258, 22.839363)"><g><path d="M 19.390625 -10.34375 C 19.390625 -7 18.4375 -4.4375 16.53125 -2.65625 C 14.632812 -0.882812 11.890625 0 8.296875 0 L 2.5625 0 L 2.5625 -20.296875 L 8.921875 -20.296875 C 12.242188 -20.296875 14.816406 -19.421875 16.640625 -17.671875 C 18.472656 -15.921875 19.390625 -13.476562 19.390625 -10.34375 Z M 14.921875 -10.234375 C 14.921875 -14.597656 13 -16.78125 9.15625 -16.78125 L 6.859375 -16.78125 L 6.859375 -3.5625 L 8.703125 -3.5625 C 12.847656 -3.5625 14.921875 -5.785156 14.921875 -10.234375 Z M 14.921875 -10.234375 "/></g></g></g><g fill="#ffffff" fill-opacity="1"><g transform="translate(56.19238, 22.839363)"><g><path d="M 8.65625 -12.796875 C 7.75 -12.796875 7.039062 -12.507812 6.53125 -11.9375 C 6.03125 -11.375 5.742188 -10.570312 5.671875 -9.53125 L 11.609375 -9.53125 C 11.585938 -10.570312 11.3125 -11.375 10.78125 -11.9375 C 10.257812 -12.507812 9.550781 -12.796875 8.65625 -12.796875 Z M 9.25 0.28125 C 6.75 0.28125 4.796875 -0.40625 3.390625 -1.78125 C 1.984375 -3.164062 1.28125 -5.125 1.28125 -7.65625 C 1.28125 -10.25 1.925781 -12.253906 3.21875 -13.671875 C 4.519531 -15.097656 6.320312 -15.8125 8.625 -15.8125 C 10.8125 -15.8125 12.515625 -15.1875 13.734375 -13.9375 C 14.960938 -12.6875 15.578125 -10.960938 15.578125 -8.765625 L 15.578125 -6.703125 L 5.5625 -6.703125 C 5.613281 -5.503906 5.972656 -4.566406 6.640625 -3.890625 C 7.304688 -3.210938 8.238281 -2.875 9.4375 -2.875 C 10.375 -2.875 11.257812 -2.96875 12.09375 -3.15625 C 12.925781 -3.351562 13.796875 -3.664062 14.703125 -4.09375 L 14.703125 -0.8125 C 13.960938 -0.445312 13.171875 -0.175781 12.328125 0 C 11.484375 0.1875 10.457031 0.28125 9.25 0.28125 Z M 9.25 0.28125 "/></g></g></g><g fill="#ffffff" fill-opacity="1"><g transform="translate(72.997589, 22.839363)"><g><path d="M 5.921875 0 L 0 -15.53125 L 4.421875 -15.53125 L 7.421875 -6.671875 C 7.753906 -5.554688 7.960938 -4.5 8.046875 -3.5 L 8.140625 -3.5 C 8.179688 -4.382812 8.390625 -5.441406 8.765625 -6.671875 L 11.75 -15.53125 L 16.171875 -15.53125 L 10.265625 0 Z M 5.921875 0 "/></g></g></g><g fill="#ffffff" fill-opacity="1"><g transform="translate(89.177817, 22.839363)"><g><path d="M 1.21875 -6.140625 L 10.71875 -10.046875 L 1.21875 -14.4375 L 1.21875 -17.78125 L 15.015625 -10.890625 L 15.015625 -8.90625 L 1.21875 -2.8125 Z M 1.21875 -6.140625 "/></g></g></g><g fill="#ca0035" fill-opacity="1"><g transform="translate(105.423457, 22.839363)"><g><path d="M 6.796875 0 L 2.5625 0 L 2.5625 -20.296875 L 14.1875 -20.296875 L 14.1875 -16.78125 L 6.796875 -16.78125 L 6.796875 -11.53125 L 13.671875 -11.53125 L 13.671875 -8.03125 L 6.796875 -8.03125 Z M 6.796875 0 "/></g></g></g><g fill="#ca0035" fill-opacity="1"><g transform="translate(121.034246, 22.839363)"><g><path d="M 6.453125 0 L 2.21875 0 L 2.21875 -21.609375 L 6.453125 -21.609375 Z M 6.453125 0 "/></g></g></g><g fill="#ca0035" fill-opacity="1"><g transform="translate(129.714629, 22.839363)"><g><path d="M 2.046875 -19.53125 C 2.046875 -20.914062 2.8125 -21.609375 4.34375 -21.609375 C 5.882812 -21.609375 6.65625 -20.914062 6.65625 -19.53125 C 6.65625 -18.875 6.460938 -18.363281 6.078125 -18 C 5.691406 -17.632812 5.113281 -17.453125 4.34375 -17.453125 C 2.8125 -17.453125 2.046875 -18.144531 2.046875 -19.53125 Z M 6.453125 0 L 2.21875 0 L 2.21875 -15.53125 L 6.453125 -15.53125 Z M 6.453125 0 "/></g></g></g><g fill="#ca0035" fill-opacity="1"><g transform="translate(138.395011, 22.839363)"><g><path d="M 5.40625 -7.921875 L 0.40625 -15.53125 L 5.203125 -15.53125 L 8.21875 -10.578125 L 11.265625 -15.53125 L 16.0625 -15.53125 L 11.015625 -7.921875 L 16.296875 0 L 11.484375 0 L 8.21875 -5.3125 L 4.9375 0 L 0.140625 0 Z M 5.40625 -7.921875 "/></g></g></g><g fill="#ca0035" fill-opacity="1"><g transform="translate(154.839117, 22.839363)"><g/></g></g><g fill="#faefe8" fill-opacity="1"><g transform="translate(162.23105, 22.839363)"><g><path d="M 6.59375 -0.171875 C 6.59375 0.773438 6.863281 1.460938 7.40625 1.890625 C 7.945312 2.316406 8.742188 2.539062 9.796875 2.5625 L 9.796875 4.5 C 8.035156 4.476562 6.671875 4.070312 5.703125 3.28125 C 4.742188 2.5 4.265625 1.394531 4.265625 -0.03125 L 4.265625 -4.234375 C 4.265625 -5.191406 3.972656 -5.878906 3.390625 -6.296875 C 2.804688 -6.710938 1.957031 -6.921875 0.84375 -6.921875 L 0.84375 -8.875 C 2.050781 -8.894531 2.921875 -9.113281 3.453125 -9.53125 C 3.992188 -9.957031 4.265625 -10.617188 4.265625 -11.515625 L 4.265625 -15.765625 C 4.265625 -17.191406 4.765625 -18.300781 5.765625 -19.09375 C 6.765625 -19.894531 8.109375 -20.296875 9.796875 -20.296875 L 9.796875 -18.375 C 7.660156 -18.3125 6.59375 -17.390625 6.59375 -15.609375 L 6.59375 -11.515625 C 6.59375 -9.523438 5.5625 -8.347656 3.5 -7.984375 L 3.5 -7.8125 C 5.5625 -7.457031 6.59375 -6.285156 6.59375 -4.296875 Z M 6.59375 -0.171875 "/></g></g></g><g fill="#faefe8" fill-opacity="1"><g transform="translate(173.01339, 22.839363)"><g/></g></g><g fill="#faefe8" fill-opacity="1"><g transform="translate(180.402126, 22.839363)"><g/></g></g><g fill="#faefe8" fill-opacity="1"><g transform="translate(187.790863, 22.839363)"><g/></g></g><g fill="#faefe8" fill-opacity="1"><g transform="translate(195.184723, 22.839363)"><g><path d="M 7.25 -7.984375 C 5.1875 -8.347656 4.15625 -9.523438 4.15625 -11.515625 L 4.15625 -15.609375 C 4.15625 -17.390625 3.101562 -18.3125 1 -18.375 L 1 -20.296875 C 2.707031 -20.296875 4.046875 -19.894531 5.015625 -19.09375 C 5.992188 -18.289062 6.484375 -17.179688 6.484375 -15.765625 L 6.484375 -11.515625 C 6.484375 -10.617188 6.753906 -9.957031 7.296875 -9.53125 C 7.847656 -9.113281 8.722656 -8.894531 9.921875 -8.875 L 9.921875 -6.921875 C 8.796875 -6.921875 7.941406 -6.710938 7.359375 -6.296875 C 6.773438 -5.878906 6.484375 -5.191406 6.484375 -4.234375 L 6.484375 -0.03125 C 6.484375 1.382812 6.007812 2.488281 5.0625 3.28125 C 4.113281 4.070312 2.757812 4.476562 1 4.5 L 1 2.5625 C 2.03125 2.539062 2.8125 2.316406 3.34375 1.890625 C 3.882812 1.460938 4.15625 0.773438 4.15625 -0.171875 L 4.15625 -4.296875 C 4.15625 -5.347656 4.40625 -6.148438 4.90625 -6.703125 C 5.414062 -7.265625 6.195312 -7.632812 7.25 -7.8125 Z M 7.25 -7.984375 "/></g></g></g><g clip-path="url(#773ee33023)"><path fill="#ca0035" d="M 191.882812 13.28125 L 179.820312 6.699219 C 179.277344 6.402344 178.738281 6.25 178.222656 6.25 C 176.773438 6.25 175.800781 7.390625 175.800781 9.085938 L 175.800781 21.972656 C 175.800781 23.667969 176.773438 24.804688 178.222656 24.804688 C 178.738281 24.804688 179.277344 24.652344 179.820312 24.355469 L 191.882812 17.777344 C 192.890625 17.226562 193.472656 16.40625 193.472656 15.527344 C 193.472656 14.652344 192.890625 13.828125 191.882812 13.28125 Z M 191.113281 16.367188 L 179.050781 22.945312 C 178.75 23.109375 178.464844 23.195312 178.222656 23.195312 C 177.488281 23.195312 177.414062 22.339844 177.414062 21.972656 L 177.414062 9.085938 C 177.414062 8.714844 177.492188 7.863281 178.222656 7.863281 C 178.464844 7.863281 178.75 7.949219 179.050781 8.113281 L 191.109375 14.691406 C 191.578125 14.945312 191.859375 15.261719 191.859375 15.527344 C 191.859375 15.796875 191.578125 16.109375 191.113281 16.367188 Z M 191.113281 16.367188 " fill-opacity="1" fill-rule="nonzero"/></g><g transform="matrix(1, 0, 0, 1, 15, 28)"><g clip-path="url(#9587d5b176)"><g fill="#ffffff" fill-opacity="1"><g transform="translate(1.709176, 9.026014)"><g/></g></g><g fill="#ffffff" fill-opacity="1"><g transform="translate(4.088757, 9.026014)"><g><path d="M -0.140625 0.03125 C -0.191406 0.03125 -0.226562 0.0078125 -0.25 -0.03125 C -0.28125 -0.0820312 -0.285156 -0.140625 -0.265625 -0.203125 C -0.234375 -0.304688 -0.195312 -0.367188 -0.15625 -0.390625 C -0.113281 -0.410156 -0.0390625 -0.421875 0.0625 -0.421875 C 0.257812 -0.421875 0.414062 -0.457031 0.53125 -0.53125 C 0.65625 -0.601562 0.738281 -0.695312 0.78125 -0.8125 C 0.832031 -0.925781 0.882812 -1.070312 0.9375 -1.25 L 1.921875 -5.46875 C 1.953125 -5.644531 1.96875 -5.785156 1.96875 -5.890625 C 1.96875 -6.003906 1.925781 -6.097656 1.84375 -6.171875 C 1.757812 -6.242188 1.617188 -6.28125 1.421875 -6.28125 L 1.359375 -6.28125 C 1.285156 -6.28125 1.234375 -6.289062 1.203125 -6.3125 C 1.171875 -6.34375 1.164062 -6.40625 1.1875 -6.5 C 1.207031 -6.5625 1.238281 -6.613281 1.28125 -6.65625 C 1.332031 -6.707031 1.382812 -6.734375 1.4375 -6.734375 C 1.894531 -6.710938 2.316406 -6.703125 2.703125 -6.703125 L 4.296875 -6.703125 C 4.910156 -6.703125 5.472656 -6.570312 5.984375 -6.3125 C 6.503906 -6.0625 6.675781 -5.554688 6.5 -4.796875 C 6.40625 -4.367188 6.191406 -3.988281 5.859375 -3.65625 C 5.535156 -3.320312 5.144531 -3.0625 4.6875 -2.875 C 4.238281 -2.695312 3.796875 -2.609375 3.359375 -2.609375 C 2.953125 -2.609375 2.609375 -2.660156 2.328125 -2.765625 L 1.984375 -1.25 C 1.941406 -1.070312 1.921875 -0.925781 1.921875 -0.8125 C 1.921875 -0.695312 1.960938 -0.601562 2.046875 -0.53125 C 2.128906 -0.457031 2.273438 -0.421875 2.484375 -0.421875 L 2.546875 -0.421875 C 2.617188 -0.421875 2.664062 -0.40625 2.6875 -0.375 C 2.71875 -0.351562 2.726562 -0.296875 2.71875 -0.203125 C 2.695312 -0.140625 2.664062 -0.0820312 2.625 -0.03125 C 2.582031 0.0078125 2.523438 0.03125 2.453125 0.03125 C 2.015625 0.0078125 1.578125 0 1.140625 0 C 0.753906 0 0.328125 0.0078125 -0.140625 0.03125 Z M 3.15625 -3.078125 C 3.414062 -3.078125 3.691406 -3.128906 3.984375 -3.234375 C 4.285156 -3.335938 4.554688 -3.515625 4.796875 -3.765625 C 5.046875 -4.015625 5.222656 -4.347656 5.328125 -4.765625 C 5.472656 -5.378906 5.367188 -5.789062 5.015625 -6 C 4.660156 -6.207031 4.257812 -6.3125 3.8125 -6.3125 C 3.632812 -6.3125 3.492188 -6.289062 3.390625 -6.25 C 3.296875 -6.207031 3.210938 -6.128906 3.140625 -6.015625 C 3.078125 -5.910156 3.019531 -5.738281 2.96875 -5.5 L 2.4375 -3.203125 C 2.582031 -3.117188 2.820312 -3.078125 3.15625 -3.078125 Z M 3.15625 -3.078125 "/></g></g></g><g fill="#ffffff" fill-opacity="1"><g transform="translate(9.891067, 9.026014)"><g><path d="M -0.703125 0.03125 C -0.765625 0.03125 -0.804688 0.0078125 -0.828125 -0.03125 C -0.847656 -0.0820312 -0.851562 -0.140625 -0.84375 -0.203125 C -0.8125 -0.304688 -0.773438 -0.367188 -0.734375 -0.390625 C -0.691406 -0.410156 -0.644531 -0.421875 -0.59375 -0.421875 C -0.550781 -0.421875 -0.519531 -0.421875 -0.5 -0.421875 C -0.289062 -0.421875 -0.125 -0.472656 0 -0.578125 C 0.125 -0.691406 0.234375 -0.816406 0.328125 -0.953125 C 0.421875 -1.097656 0.484375 -1.195312 0.515625 -1.25 L 3.390625 -5.640625 C 3.453125 -5.742188 3.492188 -5.828125 3.515625 -5.890625 C 3.535156 -6.023438 3.503906 -6.117188 3.421875 -6.171875 C 3.335938 -6.234375 3.210938 -6.28125 3.046875 -6.3125 C 2.929688 -6.332031 2.859375 -6.351562 2.828125 -6.375 C 2.804688 -6.394531 2.804688 -6.457031 2.828125 -6.5625 C 2.847656 -6.644531 2.882812 -6.695312 2.9375 -6.71875 C 2.988281 -6.75 3.066406 -6.765625 3.171875 -6.765625 C 3.523438 -6.765625 3.796875 -6.738281 3.984375 -6.6875 C 4.179688 -6.632812 4.335938 -6.523438 4.453125 -6.359375 C 4.578125 -6.203125 4.671875 -5.960938 4.734375 -5.640625 L 5.515625 -1.25 C 5.554688 -0.976562 5.609375 -0.773438 5.671875 -0.640625 C 5.742188 -0.503906 5.878906 -0.429688 6.078125 -0.421875 L 6.140625 -0.421875 C 6.203125 -0.421875 6.242188 -0.40625 6.265625 -0.375 C 6.296875 -0.351562 6.300781 -0.296875 6.28125 -0.203125 C 6.269531 -0.140625 6.242188 -0.0820312 6.203125 -0.03125 C 6.160156 0.0078125 6.109375 0.03125 6.046875 0.03125 C 5.597656 0.0078125 5.207031 0 4.875 0 C 4.457031 0 4.015625 0.0078125 3.546875 0.03125 C 3.484375 0.03125 3.441406 0.0078125 3.421875 -0.03125 C 3.398438 -0.0820312 3.398438 -0.140625 3.421875 -0.203125 C 3.441406 -0.296875 3.46875 -0.351562 3.5 -0.375 C 3.539062 -0.40625 3.597656 -0.421875 3.671875 -0.421875 C 3.910156 -0.421875 4.082031 -0.441406 4.1875 -0.484375 C 4.300781 -0.535156 4.375 -0.625 4.40625 -0.75 C 4.425781 -0.832031 4.421875 -1 4.390625 -1.25 L 4.234375 -2.125 L 1.609375 -2.125 C 1.328125 -1.6875 1.164062 -1.429688 1.125 -1.359375 C 1.082031 -1.285156 1.0625 -1.25 1.0625 -1.25 C 0.914062 -0.976562 0.835938 -0.800781 0.828125 -0.71875 C 0.796875 -0.601562 0.828125 -0.523438 0.921875 -0.484375 C 1.015625 -0.441406 1.210938 -0.421875 1.515625 -0.421875 L 1.578125 -0.421875 C 1.648438 -0.421875 1.695312 -0.40625 1.71875 -0.375 C 1.738281 -0.351562 1.738281 -0.296875 1.71875 -0.203125 C 1.707031 -0.140625 1.679688 -0.0820312 1.640625 -0.03125 C 1.597656 0.0078125 1.546875 0.03125 1.484375 0.03125 C 1.035156 0.0078125 0.648438 0 0.328125 0 C 0.109375 0 -0.234375 0.0078125 -0.703125 0.03125 Z M 1.921875 -2.578125 L 4.15625 -2.578125 L 3.703125 -5.3125 L 3.671875 -5.3125 Z M 1.921875 -2.578125 "/></g></g></g><g fill="#ffffff" fill-opacity="1"><g transform="translate(16.405412, 9.026014)"><g><path d="M -0.125 0.03125 C -0.1875 0.03125 -0.226562 0.0078125 -0.25 -0.03125 C -0.269531 -0.0820312 -0.269531 -0.140625 -0.25 -0.203125 C -0.21875 -0.304688 -0.179688 -0.367188 -0.140625 -0.390625 C -0.109375 -0.410156 -0.0390625 -0.421875 0.0625 -0.421875 C 0.257812 -0.421875 0.414062 -0.457031 0.53125 -0.53125 C 0.65625 -0.601562 0.738281 -0.695312 0.78125 -0.8125 C 0.832031 -0.925781 0.882812 -1.070312 0.9375 -1.25 L 1.921875 -5.453125 C 1.953125 -5.640625 1.96875 -5.785156 1.96875 -5.890625 C 1.96875 -5.992188 1.925781 -6.082031 1.84375 -6.15625 C 1.757812 -6.238281 1.617188 -6.28125 1.421875 -6.28125 L 1.359375 -6.28125 C 1.285156 -6.28125 1.234375 -6.289062 1.203125 -6.3125 C 1.179688 -6.34375 1.175781 -6.40625 1.1875 -6.5 C 1.21875 -6.5625 1.253906 -6.613281 1.296875 -6.65625 C 1.335938 -6.707031 1.390625 -6.734375 1.453125 -6.734375 C 1.898438 -6.710938 2.316406 -6.703125 2.703125 -6.703125 L 4.53125 -6.703125 C 5.070312 -6.691406 5.503906 -6.601562 5.828125 -6.4375 C 6.160156 -6.269531 6.378906 -6.054688 6.484375 -5.796875 C 6.597656 -5.546875 6.617188 -5.269531 6.546875 -4.96875 C 6.460938 -4.582031 6.226562 -4.222656 5.84375 -3.890625 C 5.457031 -3.566406 4.984375 -3.335938 4.421875 -3.203125 L 4.53125 -2.90625 C 4.71875 -2.425781 4.890625 -2.015625 5.046875 -1.671875 C 5.210938 -1.328125 5.40625 -1.007812 5.625 -0.71875 C 5.78125 -0.550781 5.96875 -0.453125 6.1875 -0.421875 C 6.195312 -0.421875 6.226562 -0.421875 6.28125 -0.421875 C 6.332031 -0.421875 6.367188 -0.398438 6.390625 -0.359375 C 6.421875 -0.328125 6.425781 -0.273438 6.40625 -0.203125 C 6.382812 -0.140625 6.351562 -0.0820312 6.3125 -0.03125 C 6.269531 0.0078125 6.21875 0.03125 6.15625 0.03125 L 5.890625 0.015625 C 5.578125 0.00390625 5.351562 0 5.21875 0 C 4.945312 -0.0507812 4.722656 -0.148438 4.546875 -0.296875 C 4.378906 -0.441406 4.226562 -0.648438 4.09375 -0.921875 C 3.957031 -1.191406 3.773438 -1.628906 3.546875 -2.234375 L 3.421875 -2.546875 C 3.347656 -2.710938 3.269531 -2.820312 3.1875 -2.875 C 3.101562 -2.9375 2.941406 -2.96875 2.703125 -2.96875 L 2.390625 -2.96875 L 1.984375 -1.25 C 1.953125 -1.070312 1.9375 -0.925781 1.9375 -0.8125 C 1.9375 -0.695312 1.976562 -0.601562 2.0625 -0.53125 C 2.144531 -0.457031 2.285156 -0.421875 2.484375 -0.421875 L 2.5625 -0.421875 C 2.625 -0.421875 2.664062 -0.40625 2.6875 -0.375 C 2.71875 -0.351562 2.726562 -0.296875 2.71875 -0.203125 C 2.695312 -0.140625 2.664062 -0.0820312 2.625 -0.03125 C 2.582031 0.0078125 2.523438 0.03125 2.453125 0.03125 C 2.015625 0.0078125 1.578125 0 1.140625 0 C 0.765625 0 0.34375 0.0078125 -0.125 0.03125 Z M 3.421875 -3.390625 C 4.484375 -3.390625 5.125 -3.882812 5.34375 -4.875 C 5.4375 -5.28125 5.375 -5.617188 5.15625 -5.890625 C 4.945312 -6.171875 4.53125 -6.3125 3.90625 -6.3125 C 3.695312 -6.3125 3.535156 -6.285156 3.421875 -6.234375 C 3.304688 -6.179688 3.210938 -6.09375 3.140625 -5.96875 C 3.078125 -5.851562 3.015625 -5.671875 2.953125 -5.421875 L 2.484375 -3.390625 Z M 3.421875 -3.390625 "/></g></g></g><g fill="#ffffff" fill-opacity="1"><g transform="translate(23.536199, 9.026014)"><g><path d="M -0.703125 0.03125 C -0.765625 0.03125 -0.804688 0.0078125 -0.828125 -0.03125 C -0.847656 -0.0820312 -0.851562 -0.140625 -0.84375 -0.203125 C -0.8125 -0.304688 -0.773438 -0.367188 -0.734375 -0.390625 C -0.691406 -0.410156 -0.644531 -0.421875 -0.59375 -0.421875 C -0.550781 -0.421875 -0.519531 -0.421875 -0.5 -0.421875 C -0.289062 -0.421875 -0.125 -0.472656 0 -0.578125 C 0.125 -0.691406 0.234375 -0.816406 0.328125 -0.953125 C 0.421875 -1.097656 0.484375 -1.195312 0.515625 -1.25 L 3.390625 -5.640625 C 3.453125 -5.742188 3.492188 -5.828125 3.515625 -5.890625 C 3.535156 -6.023438 3.503906 -6.117188 3.421875 -6.171875 C 3.335938 -6.234375 3.210938 -6.28125 3.046875 -6.3125 C 2.929688 -6.332031 2.859375 -6.351562 2.828125 -6.375 C 2.804688 -6.394531 2.804688 -6.457031 2.828125 -6.5625 C 2.847656 -6.644531 2.882812 -6.695312 2.9375 -6.71875 C 2.988281 -6.75 3.066406 -6.765625 3.171875 -6.765625 C 3.523438 -6.765625 3.796875 -6.738281 3.984375 -6.6875 C 4.179688 -6.632812 4.335938 -6.523438 4.453125 -6.359375 C 4.578125 -6.203125 4.671875 -5.960938 4.734375 -5.640625 L 5.515625 -1.25 C 5.554688 -0.976562 5.609375 -0.773438 5.671875 -0.640625 C 5.742188 -0.503906 5.878906 -0.429688 6.078125 -0.421875 L 6.140625 -0.421875 C 6.203125 -0.421875 6.242188 -0.40625 6.265625 -0.375 C 6.296875 -0.351562 6.300781 -0.296875 6.28125 -0.203125 C 6.269531 -0.140625 6.242188 -0.0820312 6.203125 -0.03125 C 6.160156 0.0078125 6.109375 0.03125 6.046875 0.03125 C 5.597656 0.0078125 5.207031 0 4.875 0 C 4.457031 0 4.015625 0.0078125 3.546875 0.03125 C 3.484375 0.03125 3.441406 0.0078125 3.421875 -0.03125 C 3.398438 -0.0820312 3.398438 -0.140625 3.421875 -0.203125 C 3.441406 -0.296875 3.46875 -0.351562 3.5 -0.375 C 3.539062 -0.40625 3.597656 -0.421875 3.671875 -0.421875 C 3.910156 -0.421875 4.082031 -0.441406 4.1875 -0.484375 C 4.300781 -0.535156 4.375 -0.625 4.40625 -0.75 C 4.425781 -0.832031 4.421875 -1 4.390625 -1.25 L 4.234375 -2.125 L 1.609375 -2.125 C 1.328125 -1.6875 1.164062 -1.429688 1.125 -1.359375 C 1.082031 -1.285156 1.0625 -1.25 1.0625 -1.25 C 0.914062 -0.976562 0.835938 -0.800781 0.828125 -0.71875 C 0.796875 -0.601562 0.828125 -0.523438 0.921875 -0.484375 C 1.015625 -0.441406 1.210938 -0.421875 1.515625 -0.421875 L 1.578125 -0.421875 C 1.648438 -0.421875 1.695312 -0.40625 1.71875 -0.375 C 1.738281 -0.351562 1.738281 -0.296875 1.71875 -0.203125 C 1.707031 -0.140625 1.679688 -0.0820312 1.640625 -0.03125 C 1.597656 0.0078125 1.546875 0.03125 1.484375 0.03125 C 1.035156 0.0078125 0.648438 0 0.328125 0 C 0.109375 0 -0.234375 0.0078125 -0.703125 0.03125 Z M 1.921875 -2.578125 L 4.15625 -2.578125 L 3.703125 -5.3125 L 3.671875 -5.3125 Z M 1.921875 -2.578125 "/></g></g></g><g fill="#ffffff" fill-opacity="1"><g transform="translate(30.475692, 9.026014)"><g/></g></g><g fill="#ffffff" fill-opacity="1"><g transform="translate(32.84554, 9.026014)"><g><path d="M -0.140625 0.03125 C -0.191406 0.03125 -0.226562 0.0078125 -0.25 -0.03125 C -0.28125 -0.0820312 -0.285156 -0.140625 -0.265625 -0.203125 C -0.234375 -0.304688 -0.195312 -0.367188 -0.15625 -0.390625 C -0.113281 -0.410156 -0.0390625 -0.421875 0.0625 -0.421875 C 0.257812 -0.421875 0.414062 -0.457031 0.53125 -0.53125 C 0.65625 -0.601562 0.738281 -0.695312 0.78125 -0.8125 C 0.832031 -0.925781 0.882812 -1.070312 0.9375 -1.25 L 1.921875 -5.46875 C 1.953125 -5.644531 1.96875 -5.785156 1.96875 -5.890625 C 1.96875 -6.003906 1.925781 -6.097656 1.84375 -6.171875 C 1.757812 -6.242188 1.617188 -6.28125 1.421875 -6.28125 L 1.359375 -6.28125 C 1.285156 -6.28125 1.234375 -6.289062 1.203125 -6.3125 C 1.171875 -6.34375 1.164062 -6.40625 1.1875 -6.5 C 1.207031 -6.5625 1.238281 -6.613281 1.28125 -6.65625 C 1.332031 -6.707031 1.382812 -6.734375 1.4375 -6.734375 C 1.894531 -6.710938 2.316406 -6.703125 2.703125 -6.703125 L 4.296875 -6.703125 C 4.910156 -6.703125 5.472656 -6.570312 5.984375 -6.3125 C 6.503906 -6.0625 6.675781 -5.554688 6.5 -4.796875 C 6.40625 -4.367188 6.191406 -3.988281 5.859375 -3.65625 C 5.535156 -3.320312 5.144531 -3.0625 4.6875 -2.875 C 4.238281 -2.695312 3.796875 -2.609375 3.359375 -2.609375 C 2.953125 -2.609375 2.609375 -2.660156 2.328125 -2.765625 L 1.984375 -1.25 C 1.941406 -1.070312 1.921875 -0.925781 1.921875 -0.8125 C 1.921875 -0.695312 1.960938 -0.601562 2.046875 -0.53125 C 2.128906 -0.457031 2.273438 -0.421875 2.484375 -0.421875 L 2.546875 -0.421875 C 2.617188 -0.421875 2.664062 -0.40625 2.6875 -0.375 C 2.71875 -0.351562 2.726562 -0.296875 2.71875 -0.203125 C 2.695312 -0.140625 2.664062 -0.0820312 2.625 -0.03125 C 2.582031 0.0078125 2.523438 0.03125 2.453125 0.03125 C 2.015625 0.0078125 1.578125 0 1.140625 0 C 0.753906 0 0.328125 0.0078125 -0.140625 0.03125 Z M 3.15625 -3.078125 C 3.414062 -3.078125 3.691406 -3.128906 3.984375 -3.234375 C 4.285156 -3.335938 4.554688 -3.515625 4.796875 -3.765625 C 5.046875 -4.015625 5.222656 -4.347656 5.328125 -4.765625 C 5.472656 -5.378906 5.367188 -5.789062 5.015625 -6 C 4.660156 -6.207031 4.257812 -6.3125 3.8125 -6.3125 C 3.632812 -6.3125 3.492188 -6.289062 3.390625 -6.25 C 3.296875 -6.207031 3.210938 -6.128906 3.140625 -6.015625 C 3.078125 -5.910156 3.019531 -5.738281 2.96875 -5.5 L 2.4375 -3.203125 C 2.582031 -3.117188 2.820312 -3.078125 3.15625 -3.078125 Z M 3.15625 -3.078125 "/></g></g></g><g fill="#ffffff" fill-opacity="1"><g transform="translate(39.189906, 9.026014)"><g><path d="M -0.125 0.03125 C -0.1875 0.03125 -0.226562 0.0078125 -0.25 -0.03125 C -0.269531 -0.0820312 -0.269531 -0.140625 -0.25 -0.203125 C -0.21875 -0.304688 -0.179688 -0.367188 -0.140625 -0.390625 C -0.109375 -0.410156 -0.0390625 -0.421875 0.0625 -0.421875 C 0.257812 -0.421875 0.414062 -0.457031 0.53125 -0.53125 C 0.65625 -0.601562 0.738281 -0.695312 0.78125 -0.8125 C 0.832031 -0.925781 0.882812 -1.070312 0.9375 -1.25 L 1.921875 -5.453125 C 1.953125 -5.640625 1.96875 -5.785156 1.96875 -5.890625 C 1.96875 -5.992188 1.925781 -6.082031 1.84375 -6.15625 C 1.757812 -6.238281 1.617188 -6.28125 1.421875 -6.28125 L 1.359375 -6.28125 C 1.285156 -6.28125 1.234375 -6.289062 1.203125 -6.3125 C 1.179688 -6.34375 1.175781 -6.40625 1.1875 -6.5 C 1.21875 -6.5625 1.253906 -6.613281 1.296875 -6.65625 C 1.335938 -6.707031 1.390625 -6.734375 1.453125 -6.734375 C 1.898438 -6.710938 2.316406 -6.703125 2.703125 -6.703125 L 4.53125 -6.703125 C 5.070312 -6.691406 5.503906 -6.601562 5.828125 -6.4375 C 6.160156 -6.269531 6.378906 -6.054688 6.484375 -5.796875 C 6.597656 -5.546875 6.617188 -5.269531 6.546875 -4.96875 C 6.460938 -4.582031 6.226562 -4.222656 5.84375 -3.890625 C 5.457031 -3.566406 4.984375 -3.335938 4.421875 -3.203125 L 4.53125 -2.90625 C 4.71875 -2.425781 4.890625 -2.015625 5.046875 -1.671875 C 5.210938 -1.328125 5.40625 -1.007812 5.625 -0.71875 C 5.78125 -0.550781 5.96875 -0.453125 6.1875 -0.421875 C 6.195312 -0.421875 6.226562 -0.421875 6.28125 -0.421875 C 6.332031 -0.421875 6.367188 -0.398438 6.390625 -0.359375 C 6.421875 -0.328125 6.425781 -0.273438 6.40625 -0.203125 C 6.382812 -0.140625 6.351562 -0.0820312 6.3125 -0.03125 C 6.269531 0.0078125 6.21875 0.03125 6.15625 0.03125 L 5.890625 0.015625 C 5.578125 0.00390625 5.351562 0 5.21875 0 C 4.945312 -0.0507812 4.722656 -0.148438 4.546875 -0.296875 C 4.378906 -0.441406 4.226562 -0.648438 4.09375 -0.921875 C 3.957031 -1.191406 3.773438 -1.628906 3.546875 -2.234375 L 3.421875 -2.546875 C 3.347656 -2.710938 3.269531 -2.820312 3.1875 -2.875 C 3.101562 -2.9375 2.941406 -2.96875 2.703125 -2.96875 L 2.390625 -2.96875 L 1.984375 -1.25 C 1.953125 -1.070312 1.9375 -0.925781 1.9375 -0.8125 C 1.9375 -0.695312 1.976562 -0.601562 2.0625 -0.53125 C 2.144531 -0.457031 2.285156 -0.421875 2.484375 -0.421875 L 2.5625 -0.421875 C 2.625 -0.421875 2.664062 -0.40625 2.6875 -0.375 C 2.71875 -0.351562 2.726562 -0.296875 2.71875 -0.203125 C 2.695312 -0.140625 2.664062 -0.0820312 2.625 -0.03125 C 2.582031 0.0078125 2.523438 0.03125 2.453125 0.03125 C 2.015625 0.0078125 1.578125 0 1.140625 0 C 0.765625 0 0.34375 0.0078125 -0.125 0.03125 Z M 3.421875 -3.390625 C 4.484375 -3.390625 5.125 -3.882812 5.34375 -4.875 C 5.4375 -5.28125 5.375 -5.617188 5.15625 -5.890625 C 4.945312 -6.171875 4.53125 -6.3125 3.90625 -6.3125 C 3.695312 -6.3125 3.535156 -6.285156 3.421875 -6.234375 C 3.304688 -6.179688 3.210938 -6.09375 3.140625 -5.96875 C 3.078125 -5.851562 3.015625 -5.671875 2.953125 -5.421875 L 2.484375 -3.390625 Z M 3.421875 -3.390625 "/></g></g></g><g fill="#ffffff" fill-opacity="1"><g transform="translate(46.150629, 9.026014)"><g><path d="M 3.078125 0.21875 C 2.398438 0.21875 1.84375 0.0546875 1.40625 -0.265625 C 0.96875 -0.585938 0.664062 -1.015625 0.5 -1.546875 C 0.34375 -2.078125 0.335938 -2.648438 0.484375 -3.265625 C 0.648438 -4.003906 0.960938 -4.648438 1.421875 -5.203125 C 1.890625 -5.753906 2.421875 -6.175781 3.015625 -6.46875 C 3.609375 -6.769531 4.171875 -6.921875 4.703125 -6.921875 C 5.390625 -6.921875 5.953125 -6.757812 6.390625 -6.4375 C 6.835938 -6.113281 7.140625 -5.6875 7.296875 -5.15625 C 7.460938 -4.625 7.472656 -4.054688 7.328125 -3.453125 C 7.160156 -2.710938 6.84375 -2.0625 6.375 -1.5 C 5.90625 -0.945312 5.367188 -0.519531 4.765625 -0.21875 C 4.171875 0.0703125 3.609375 0.21875 3.078125 0.21875 Z M 3.171875 -0.25 C 3.648438 -0.25 4.082031 -0.390625 4.46875 -0.671875 C 4.851562 -0.960938 5.179688 -1.351562 5.453125 -1.84375 C 5.722656 -2.332031 5.925781 -2.867188 6.0625 -3.453125 C 6.195312 -3.992188 6.234375 -4.492188 6.171875 -4.953125 C 6.117188 -5.410156 5.957031 -5.773438 5.6875 -6.046875 C 5.425781 -6.316406 5.0625 -6.453125 4.59375 -6.453125 C 3.882812 -6.453125 3.28125 -6.15625 2.78125 -5.5625 C 2.289062 -4.96875 1.941406 -4.210938 1.734375 -3.296875 C 1.609375 -2.742188 1.570312 -2.234375 1.625 -1.765625 C 1.675781 -1.304688 1.828125 -0.9375 2.078125 -0.65625 C 2.335938 -0.382812 2.703125 -0.25 3.171875 -0.25 Z M 3.171875 -0.25 "/></g></g></g><g fill="#ffffff" fill-opacity="1"><g transform="translate(53.961551, 9.026014)"><g><path d="M 3 0.21875 C 2.382812 0.21875 1.851562 0.0859375 1.40625 -0.171875 C 0.96875 -0.429688 0.664062 -0.820312 0.5 -1.34375 C 0.332031 -1.875 0.335938 -2.523438 0.515625 -3.296875 C 0.671875 -4.015625 0.96875 -4.644531 1.40625 -5.1875 C 1.851562 -5.738281 2.390625 -6.164062 3.015625 -6.46875 C 3.648438 -6.769531 4.328125 -6.921875 5.046875 -6.921875 C 5.398438 -6.921875 5.738281 -6.863281 6.0625 -6.75 C 6.394531 -6.644531 6.644531 -6.476562 6.8125 -6.25 C 6.988281 -6.03125 7.035156 -5.753906 6.953125 -5.421875 C 6.890625 -5.109375 6.738281 -4.835938 6.5 -4.609375 C 6.257812 -4.378906 5.988281 -4.265625 5.6875 -4.265625 C 5.539062 -4.265625 5.40625 -4.300781 5.28125 -4.375 C 5.15625 -4.445312 5.101562 -4.539062 5.125 -4.65625 C 5.125 -4.664062 5.179688 -4.703125 5.296875 -4.765625 C 5.410156 -4.835938 5.519531 -4.929688 5.625 -5.046875 C 5.738281 -5.171875 5.816406 -5.320312 5.859375 -5.5 C 5.921875 -5.789062 5.851562 -6.023438 5.65625 -6.203125 C 5.46875 -6.390625 5.191406 -6.484375 4.828125 -6.484375 C 4.390625 -6.484375 3.960938 -6.363281 3.546875 -6.125 C 3.140625 -5.882812 2.78125 -5.523438 2.46875 -5.046875 C 2.15625 -4.578125 1.921875 -4.019531 1.765625 -3.375 C 1.617188 -2.738281 1.59375 -2.191406 1.6875 -1.734375 C 1.789062 -1.273438 1.992188 -0.921875 2.296875 -0.671875 C 2.609375 -0.429688 3.003906 -0.3125 3.484375 -0.3125 C 3.710938 -0.3125 3.910156 -0.320312 4.078125 -0.34375 C 4.253906 -0.363281 4.453125 -0.410156 4.671875 -0.484375 L 4.921875 -1.5625 C 4.972656 -1.8125 5.003906 -1.984375 5.015625 -2.078125 C 5.023438 -2.179688 4.984375 -2.253906 4.890625 -2.296875 C 4.804688 -2.347656 4.65625 -2.375 4.4375 -2.375 C 4.351562 -2.375 4.296875 -2.382812 4.265625 -2.40625 C 4.234375 -2.4375 4.226562 -2.503906 4.25 -2.609375 C 4.257812 -2.671875 4.289062 -2.722656 4.34375 -2.765625 C 4.394531 -2.816406 4.457031 -2.84375 4.53125 -2.84375 C 4.96875 -2.820312 5.351562 -2.8125 5.6875 -2.8125 C 6 -2.8125 6.382812 -2.820312 6.84375 -2.84375 C 6.90625 -2.84375 6.945312 -2.816406 6.96875 -2.765625 C 7 -2.722656 7.003906 -2.671875 6.984375 -2.609375 C 6.953125 -2.503906 6.914062 -2.4375 6.875 -2.40625 C 6.84375 -2.382812 6.785156 -2.375 6.703125 -2.375 C 6.492188 -2.375 6.332031 -2.34375 6.21875 -2.28125 C 6.113281 -2.226562 6.035156 -2.148438 5.984375 -2.046875 C 5.941406 -1.953125 5.898438 -1.789062 5.859375 -1.5625 L 5.5625 -0.3125 C 5.09375 -0.113281 4.675781 0.0195312 4.3125 0.09375 C 3.957031 0.175781 3.519531 0.21875 3 0.21875 Z M 3 0.21875 "/></g></g></g><g fill="#ffffff" fill-opacity="1"><g transform="translate(61.262353, 9.026014)"><g><path d="M -0.125 0.03125 C -0.1875 0.03125 -0.226562 0.0078125 -0.25 -0.03125 C -0.269531 -0.0820312 -0.269531 -0.140625 -0.25 -0.203125 C -0.21875 -0.304688 -0.179688 -0.367188 -0.140625 -0.390625 C -0.109375 -0.410156 -0.0390625 -0.421875 0.0625 -0.421875 C 0.257812 -0.421875 0.414062 -0.457031 0.53125 -0.53125 C 0.65625 -0.601562 0.738281 -0.695312 0.78125 -0.8125 C 0.832031 -0.925781 0.882812 -1.070312 0.9375 -1.25 L 1.921875 -5.453125 C 1.953125 -5.640625 1.96875 -5.785156 1.96875 -5.890625 C 1.96875 -5.992188 1.925781 -6.082031 1.84375 -6.15625 C 1.757812 -6.238281 1.617188 -6.28125 1.421875 -6.28125 L 1.359375 -6.28125 C 1.285156 -6.28125 1.234375 -6.289062 1.203125 -6.3125 C 1.179688 -6.34375 1.175781 -6.40625 1.1875 -6.5 C 1.21875 -6.5625 1.253906 -6.613281 1.296875 -6.65625 C 1.335938 -6.707031 1.390625 -6.734375 1.453125 -6.734375 C 1.898438 -6.710938 2.316406 -6.703125 2.703125 -6.703125 L 4.53125 -6.703125 C 5.070312 -6.691406 5.503906 -6.601562 5.828125 -6.4375 C 6.160156 -6.269531 6.378906 -6.054688 6.484375 -5.796875 C 6.597656 -5.546875 6.617188 -5.269531 6.546875 -4.96875 C 6.460938 -4.582031 6.226562 -4.222656 5.84375 -3.890625 C 5.457031 -3.566406 4.984375 -3.335938 4.421875 -3.203125 L 4.53125 -2.90625 C 4.71875 -2.425781 4.890625 -2.015625 5.046875 -1.671875 C 5.210938 -1.328125 5.40625 -1.007812 5.625 -0.71875 C 5.78125 -0.550781 5.96875 -0.453125 6.1875 -0.421875 C 6.195312 -0.421875 6.226562 -0.421875 6.28125 -0.421875 C 6.332031 -0.421875 6.367188 -0.398438 6.390625 -0.359375 C 6.421875 -0.328125 6.425781 -0.273438 6.40625 -0.203125 C 6.382812 -0.140625 6.351562 -0.0820312 6.3125 -0.03125 C 6.269531 0.0078125 6.21875 0.03125 6.15625 0.03125 L 5.890625 0.015625 C 5.578125 0.00390625 5.351562 0 5.21875 0 C 4.945312 -0.0507812 4.722656 -0.148438 4.546875 -0.296875 C 4.378906 -0.441406 4.226562 -0.648438 4.09375 -0.921875 C 3.957031 -1.191406 3.773438 -1.628906 3.546875 -2.234375 L 3.421875 -2.546875 C 3.347656 -2.710938 3.269531 -2.820312 3.1875 -2.875 C 3.101562 -2.9375 2.941406 -2.96875 2.703125 -2.96875 L 2.390625 -2.96875 L 1.984375 -1.25 C 1.953125 -1.070312 1.9375 -0.925781 1.9375 -0.8125 C 1.9375 -0.695312 1.976562 -0.601562 2.0625 -0.53125 C 2.144531 -0.457031 2.285156 -0.421875 2.484375 -0.421875 L 2.5625 -0.421875 C 2.625 -0.421875 2.664062 -0.40625 2.6875 -0.375 C 2.71875 -0.351562 2.726562 -0.296875 2.71875 -0.203125 C 2.695312 -0.140625 2.664062 -0.0820312 2.625 -0.03125 C 2.582031 0.0078125 2.523438 0.03125 2.453125 0.03125 C 2.015625 0.0078125 1.578125 0 1.140625 0 C 0.765625 0 0.34375 0.0078125 -0.125 0.03125 Z M 3.421875 -3.390625 C 4.484375 -3.390625 5.125 -3.882812 5.34375 -4.875 C 5.4375 -5.28125 5.375 -5.617188 5.15625 -5.890625 C 4.945312 -6.171875 4.53125 -6.3125 3.90625 -6.3125 C 3.695312 -6.3125 3.535156 -6.285156 3.421875 -6.234375 C 3.304688 -6.179688 3.210938 -6.09375 3.140625 -5.96875 C 3.078125 -5.851562 3.015625 -5.671875 2.953125 -5.421875 L 2.484375 -3.390625 Z M 3.421875 -3.390625 "/></g></g></g><g fill="#ffffff" fill-opacity="1"><g transform="translate(68.39314, 9.026014)"><g><path d="M -0.703125 0.03125 C -0.765625 0.03125 -0.804688 0.0078125 -0.828125 -0.03125 C -0.847656 -0.0820312 -0.851562 -0.140625 -0.84375 -0.203125 C -0.8125 -0.304688 -0.773438 -0.367188 -0.734375 -0.390625 C -0.691406 -0.410156 -0.644531 -0.421875 -0.59375 -0.421875 C -0.550781 -0.421875 -0.519531 -0.421875 -0.5 -0.421875 C -0.289062 -0.421875 -0.125 -0.472656 0 -0.578125 C 0.125 -0.691406 0.234375 -0.816406 0.328125 -0.953125 C 0.421875 -1.097656 0.484375 -1.195312 0.515625 -1.25 L 3.390625 -5.640625 C 3.453125 -5.742188 3.492188 -5.828125 3.515625 -5.890625 C 3.535156 -6.023438 3.503906 -6.117188 3.421875 -6.171875 C 3.335938 -6.234375 3.210938 -6.28125 3.046875 -6.3125 C 2.929688 -6.332031 2.859375 -6.351562 2.828125 -6.375 C 2.804688 -6.394531 2.804688 -6.457031 2.828125 -6.5625 C 2.847656 -6.644531 2.882812 -6.695312 2.9375 -6.71875 C 2.988281 -6.75 3.066406 -6.765625 3.171875 -6.765625 C 3.523438 -6.765625 3.796875 -6.738281 3.984375 -6.6875 C 4.179688 -6.632812 4.335938 -6.523438 4.453125 -6.359375 C 4.578125 -6.203125 4.671875 -5.960938 4.734375 -5.640625 L 5.515625 -1.25 C 5.554688 -0.976562 5.609375 -0.773438 5.671875 -0.640625 C 5.742188 -0.503906 5.878906 -0.429688 6.078125 -0.421875 L 6.140625 -0.421875 C 6.203125 -0.421875 6.242188 -0.40625 6.265625 -0.375 C 6.296875 -0.351562 6.300781 -0.296875 6.28125 -0.203125 C 6.269531 -0.140625 6.242188 -0.0820312 6.203125 -0.03125 C 6.160156 0.0078125 6.109375 0.03125 6.046875 0.03125 C 5.597656 0.0078125 5.207031 0 4.875 0 C 4.457031 0 4.015625 0.0078125 3.546875 0.03125 C 3.484375 0.03125 3.441406 0.0078125 3.421875 -0.03125 C 3.398438 -0.0820312 3.398438 -0.140625 3.421875 -0.203125 C 3.441406 -0.296875 3.46875 -0.351562 3.5 -0.375 C 3.539062 -0.40625 3.597656 -0.421875 3.671875 -0.421875 C 3.910156 -0.421875 4.082031 -0.441406 4.1875 -0.484375 C 4.300781 -0.535156 4.375 -0.625 4.40625 -0.75 C 4.425781 -0.832031 4.421875 -1 4.390625 -1.25 L 4.234375 -2.125 L 1.609375 -2.125 C 1.328125 -1.6875 1.164062 -1.429688 1.125 -1.359375 C 1.082031 -1.285156 1.0625 -1.25 1.0625 -1.25 C 0.914062 -0.976562 0.835938 -0.800781 0.828125 -0.71875 C 0.796875 -0.601562 0.828125 -0.523438 0.921875 -0.484375 C 1.015625 -0.441406 1.210938 -0.421875 1.515625 -0.421875 L 1.578125 -0.421875 C 1.648438 -0.421875 1.695312 -0.40625 1.71875 -0.375 C 1.738281 -0.351562 1.738281 -0.296875 1.71875 -0.203125 C 1.707031 -0.140625 1.679688 -0.0820312 1.640625 -0.03125 C 1.597656 0.0078125 1.546875 0.03125 1.484375 0.03125 C 1.035156 0.0078125 0.648438 0 0.328125 0 C 0.109375 0 -0.234375 0.0078125 -0.703125 0.03125 Z M 1.921875 -2.578125 L 4.15625 -2.578125 L 3.703125 -5.3125 L 3.671875 -5.3125 Z M 1.921875 -2.578125 "/></g></g></g><g fill="#ffffff" fill-opacity="1"><g transform="translate(74.907485, 9.026014)"><g><path d="M 3.78125 0.046875 C 3.675781 0.046875 3.609375 0.015625 3.578125 -0.046875 L 2.4375 -5.46875 L 2.40625 -5.46875 L 1.453125 -1.25 C 1.410156 -1.050781 1.390625 -0.898438 1.390625 -0.796875 C 1.390625 -0.691406 1.425781 -0.601562 1.5 -0.53125 C 1.582031 -0.457031 1.722656 -0.421875 1.921875 -0.421875 L 1.984375 -0.421875 C 2.054688 -0.421875 2.109375 -0.40625 2.140625 -0.375 C 2.171875 -0.351562 2.175781 -0.296875 2.15625 -0.203125 C 2.132812 -0.140625 2.101562 -0.0820312 2.0625 -0.03125 C 2.019531 0.0078125 1.96875 0.03125 1.90625 0.03125 L 1.65625 0.015625 C 1.320312 0.00390625 1.085938 0 0.953125 0 C 0.710938 0 0.359375 0.0078125 -0.109375 0.03125 C -0.171875 0.03125 -0.210938 0.0078125 -0.234375 -0.03125 C -0.253906 -0.0820312 -0.257812 -0.140625 -0.25 -0.203125 C -0.21875 -0.304688 -0.179688 -0.367188 -0.140625 -0.390625 C -0.0976562 -0.410156 -0.03125 -0.421875 0.0625 -0.421875 C 0.269531 -0.421875 0.429688 -0.457031 0.546875 -0.53125 C 0.660156 -0.601562 0.738281 -0.691406 0.78125 -0.796875 C 0.832031 -0.898438 0.878906 -1.050781 0.921875 -1.25 L 1.921875 -5.46875 C 1.972656 -5.6875 1.984375 -5.847656 1.953125 -5.953125 C 1.929688 -6.066406 1.878906 -6.144531 1.796875 -6.1875 C 1.710938 -6.238281 1.582031 -6.28125 1.40625 -6.3125 C 1.375 -6.320312 1.332031 -6.332031 1.28125 -6.34375 C 1.226562 -6.351562 1.195312 -6.375 1.1875 -6.40625 C 1.175781 -6.4375 1.175781 -6.488281 1.1875 -6.5625 C 1.21875 -6.644531 1.257812 -6.695312 1.3125 -6.71875 C 1.363281 -6.75 1.4375 -6.765625 1.53125 -6.765625 C 1.945312 -6.765625 2.285156 -6.738281 2.546875 -6.6875 C 2.804688 -6.632812 3.015625 -6.523438 3.171875 -6.359375 C 3.335938 -6.203125 3.453125 -5.960938 3.515625 -5.640625 L 4.40625 -1.546875 L 4.4375 -1.546875 L 7.71875 -6.703125 L 8.328125 -6.703125 C 8.710938 -6.703125 9.132812 -6.710938 9.59375 -6.734375 C 9.65625 -6.734375 9.695312 -6.707031 9.71875 -6.65625 C 9.738281 -6.613281 9.742188 -6.5625 9.734375 -6.5 C 9.703125 -6.394531 9.660156 -6.332031 9.609375 -6.3125 C 9.566406 -6.289062 9.5 -6.28125 9.40625 -6.28125 C 9.195312 -6.28125 9.035156 -6.242188 8.921875 -6.171875 C 8.816406 -6.097656 8.734375 -6.003906 8.671875 -5.890625 C 8.617188 -5.785156 8.570312 -5.644531 8.53125 -5.46875 L 7.5625 -1.25 C 7.519531 -1.070312 7.5 -0.925781 7.5 -0.8125 C 7.5 -0.695312 7.539062 -0.601562 7.625 -0.53125 C 7.707031 -0.457031 7.851562 -0.421875 8.0625 -0.421875 L 8.125 -0.421875 C 8.1875 -0.421875 8.226562 -0.40625 8.25 -0.375 C 8.28125 -0.351562 8.285156 -0.296875 8.265625 -0.203125 C 8.253906 -0.140625 8.226562 -0.0820312 8.1875 -0.03125 C 8.144531 0.0078125 8.09375 0.03125 8.03125 0.03125 C 7.582031 0.0078125 7.160156 0 6.765625 0 C 6.347656 0 5.90625 0.0078125 5.4375 0.03125 C 5.375 0.03125 5.332031 0.0078125 5.3125 -0.03125 C 5.289062 -0.0820312 5.289062 -0.140625 5.3125 -0.203125 C 5.34375 -0.304688 5.378906 -0.367188 5.421875 -0.390625 C 5.460938 -0.410156 5.53125 -0.421875 5.625 -0.421875 C 5.832031 -0.421875 5.992188 -0.457031 6.109375 -0.53125 C 6.222656 -0.601562 6.304688 -0.695312 6.359375 -0.8125 C 6.410156 -0.925781 6.457031 -1.070312 6.5 -1.25 L 7.484375 -5.46875 L 7.453125 -5.46875 L 4.015625 -0.046875 C 3.972656 0.015625 3.894531 0.046875 3.78125 0.046875 Z M 3.78125 0.046875 "/></g></g></g><g fill="#ffffff" fill-opacity="1"><g transform="translate(84.354977, 9.026014)"><g><path d="M -0.703125 0.03125 C -0.765625 0.03125 -0.804688 0.0078125 -0.828125 -0.03125 C -0.847656 -0.0820312 -0.851562 -0.140625 -0.84375 -0.203125 C -0.8125 -0.304688 -0.773438 -0.367188 -0.734375 -0.390625 C -0.691406 -0.410156 -0.644531 -0.421875 -0.59375 -0.421875 C -0.550781 -0.421875 -0.519531 -0.421875 -0.5 -0.421875 C -0.289062 -0.421875 -0.125 -0.472656 0 -0.578125 C 0.125 -0.691406 0.234375 -0.816406 0.328125 -0.953125 C 0.421875 -1.097656 0.484375 -1.195312 0.515625 -1.25 L 3.390625 -5.640625 C 3.453125 -5.742188 3.492188 -5.828125 3.515625 -5.890625 C 3.535156 -6.023438 3.503906 -6.117188 3.421875 -6.171875 C 3.335938 -6.234375 3.210938 -6.28125 3.046875 -6.3125 C 2.929688 -6.332031 2.859375 -6.351562 2.828125 -6.375 C 2.804688 -6.394531 2.804688 -6.457031 2.828125 -6.5625 C 2.847656 -6.644531 2.882812 -6.695312 2.9375 -6.71875 C 2.988281 -6.75 3.066406 -6.765625 3.171875 -6.765625 C 3.523438 -6.765625 3.796875 -6.738281 3.984375 -6.6875 C 4.179688 -6.632812 4.335938 -6.523438 4.453125 -6.359375 C 4.578125 -6.203125 4.671875 -5.960938 4.734375 -5.640625 L 5.515625 -1.25 C 5.554688 -0.976562 5.609375 -0.773438 5.671875 -0.640625 C 5.742188 -0.503906 5.878906 -0.429688 6.078125 -0.421875 L 6.140625 -0.421875 C 6.203125 -0.421875 6.242188 -0.40625 6.265625 -0.375 C 6.296875 -0.351562 6.300781 -0.296875 6.28125 -0.203125 C 6.269531 -0.140625 6.242188 -0.0820312 6.203125 -0.03125 C 6.160156 0.0078125 6.109375 0.03125 6.046875 0.03125 C 5.597656 0.0078125 5.207031 0 4.875 0 C 4.457031 0 4.015625 0.0078125 3.546875 0.03125 C 3.484375 0.03125 3.441406 0.0078125 3.421875 -0.03125 C 3.398438 -0.0820312 3.398438 -0.140625 3.421875 -0.203125 C 3.441406 -0.296875 3.46875 -0.351562 3.5 -0.375 C 3.539062 -0.40625 3.597656 -0.421875 3.671875 -0.421875 C 3.910156 -0.421875 4.082031 -0.441406 4.1875 -0.484375 C 4.300781 -0.535156 4.375 -0.625 4.40625 -0.75 C 4.425781 -0.832031 4.421875 -1 4.390625 -1.25 L 4.234375 -2.125 L 1.609375 -2.125 C 1.328125 -1.6875 1.164062 -1.429688 1.125 -1.359375 C 1.082031 -1.285156 1.0625 -1.25 1.0625 -1.25 C 0.914062 -0.976562 0.835938 -0.800781 0.828125 -0.71875 C 0.796875 -0.601562 0.828125 -0.523438 0.921875 -0.484375 C 1.015625 -0.441406 1.210938 -0.421875 1.515625 -0.421875 L 1.578125 -0.421875 C 1.648438 -0.421875 1.695312 -0.40625 1.71875 -0.375 C 1.738281 -0.351562 1.738281 -0.296875 1.71875 -0.203125 C 1.707031 -0.140625 1.679688 -0.0820312 1.640625 -0.03125 C 1.597656 0.0078125 1.546875 0.03125 1.484375 0.03125 C 1.035156 0.0078125 0.648438 0 0.328125 0 C 0.109375 0 -0.234375 0.0078125 -0.703125 0.03125 Z M 1.921875 -2.578125 L 4.15625 -2.578125 L 3.703125 -5.3125 L 3.671875 -5.3125 Z M 1.921875 -2.578125 "/></g></g></g><g fill="#ffffff" fill-opacity="1"><g transform="translate(90.869322, 9.026014)"><g><path d="M -0.140625 0.03125 C -0.191406 0.03125 -0.226562 0.0078125 -0.25 -0.03125 C -0.269531 -0.0820312 -0.269531 -0.140625 -0.25 -0.203125 C -0.21875 -0.304688 -0.179688 -0.367188 -0.140625 -0.390625 C -0.109375 -0.410156 -0.0390625 -0.421875 0.0625 -0.421875 C 0.257812 -0.421875 0.414062 -0.457031 0.53125 -0.53125 C 0.65625 -0.601562 0.738281 -0.695312 0.78125 -0.8125 C 0.832031 -0.925781 0.882812 -1.070312 0.9375 -1.25 L 1.921875 -5.46875 C 1.953125 -5.644531 1.96875 -5.785156 1.96875 -5.890625 C 1.96875 -6.003906 1.925781 -6.097656 1.84375 -6.171875 C 1.757812 -6.242188 1.617188 -6.28125 1.421875 -6.28125 L 1.359375 -6.28125 C 1.285156 -6.28125 1.234375 -6.289062 1.203125 -6.3125 C 1.179688 -6.34375 1.175781 -6.40625 1.1875 -6.5 C 1.21875 -6.5625 1.253906 -6.613281 1.296875 -6.65625 C 1.335938 -6.707031 1.382812 -6.734375 1.4375 -6.734375 C 1.894531 -6.710938 2.3125 -6.703125 2.6875 -6.703125 L 4.34375 -6.703125 C 5.03125 -6.703125 5.617188 -6.566406 6.109375 -6.296875 C 6.597656 -6.023438 6.945312 -5.632812 7.15625 -5.125 C 7.363281 -4.613281 7.382812 -4.007812 7.21875 -3.3125 C 7.050781 -2.59375 6.726562 -1.984375 6.25 -1.484375 C 5.769531 -0.984375 5.207031 -0.609375 4.5625 -0.359375 C 3.925781 -0.117188 3.273438 0 2.609375 0 L 1.140625 0 C 0.765625 0 0.335938 0.0078125 -0.140625 0.03125 Z M 2.859375 -0.390625 C 3.691406 -0.390625 4.359375 -0.644531 4.859375 -1.15625 C 5.359375 -1.675781 5.71875 -2.394531 5.9375 -3.3125 C 6.070312 -3.894531 6.085938 -4.414062 5.984375 -4.875 C 5.878906 -5.332031 5.65625 -5.6875 5.3125 -5.9375 C 4.976562 -6.195312 4.539062 -6.328125 4 -6.328125 L 3.15625 -6.3125 L 1.953125 -1.109375 C 1.890625 -0.835938 1.929688 -0.648438 2.078125 -0.546875 C 2.222656 -0.441406 2.484375 -0.390625 2.859375 -0.390625 Z M 2.859375 -0.390625 "/></g></g></g><g fill="#ffffff" fill-opacity="1"><g transform="translate(98.605845, 9.026014)"><g><path d="M 3.078125 0.21875 C 2.398438 0.21875 1.84375 0.0546875 1.40625 -0.265625 C 0.96875 -0.585938 0.664062 -1.015625 0.5 -1.546875 C 0.34375 -2.078125 0.335938 -2.648438 0.484375 -3.265625 C 0.648438 -4.003906 0.960938 -4.648438 1.421875 -5.203125 C 1.890625 -5.753906 2.421875 -6.175781 3.015625 -6.46875 C 3.609375 -6.769531 4.171875 -6.921875 4.703125 -6.921875 C 5.390625 -6.921875 5.953125 -6.757812 6.390625 -6.4375 C 6.835938 -6.113281 7.140625 -5.6875 7.296875 -5.15625 C 7.460938 -4.625 7.472656 -4.054688 7.328125 -3.453125 C 7.160156 -2.710938 6.84375 -2.0625 6.375 -1.5 C 5.90625 -0.945312 5.367188 -0.519531 4.765625 -0.21875 C 4.171875 0.0703125 3.609375 0.21875 3.078125 0.21875 Z M 3.171875 -0.25 C 3.648438 -0.25 4.082031 -0.390625 4.46875 -0.671875 C 4.851562 -0.960938 5.179688 -1.351562 5.453125 -1.84375 C 5.722656 -2.332031 5.925781 -2.867188 6.0625 -3.453125 C 6.195312 -3.992188 6.234375 -4.492188 6.171875 -4.953125 C 6.117188 -5.410156 5.957031 -5.773438 5.6875 -6.046875 C 5.425781 -6.316406 5.0625 -6.453125 4.59375 -6.453125 C 3.882812 -6.453125 3.28125 -6.15625 2.78125 -5.5625 C 2.289062 -4.96875 1.941406 -4.210938 1.734375 -3.296875 C 1.609375 -2.742188 1.570312 -2.234375 1.625 -1.765625 C 1.675781 -1.304688 1.828125 -0.9375 2.078125 -0.65625 C 2.335938 -0.382812 2.703125 -0.25 3.171875 -0.25 Z M 3.171875 -0.25 "/></g></g></g><g fill="#ffffff" fill-opacity="1"><g transform="translate(106.289224, 9.026014)"><g><path d="M -0.125 0.03125 C -0.1875 0.03125 -0.226562 0.0078125 -0.25 -0.03125 C -0.269531 -0.0820312 -0.269531 -0.140625 -0.25 -0.203125 C -0.21875 -0.304688 -0.179688 -0.367188 -0.140625 -0.390625 C -0.109375 -0.410156 -0.0390625 -0.421875 0.0625 -0.421875 C 0.257812 -0.421875 0.414062 -0.457031 0.53125 -0.53125 C 0.65625 -0.601562 0.738281 -0.695312 0.78125 -0.8125 C 0.832031 -0.925781 0.882812 -1.070312 0.9375 -1.25 L 1.921875 -5.453125 C 1.953125 -5.640625 1.96875 -5.785156 1.96875 -5.890625 C 1.96875 -5.992188 1.925781 -6.082031 1.84375 -6.15625 C 1.757812 -6.238281 1.617188 -6.28125 1.421875 -6.28125 L 1.359375 -6.28125 C 1.285156 -6.28125 1.234375 -6.289062 1.203125 -6.3125 C 1.179688 -6.34375 1.175781 -6.40625 1.1875 -6.5 C 1.21875 -6.5625 1.253906 -6.613281 1.296875 -6.65625 C 1.335938 -6.707031 1.390625 -6.734375 1.453125 -6.734375 C 1.898438 -6.710938 2.316406 -6.703125 2.703125 -6.703125 L 4.53125 -6.703125 C 5.070312 -6.691406 5.503906 -6.601562 5.828125 -6.4375 C 6.160156 -6.269531 6.378906 -6.054688 6.484375 -5.796875 C 6.597656 -5.546875 6.617188 -5.269531 6.546875 -4.96875 C 6.460938 -4.582031 6.226562 -4.222656 5.84375 -3.890625 C 5.457031 -3.566406 4.984375 -3.335938 4.421875 -3.203125 L 4.53125 -2.90625 C 4.71875 -2.425781 4.890625 -2.015625 5.046875 -1.671875 C 5.210938 -1.328125 5.40625 -1.007812 5.625 -0.71875 C 5.78125 -0.550781 5.96875 -0.453125 6.1875 -0.421875 C 6.195312 -0.421875 6.226562 -0.421875 6.28125 -0.421875 C 6.332031 -0.421875 6.367188 -0.398438 6.390625 -0.359375 C 6.421875 -0.328125 6.425781 -0.273438 6.40625 -0.203125 C 6.382812 -0.140625 6.351562 -0.0820312 6.3125 -0.03125 C 6.269531 0.0078125 6.21875 0.03125 6.15625 0.03125 L 5.890625 0.015625 C 5.578125 0.00390625 5.351562 0 5.21875 0 C 4.945312 -0.0507812 4.722656 -0.148438 4.546875 -0.296875 C 4.378906 -0.441406 4.226562 -0.648438 4.09375 -0.921875 C 3.957031 -1.191406 3.773438 -1.628906 3.546875 -2.234375 L 3.421875 -2.546875 C 3.347656 -2.710938 3.269531 -2.820312 3.1875 -2.875 C 3.101562 -2.9375 2.941406 -2.96875 2.703125 -2.96875 L 2.390625 -2.96875 L 1.984375 -1.25 C 1.953125 -1.070312 1.9375 -0.925781 1.9375 -0.8125 C 1.9375 -0.695312 1.976562 -0.601562 2.0625 -0.53125 C 2.144531 -0.457031 2.285156 -0.421875 2.484375 -0.421875 L 2.5625 -0.421875 C 2.625 -0.421875 2.664062 -0.40625 2.6875 -0.375 C 2.71875 -0.351562 2.726562 -0.296875 2.71875 -0.203125 C 2.695312 -0.140625 2.664062 -0.0820312 2.625 -0.03125 C 2.582031 0.0078125 2.523438 0.03125 2.453125 0.03125 C 2.015625 0.0078125 1.578125 0 1.140625 0 C 0.765625 0 0.34375 0.0078125 -0.125 0.03125 Z M 3.421875 -3.390625 C 4.484375 -3.390625 5.125 -3.882812 5.34375 -4.875 C 5.4375 -5.28125 5.375 -5.617188 5.15625 -5.890625 C 4.945312 -6.171875 4.53125 -6.3125 3.90625 -6.3125 C 3.695312 -6.3125 3.535156 -6.285156 3.421875 -6.234375 C 3.304688 -6.179688 3.210938 -6.09375 3.140625 -5.96875 C 3.078125 -5.851562 3.015625 -5.671875 2.953125 -5.421875 L 2.484375 -3.390625 Z M 3.421875 -3.390625 "/></g></g></g><g fill="#ffffff" fill-opacity="1"><g transform="translate(113.420011, 9.026014)"><g><path d="M -0.140625 0.03125 C -0.191406 0.03125 -0.226562 0.0078125 -0.25 -0.03125 C -0.269531 -0.0820312 -0.269531 -0.140625 -0.25 -0.203125 C -0.21875 -0.304688 -0.179688 -0.367188 -0.140625 -0.390625 C -0.109375 -0.410156 -0.0390625 -0.421875 0.0625 -0.421875 C 0.257812 -0.421875 0.414062 -0.457031 0.53125 -0.53125 C 0.65625 -0.601562 0.738281 -0.695312 0.78125 -0.8125 C 0.832031 -0.925781 0.882812 -1.070312 0.9375 -1.25 L 1.921875 -5.46875 C 1.953125 -5.644531 1.96875 -5.785156 1.96875 -5.890625 C 1.96875 -6.003906 1.925781 -6.097656 1.84375 -6.171875 C 1.757812 -6.242188 1.617188 -6.28125 1.421875 -6.28125 L 1.359375 -6.28125 C 1.285156 -6.28125 1.234375 -6.289062 1.203125 -6.3125 C 1.179688 -6.34375 1.175781 -6.40625 1.1875 -6.5 C 1.21875 -6.5625 1.253906 -6.613281 1.296875 -6.65625 C 1.335938 -6.707031 1.382812 -6.734375 1.4375 -6.734375 C 1.894531 -6.710938 2.3125 -6.703125 2.6875 -6.703125 L 6.03125 -6.703125 C 6.21875 -6.703125 6.285156 -6.617188 6.234375 -6.453125 L 5.9375 -4.96875 C 5.914062 -4.894531 5.867188 -4.835938 5.796875 -4.796875 C 5.722656 -4.765625 5.65625 -4.75 5.59375 -4.75 C 5.507812 -4.75 5.4375 -4.765625 5.375 -4.796875 C 5.320312 -4.828125 5.300781 -4.875 5.3125 -4.9375 C 5.332031 -5.289062 5.332031 -5.554688 5.3125 -5.734375 C 5.289062 -5.910156 5.222656 -6.039062 5.109375 -6.125 C 4.992188 -6.21875 4.816406 -6.269531 4.578125 -6.28125 L 3.15625 -6.28125 L 2.53125 -3.578125 L 4.453125 -3.578125 C 4.503906 -3.566406 4.535156 -3.539062 4.546875 -3.5 C 4.566406 -3.457031 4.570312 -3.40625 4.5625 -3.34375 C 4.550781 -3.28125 4.523438 -3.226562 4.484375 -3.1875 C 4.441406 -3.144531 4.394531 -3.125 4.34375 -3.125 L 2.421875 -3.125 L 1.953125 -1.109375 C 1.941406 -0.960938 1.9375 -0.84375 1.9375 -0.75 C 1.9375 -0.664062 1.976562 -0.585938 2.0625 -0.515625 C 2.15625 -0.453125 2.316406 -0.421875 2.546875 -0.421875 L 3.515625 -0.421875 C 3.773438 -0.429688 3.972656 -0.472656 4.109375 -0.546875 C 4.253906 -0.617188 4.382812 -0.734375 4.5 -0.890625 C 4.613281 -1.046875 4.765625 -1.300781 4.953125 -1.65625 C 5.023438 -1.78125 5.15625 -1.832031 5.34375 -1.8125 C 5.40625 -1.789062 5.457031 -1.757812 5.5 -1.71875 C 5.550781 -1.675781 5.566406 -1.625 5.546875 -1.5625 L 5.015625 -0.21875 C 4.972656 -0.125 4.925781 -0.0625 4.875 -0.03125 C 4.832031 -0.0078125 4.757812 0 4.65625 0 L 1.15625 0 C 0.769531 0 0.335938 0.0078125 -0.140625 0.03125 Z M -0.140625 0.03125 "/></g></g></g><g fill="#ffffff" fill-opacity="1"><g transform="translate(119.732501, 9.026014)"><g><path d="M 2.015625 0.21875 C 1.265625 0.21875 0.722656 0.0859375 0.390625 -0.171875 C 0.0546875 -0.429688 -0.0507812 -0.8125 0.0625 -1.3125 C 0.125 -1.570312 0.257812 -1.785156 0.46875 -1.953125 C 0.6875 -2.117188 0.929688 -2.203125 1.203125 -2.203125 C 1.367188 -2.191406 1.484375 -2.148438 1.546875 -2.078125 C 1.617188 -2.003906 1.644531 -1.9375 1.625 -1.875 C 1.625 -1.863281 1.582031 -1.835938 1.5 -1.796875 C 1.425781 -1.753906 1.347656 -1.691406 1.265625 -1.609375 C 1.191406 -1.523438 1.132812 -1.40625 1.09375 -1.25 C 1.03125 -0.914062 1.078125 -0.660156 1.234375 -0.484375 C 1.390625 -0.304688 1.679688 -0.21875 2.109375 -0.21875 C 2.398438 -0.21875 2.664062 -0.269531 2.90625 -0.375 C 3.15625 -0.488281 3.359375 -0.640625 3.515625 -0.828125 C 3.671875 -1.015625 3.773438 -1.210938 3.828125 -1.421875 C 3.890625 -1.679688 3.867188 -1.898438 3.765625 -2.078125 C 3.660156 -2.265625 3.515625 -2.421875 3.328125 -2.546875 C 3.140625 -2.671875 2.882812 -2.8125 2.5625 -2.96875 C 2.175781 -3.164062 1.867188 -3.34375 1.640625 -3.5 C 1.421875 -3.65625 1.25 -3.859375 1.125 -4.109375 C 1 -4.367188 0.984375 -4.691406 1.078125 -5.078125 C 1.222656 -5.691406 1.535156 -6.148438 2.015625 -6.453125 C 2.503906 -6.765625 3.09375 -6.921875 3.78125 -6.921875 C 4.320312 -6.921875 4.765625 -6.804688 5.109375 -6.578125 C 5.460938 -6.347656 5.585938 -6.015625 5.484375 -5.578125 C 5.429688 -5.328125 5.296875 -5.117188 5.078125 -4.953125 C 4.867188 -4.785156 4.625 -4.703125 4.34375 -4.703125 C 4.1875 -4.703125 4.070312 -4.738281 4 -4.8125 C 3.9375 -4.894531 3.910156 -4.96875 3.921875 -5.03125 C 3.929688 -5.03125 3.988281 -5.050781 4.09375 -5.09375 C 4.195312 -5.132812 4.296875 -5.195312 4.390625 -5.28125 C 4.484375 -5.375 4.546875 -5.492188 4.578125 -5.640625 C 4.640625 -5.898438 4.585938 -6.101562 4.421875 -6.25 C 4.253906 -6.40625 4.015625 -6.484375 3.703125 -6.484375 C 3.265625 -6.484375 2.910156 -6.378906 2.640625 -6.171875 C 2.378906 -5.972656 2.210938 -5.722656 2.140625 -5.421875 C 2.085938 -5.179688 2.109375 -4.976562 2.203125 -4.8125 C 2.296875 -4.644531 2.472656 -4.476562 2.734375 -4.3125 C 2.941406 -4.1875 3.175781 -4.0625 3.4375 -3.9375 C 3.84375 -3.726562 4.15625 -3.535156 4.375 -3.359375 C 4.601562 -3.191406 4.773438 -2.96875 4.890625 -2.6875 C 5.015625 -2.414062 5.023438 -2.078125 4.921875 -1.671875 C 4.847656 -1.316406 4.664062 -0.992188 4.375 -0.703125 C 4.082031 -0.421875 3.726562 -0.195312 3.3125 -0.03125 C 2.894531 0.132812 2.460938 0.21875 2.015625 0.21875 Z M 2.015625 0.21875 "/></g></g></g><g fill="#ffffff" fill-opacity="1"><g transform="translate(125.524263, 9.026014)"><g/></g></g><g fill="#ca0035" fill-opacity="1"><g transform="translate(127.901743, 9.026014)"><g><path d="M 2.015625 0.21875 C 1.265625 0.21875 0.722656 0.0859375 0.390625 -0.171875 C 0.0546875 -0.429688 -0.0507812 -0.8125 0.0625 -1.3125 C 0.125 -1.570312 0.257812 -1.785156 0.46875 -1.953125 C 0.6875 -2.117188 0.929688 -2.203125 1.203125 -2.203125 C 1.367188 -2.191406 1.484375 -2.148438 1.546875 -2.078125 C 1.617188 -2.003906 1.644531 -1.9375 1.625 -1.875 C 1.625 -1.863281 1.582031 -1.835938 1.5 -1.796875 C 1.425781 -1.753906 1.347656 -1.691406 1.265625 -1.609375 C 1.191406 -1.523438 1.132812 -1.40625 1.09375 -1.25 C 1.03125 -0.914062 1.078125 -0.660156 1.234375 -0.484375 C 1.390625 -0.304688 1.679688 -0.21875 2.109375 -0.21875 C 2.398438 -0.21875 2.664062 -0.269531 2.90625 -0.375 C 3.15625 -0.488281 3.359375 -0.640625 3.515625 -0.828125 C 3.671875 -1.015625 3.773438 -1.210938 3.828125 -1.421875 C 3.890625 -1.679688 3.867188 -1.898438 3.765625 -2.078125 C 3.660156 -2.265625 3.515625 -2.421875 3.328125 -2.546875 C 3.140625 -2.671875 2.882812 -2.8125 2.5625 -2.96875 C 2.175781 -3.164062 1.867188 -3.34375 1.640625 -3.5 C 1.421875 -3.65625 1.25 -3.859375 1.125 -4.109375 C 1 -4.367188 0.984375 -4.691406 1.078125 -5.078125 C 1.222656 -5.691406 1.535156 -6.148438 2.015625 -6.453125 C 2.503906 -6.765625 3.09375 -6.921875 3.78125 -6.921875 C 4.320312 -6.921875 4.765625 -6.804688 5.109375 -6.578125 C 5.460938 -6.347656 5.585938 -6.015625 5.484375 -5.578125 C 5.429688 -5.328125 5.296875 -5.117188 5.078125 -4.953125 C 4.867188 -4.785156 4.625 -4.703125 4.34375 -4.703125 C 4.1875 -4.703125 4.070312 -4.738281 4 -4.8125 C 3.9375 -4.894531 3.910156 -4.96875 3.921875 -5.03125 C 3.929688 -5.03125 3.988281 -5.050781 4.09375 -5.09375 C 4.195312 -5.132812 4.296875 -5.195312 4.390625 -5.28125 C 4.484375 -5.375 4.546875 -5.492188 4.578125 -5.640625 C 4.640625 -5.898438 4.585938 -6.101562 4.421875 -6.25 C 4.253906 -6.40625 4.015625 -6.484375 3.703125 -6.484375 C 3.265625 -6.484375 2.910156 -6.378906 2.640625 -6.171875 C 2.378906 -5.972656 2.210938 -5.722656 2.140625 -5.421875 C 2.085938 -5.179688 2.109375 -4.976562 2.203125 -4.8125 C 2.296875 -4.644531 2.472656 -4.476562 2.734375 -4.3125 C 2.941406 -4.1875 3.175781 -4.0625 3.4375 -3.9375 C 3.84375 -3.726562 4.15625 -3.535156 4.375 -3.359375 C 4.601562 -3.191406 4.773438 -2.96875 4.890625 -2.6875 C 5.015625 -2.414062 5.023438 -2.078125 4.921875 -1.671875 C 4.847656 -1.316406 4.664062 -0.992188 4.375 -0.703125 C 4.082031 -0.421875 3.726562 -0.195312 3.3125 -0.03125 C 2.894531 0.132812 2.460938 0.21875 2.015625 0.21875 Z M 2.015625 0.21875 "/></g></g></g><g fill="#ca0035" fill-opacity="1"><g transform="translate(133.544708, 9.026014)"><g><path d="M -0.140625 0.03125 C -0.191406 0.03125 -0.226562 0.0078125 -0.25 -0.03125 C -0.269531 -0.0820312 -0.269531 -0.140625 -0.25 -0.203125 C -0.21875 -0.304688 -0.179688 -0.367188 -0.140625 -0.390625 C -0.109375 -0.410156 -0.0390625 -0.421875 0.0625 -0.421875 C 0.257812 -0.421875 0.414062 -0.457031 0.53125 -0.53125 C 0.65625 -0.601562 0.738281 -0.695312 0.78125 -0.8125 C 0.832031 -0.925781 0.882812 -1.070312 0.9375 -1.25 L 1.921875 -5.46875 C 1.953125 -5.644531 1.96875 -5.785156 1.96875 -5.890625 C 1.96875 -6.003906 1.925781 -6.097656 1.84375 -6.171875 C 1.757812 -6.242188 1.617188 -6.28125 1.421875 -6.28125 L 1.359375 -6.28125 C 1.285156 -6.28125 1.234375 -6.289062 1.203125 -6.3125 C 1.179688 -6.34375 1.175781 -6.40625 1.1875 -6.5 C 1.21875 -6.5625 1.253906 -6.613281 1.296875 -6.65625 C 1.335938 -6.707031 1.382812 -6.734375 1.4375 -6.734375 C 1.894531 -6.710938 2.3125 -6.703125 2.6875 -6.703125 L 6.03125 -6.703125 C 6.21875 -6.703125 6.285156 -6.617188 6.234375 -6.453125 L 5.9375 -4.96875 C 5.914062 -4.894531 5.867188 -4.835938 5.796875 -4.796875 C 5.722656 -4.765625 5.65625 -4.75 5.59375 -4.75 C 5.507812 -4.75 5.4375 -4.765625 5.375 -4.796875 C 5.320312 -4.828125 5.300781 -4.875 5.3125 -4.9375 C 5.332031 -5.289062 5.332031 -5.554688 5.3125 -5.734375 C 5.289062 -5.910156 5.222656 -6.039062 5.109375 -6.125 C 4.992188 -6.21875 4.816406 -6.269531 4.578125 -6.28125 L 3.15625 -6.28125 L 2.53125 -3.578125 L 4.453125 -3.578125 C 4.503906 -3.566406 4.535156 -3.539062 4.546875 -3.5 C 4.566406 -3.457031 4.570312 -3.40625 4.5625 -3.34375 C 4.550781 -3.28125 4.523438 -3.226562 4.484375 -3.1875 C 4.441406 -3.144531 4.394531 -3.125 4.34375 -3.125 L 2.421875 -3.125 L 1.953125 -1.109375 C 1.941406 -0.960938 1.9375 -0.84375 1.9375 -0.75 C 1.9375 -0.664062 1.976562 -0.585938 2.0625 -0.515625 C 2.15625 -0.453125 2.316406 -0.421875 2.546875 -0.421875 L 3.515625 -0.421875 C 3.773438 -0.429688 3.972656 -0.472656 4.109375 -0.546875 C 4.253906 -0.617188 4.382812 -0.734375 4.5 -0.890625 C 4.613281 -1.046875 4.765625 -1.300781 4.953125 -1.65625 C 5.023438 -1.78125 5.15625 -1.832031 5.34375 -1.8125 C 5.40625 -1.789062 5.457031 -1.757812 5.5 -1.71875 C 5.550781 -1.675781 5.566406 -1.625 5.546875 -1.5625 L 5.015625 -0.21875 C 4.972656 -0.125 4.925781 -0.0625 4.875 -0.03125 C 4.832031 -0.0078125 4.757812 0 4.65625 0 L 1.15625 0 C 0.769531 0 0.335938 0.0078125 -0.140625 0.03125 Z M -0.140625 0.03125 "/></g></g></g><g fill="#ca0035" fill-opacity="1"><g transform="translate(139.857198, 9.026014)"><g><path d="M 3.78125 0.046875 C 3.675781 0.046875 3.609375 0.015625 3.578125 -0.046875 L 2.4375 -5.46875 L 2.40625 -5.46875 L 1.453125 -1.25 C 1.410156 -1.050781 1.390625 -0.898438 1.390625 -0.796875 C 1.390625 -0.691406 1.425781 -0.601562 1.5 -0.53125 C 1.582031 -0.457031 1.722656 -0.421875 1.921875 -0.421875 L 1.984375 -0.421875 C 2.054688 -0.421875 2.109375 -0.40625 2.140625 -0.375 C 2.171875 -0.351562 2.175781 -0.296875 2.15625 -0.203125 C 2.132812 -0.140625 2.101562 -0.0820312 2.0625 -0.03125 C 2.019531 0.0078125 1.96875 0.03125 1.90625 0.03125 L 1.65625 0.015625 C 1.320312 0.00390625 1.085938 0 0.953125 0 C 0.710938 0 0.359375 0.0078125 -0.109375 0.03125 C -0.171875 0.03125 -0.210938 0.0078125 -0.234375 -0.03125 C -0.253906 -0.0820312 -0.257812 -0.140625 -0.25 -0.203125 C -0.21875 -0.304688 -0.179688 -0.367188 -0.140625 -0.390625 C -0.0976562 -0.410156 -0.03125 -0.421875 0.0625 -0.421875 C 0.269531 -0.421875 0.429688 -0.457031 0.546875 -0.53125 C 0.660156 -0.601562 0.738281 -0.691406 0.78125 -0.796875 C 0.832031 -0.898438 0.878906 -1.050781 0.921875 -1.25 L 1.921875 -5.46875 C 1.972656 -5.6875 1.984375 -5.847656 1.953125 -5.953125 C 1.929688 -6.066406 1.878906 -6.144531 1.796875 -6.1875 C 1.710938 -6.238281 1.582031 -6.28125 1.40625 -6.3125 C 1.375 -6.320312 1.332031 -6.332031 1.28125 -6.34375 C 1.226562 -6.351562 1.195312 -6.375 1.1875 -6.40625 C 1.175781 -6.4375 1.175781 -6.488281 1.1875 -6.5625 C 1.21875 -6.644531 1.257812 -6.695312 1.3125 -6.71875 C 1.363281 -6.75 1.4375 -6.765625 1.53125 -6.765625 C 1.945312 -6.765625 2.285156 -6.738281 2.546875 -6.6875 C 2.804688 -6.632812 3.015625 -6.523438 3.171875 -6.359375 C 3.335938 -6.203125 3.453125 -5.960938 3.515625 -5.640625 L 4.40625 -1.546875 L 4.4375 -1.546875 L 7.71875 -6.703125 L 8.328125 -6.703125 C 8.710938 -6.703125 9.132812 -6.710938 9.59375 -6.734375 C 9.65625 -6.734375 9.695312 -6.707031 9.71875 -6.65625 C 9.738281 -6.613281 9.742188 -6.5625 9.734375 -6.5 C 9.703125 -6.394531 9.660156 -6.332031 9.609375 -6.3125 C 9.566406 -6.289062 9.5 -6.28125 9.40625 -6.28125 C 9.195312 -6.28125 9.035156 -6.242188 8.921875 -6.171875 C 8.816406 -6.097656 8.734375 -6.003906 8.671875 -5.890625 C 8.617188 -5.785156 8.570312 -5.644531 8.53125 -5.46875 L 7.5625 -1.25 C 7.519531 -1.070312 7.5 -0.925781 7.5 -0.8125 C 7.5 -0.695312 7.539062 -0.601562 7.625 -0.53125 C 7.707031 -0.457031 7.851562 -0.421875 8.0625 -0.421875 L 8.125 -0.421875 C 8.1875 -0.421875 8.226562 -0.40625 8.25 -0.375 C 8.28125 -0.351562 8.285156 -0.296875 8.265625 -0.203125 C 8.253906 -0.140625 8.226562 -0.0820312 8.1875 -0.03125 C 8.144531 0.0078125 8.09375 0.03125 8.03125 0.03125 C 7.582031 0.0078125 7.160156 0 6.765625 0 C 6.347656 0 5.90625 0.0078125 5.4375 0.03125 C 5.375 0.03125 5.332031 0.0078125 5.3125 -0.03125 C 5.289062 -0.0820312 5.289062 -0.140625 5.3125 -0.203125 C 5.34375 -0.304688 5.378906 -0.367188 5.421875 -0.390625 C 5.460938 -0.410156 5.53125 -0.421875 5.625 -0.421875 C 5.832031 -0.421875 5.992188 -0.457031 6.109375 -0.53125 C 6.222656 -0.601562 6.304688 -0.695312 6.359375 -0.8125 C 6.410156 -0.925781 6.457031 -1.070312 6.5 -1.25 L 7.484375 -5.46875 L 7.453125 -5.46875 L 4.015625 -0.046875 C 3.972656 0.015625 3.894531 0.046875 3.78125 0.046875 Z M 3.78125 0.046875 "/></g></g></g><g fill="#ca0035" fill-opacity="1"><g transform="translate(149.30469, 9.026014)"><g/></g></g><g fill="#ca0035" fill-opacity="1"><g transform="translate(151.674538, 9.026014)"><g><path d="M -0.140625 0.03125 C -0.191406 0.03125 -0.226562 0.0078125 -0.25 -0.03125 C -0.269531 -0.0820312 -0.269531 -0.140625 -0.25 -0.203125 C -0.21875 -0.304688 -0.179688 -0.367188 -0.140625 -0.390625 C -0.109375 -0.410156 -0.0390625 -0.421875 0.0625 -0.421875 C 0.257812 -0.421875 0.414062 -0.457031 0.53125 -0.53125 C 0.65625 -0.601562 0.738281 -0.695312 0.78125 -0.8125 C 0.832031 -0.925781 0.882812 -1.070312 0.9375 -1.25 L 1.921875 -5.46875 C 1.953125 -5.644531 1.96875 -5.785156 1.96875 -5.890625 C 1.96875 -6.003906 1.925781 -6.097656 1.84375 -6.171875 C 1.757812 -6.242188 1.617188 -6.28125 1.421875 -6.28125 L 1.359375 -6.28125 C 1.285156 -6.28125 1.234375 -6.289062 1.203125 -6.3125 C 1.179688 -6.34375 1.175781 -6.40625 1.1875 -6.5 C 1.21875 -6.5625 1.253906 -6.613281 1.296875 -6.65625 C 1.335938 -6.707031 1.382812 -6.734375 1.4375 -6.734375 C 1.894531 -6.710938 2.3125 -6.703125 2.6875 -6.703125 C 3.113281 -6.703125 3.5625 -6.710938 4.03125 -6.734375 C 4.09375 -6.734375 4.132812 -6.707031 4.15625 -6.65625 C 4.175781 -6.613281 4.175781 -6.5625 4.15625 -6.5 C 4.125 -6.394531 4.085938 -6.332031 4.046875 -6.3125 C 4.003906 -6.289062 3.9375 -6.28125 3.84375 -6.28125 C 3.644531 -6.28125 3.484375 -6.242188 3.359375 -6.171875 C 3.242188 -6.097656 3.160156 -6.003906 3.109375 -5.890625 C 3.066406 -5.785156 3.019531 -5.644531 2.96875 -5.46875 L 1.953125 -1.078125 C 1.929688 -0.929688 1.921875 -0.816406 1.921875 -0.734375 C 1.929688 -0.648438 1.976562 -0.578125 2.0625 -0.515625 C 2.15625 -0.453125 2.316406 -0.421875 2.546875 -0.421875 L 3.5 -0.421875 C 3.757812 -0.429688 3.957031 -0.472656 4.09375 -0.546875 C 4.238281 -0.617188 4.363281 -0.734375 4.46875 -0.890625 C 4.582031 -1.046875 4.734375 -1.300781 4.921875 -1.65625 C 5.003906 -1.78125 5.132812 -1.832031 5.3125 -1.8125 C 5.375 -1.789062 5.425781 -1.757812 5.46875 -1.71875 C 5.519531 -1.675781 5.535156 -1.625 5.515625 -1.5625 L 5 -0.21875 C 4.957031 -0.125 4.910156 -0.0625 4.859375 -0.03125 C 4.804688 -0.0078125 4.734375 0 4.640625 0 L 1.15625 0 C 0.769531 0 0.335938 0.0078125 -0.140625 0.03125 Z M -0.140625 0.03125 "/></g></g></g><g fill="#ca0035" fill-opacity="1"><g transform="translate(157.742614, 9.026014)"><g><path d="M -0.140625 0.03125 C -0.203125 0.03125 -0.242188 0.0078125 -0.265625 -0.03125 C -0.285156 -0.0820312 -0.285156 -0.140625 -0.265625 -0.203125 C -0.234375 -0.304688 -0.195312 -0.367188 -0.15625 -0.390625 C -0.113281 -0.410156 -0.046875 -0.421875 0.046875 -0.421875 C 0.253906 -0.421875 0.414062 -0.457031 0.53125 -0.53125 C 0.644531 -0.601562 0.726562 -0.691406 0.78125 -0.796875 C 0.832031 -0.910156 0.882812 -1.0625 0.9375 -1.25 L 1.921875 -5.46875 C 1.953125 -5.644531 1.960938 -5.785156 1.953125 -5.890625 C 1.953125 -6.003906 1.910156 -6.097656 1.828125 -6.171875 C 1.753906 -6.242188 1.613281 -6.28125 1.40625 -6.28125 L 1.34375 -6.28125 C 1.28125 -6.28125 1.234375 -6.289062 1.203125 -6.3125 C 1.171875 -6.34375 1.164062 -6.40625 1.1875 -6.5 C 1.207031 -6.5625 1.238281 -6.613281 1.28125 -6.65625 C 1.320312 -6.707031 1.375 -6.734375 1.4375 -6.734375 C 1.894531 -6.710938 2.3125 -6.703125 2.6875 -6.703125 C 3.113281 -6.703125 3.5625 -6.710938 4.03125 -6.734375 C 4.09375 -6.734375 4.132812 -6.707031 4.15625 -6.65625 C 4.175781 -6.613281 4.175781 -6.5625 4.15625 -6.5 C 4.125 -6.394531 4.085938 -6.332031 4.046875 -6.3125 C 4.003906 -6.289062 3.9375 -6.28125 3.84375 -6.28125 C 3.632812 -6.28125 3.472656 -6.242188 3.359375 -6.171875 C 3.242188 -6.097656 3.160156 -6.003906 3.109375 -5.890625 C 3.054688 -5.785156 3.003906 -5.644531 2.953125 -5.46875 L 1.984375 -1.25 C 1.941406 -1.070312 1.921875 -0.925781 1.921875 -0.8125 C 1.921875 -0.695312 1.960938 -0.601562 2.046875 -0.53125 C 2.128906 -0.457031 2.273438 -0.421875 2.484375 -0.421875 L 2.546875 -0.421875 C 2.617188 -0.421875 2.664062 -0.40625 2.6875 -0.375 C 2.71875 -0.351562 2.726562 -0.296875 2.71875 -0.203125 C 2.695312 -0.140625 2.664062 -0.0820312 2.625 -0.03125 C 2.582031 0.0078125 2.523438 0.03125 2.453125 0.03125 C 2.015625 0.0078125 1.582031 0 1.15625 0 C 0.757812 0 0.328125 0.0078125 -0.140625 0.03125 Z M -0.140625 0.03125 "/></g></g></g><g fill="#ca0035" fill-opacity="1"><g transform="translate(161.610881, 9.026014)"><g><path d="M 3.78125 0.046875 C 3.675781 0.046875 3.609375 0.015625 3.578125 -0.046875 L 2.4375 -5.46875 L 2.40625 -5.46875 L 1.453125 -1.25 C 1.410156 -1.050781 1.390625 -0.898438 1.390625 -0.796875 C 1.390625 -0.691406 1.425781 -0.601562 1.5 -0.53125 C 1.582031 -0.457031 1.722656 -0.421875 1.921875 -0.421875 L 1.984375 -0.421875 C 2.054688 -0.421875 2.109375 -0.40625 2.140625 -0.375 C 2.171875 -0.351562 2.175781 -0.296875 2.15625 -0.203125 C 2.132812 -0.140625 2.101562 -0.0820312 2.0625 -0.03125 C 2.019531 0.0078125 1.96875 0.03125 1.90625 0.03125 L 1.65625 0.015625 C 1.320312 0.00390625 1.085938 0 0.953125 0 C 0.710938 0 0.359375 0.0078125 -0.109375 0.03125 C -0.171875 0.03125 -0.210938 0.0078125 -0.234375 -0.03125 C -0.253906 -0.0820312 -0.257812 -0.140625 -0.25 -0.203125 C -0.21875 -0.304688 -0.179688 -0.367188 -0.140625 -0.390625 C -0.0976562 -0.410156 -0.03125 -0.421875 0.0625 -0.421875 C 0.269531 -0.421875 0.429688 -0.457031 0.546875 -0.53125 C 0.660156 -0.601562 0.738281 -0.691406 0.78125 -0.796875 C 0.832031 -0.898438 0.878906 -1.050781 0.921875 -1.25 L 1.921875 -5.46875 C 1.972656 -5.6875 1.984375 -5.847656 1.953125 -5.953125 C 1.929688 -6.066406 1.878906 -6.144531 1.796875 -6.1875 C 1.710938 -6.238281 1.582031 -6.28125 1.40625 -6.3125 C 1.375 -6.320312 1.332031 -6.332031 1.28125 -6.34375 C 1.226562 -6.351562 1.195312 -6.375 1.1875 -6.40625 C 1.175781 -6.4375 1.175781 -6.488281 1.1875 -6.5625 C 1.21875 -6.644531 1.257812 -6.695312 1.3125 -6.71875 C 1.363281 -6.75 1.4375 -6.765625 1.53125 -6.765625 C 1.945312 -6.765625 2.285156 -6.738281 2.546875 -6.6875 C 2.804688 -6.632812 3.015625 -6.523438 3.171875 -6.359375 C 3.335938 -6.203125 3.453125 -5.960938 3.515625 -5.640625 L 4.40625 -1.546875 L 4.4375 -1.546875 L 7.71875 -6.703125 L 8.328125 -6.703125 C 8.710938 -6.703125 9.132812 -6.710938 9.59375 -6.734375 C 9.65625 -6.734375 9.695312 -6.707031 9.71875 -6.65625 C 9.738281 -6.613281 9.742188 -6.5625 9.734375 -6.5 C 9.703125 -6.394531 9.660156 -6.332031 9.609375 -6.3125 C 9.566406 -6.289062 9.5 -6.28125 9.40625 -6.28125 C 9.195312 -6.28125 9.035156 -6.242188 8.921875 -6.171875 C 8.816406 -6.097656 8.734375 -6.003906 8.671875 -5.890625 C 8.617188 -5.785156 8.570312 -5.644531 8.53125 -5.46875 L 7.5625 -1.25 C 7.519531 -1.070312 7.5 -0.925781 7.5 -0.8125 C 7.5 -0.695312 7.539062 -0.601562 7.625 -0.53125 C 7.707031 -0.457031 7.851562 -0.421875 8.0625 -0.421875 L 8.125 -0.421875 C 8.1875 -0.421875 8.226562 -0.40625 8.25 -0.375 C 8.28125 -0.351562 8.285156 -0.296875 8.265625 -0.203125 C 8.253906 -0.140625 8.226562 -0.0820312 8.1875 -0.03125 C 8.144531 0.0078125 8.09375 0.03125 8.03125 0.03125 C 7.582031 0.0078125 7.160156 0 6.765625 0 C 6.347656 0 5.90625 0.0078125 5.4375 0.03125 C 5.375 0.03125 5.332031 0.0078125 5.3125 -0.03125 C 5.289062 -0.0820312 5.289062 -0.140625 5.3125 -0.203125 C 5.34375 -0.304688 5.378906 -0.367188 5.421875 -0.390625 C 5.460938 -0.410156 5.53125 -0.421875 5.625 -0.421875 C 5.832031 -0.421875 5.992188 -0.457031 6.109375 -0.53125 C 6.222656 -0.601562 6.304688 -0.695312 6.359375 -0.8125 C 6.410156 -0.925781 6.457031 -1.070312 6.5 -1.25 L 7.484375 -5.46875 L 7.453125 -5.46875 L 4.015625 -0.046875 C 3.972656 0.015625 3.894531 0.046875 3.78125 0.046875 Z M 3.78125 0.046875 "/></g></g></g><g fill="#ca0035" fill-opacity="1"><g transform="translate(171.058373, 9.026014)"><g><path d="M -0.140625 0.03125 C -0.203125 0.03125 -0.242188 0.0078125 -0.265625 -0.03125 C -0.285156 -0.0820312 -0.285156 -0.140625 -0.265625 -0.203125 C -0.234375 -0.304688 -0.195312 -0.367188 -0.15625 -0.390625 C -0.113281 -0.410156 -0.046875 -0.421875 0.046875 -0.421875 C 0.253906 -0.421875 0.414062 -0.457031 0.53125 -0.53125 C 0.644531 -0.601562 0.726562 -0.691406 0.78125 -0.796875 C 0.832031 -0.910156 0.882812 -1.0625 0.9375 -1.25 L 1.921875 -5.46875 C 1.953125 -5.644531 1.960938 -5.785156 1.953125 -5.890625 C 1.953125 -6.003906 1.910156 -6.097656 1.828125 -6.171875 C 1.753906 -6.242188 1.613281 -6.28125 1.40625 -6.28125 L 1.34375 -6.28125 C 1.28125 -6.28125 1.234375 -6.289062 1.203125 -6.3125 C 1.171875 -6.34375 1.164062 -6.40625 1.1875 -6.5 C 1.207031 -6.5625 1.238281 -6.613281 1.28125 -6.65625 C 1.320312 -6.707031 1.375 -6.734375 1.4375 -6.734375 C 1.894531 -6.710938 2.3125 -6.703125 2.6875 -6.703125 C 3.113281 -6.703125 3.5625 -6.710938 4.03125 -6.734375 C 4.09375 -6.734375 4.132812 -6.707031 4.15625 -6.65625 C 4.175781 -6.613281 4.175781 -6.5625 4.15625 -6.5 C 4.125 -6.394531 4.085938 -6.332031 4.046875 -6.3125 C 4.003906 -6.289062 3.9375 -6.28125 3.84375 -6.28125 C 3.632812 -6.28125 3.472656 -6.242188 3.359375 -6.171875 C 3.242188 -6.097656 3.160156 -6.003906 3.109375 -5.890625 C 3.054688 -5.785156 3.003906 -5.644531 2.953125 -5.46875 L 1.984375 -1.25 C 1.941406 -1.070312 1.921875 -0.925781 1.921875 -0.8125 C 1.921875 -0.695312 1.960938 -0.601562 2.046875 -0.53125 C 2.128906 -0.457031 2.273438 -0.421875 2.484375 -0.421875 L 2.546875 -0.421875 C 2.617188 -0.421875 2.664062 -0.40625 2.6875 -0.375 C 2.71875 -0.351562 2.726562 -0.296875 2.71875 -0.203125 C 2.695312 -0.140625 2.664062 -0.0820312 2.625 -0.03125 C 2.582031 0.0078125 2.523438 0.03125 2.453125 0.03125 C 2.015625 0.0078125 1.582031 0 1.15625 0 C 0.757812 0 0.328125 0.0078125 -0.140625 0.03125 Z M -0.140625 0.03125 "/></g></g></g><g fill="#ca0035" fill-opacity="1"><g transform="translate(174.799099, 9.026014)"><g><path d="M 1.125 0.03125 C 1.0625 0.03125 1.019531 0.0078125 1 -0.03125 C 0.976562 -0.0820312 0.972656 -0.140625 0.984375 -0.203125 C 1.015625 -0.304688 1.050781 -0.367188 1.09375 -0.390625 C 1.132812 -0.410156 1.207031 -0.421875 1.3125 -0.421875 C 1.507812 -0.421875 1.664062 -0.457031 1.78125 -0.53125 C 1.90625 -0.601562 1.988281 -0.695312 2.03125 -0.8125 C 2.082031 -0.925781 2.132812 -1.070312 2.1875 -1.25 L 3.359375 -6.3125 L 2.625 -6.3125 C 2.375 -6.300781 2.171875 -6.25 2.015625 -6.15625 C 1.867188 -6.0625 1.738281 -5.921875 1.625 -5.734375 C 1.519531 -5.546875 1.40625 -5.28125 1.28125 -4.9375 C 1.257812 -4.875 1.203125 -4.820312 1.109375 -4.78125 C 1.023438 -4.75 0.9375 -4.734375 0.84375 -4.734375 C 0.78125 -4.734375 0.726562 -4.753906 0.6875 -4.796875 C 0.644531 -4.835938 0.628906 -4.890625 0.640625 -4.953125 L 1.03125 -6.453125 C 1.0625 -6.617188 1.175781 -6.703125 1.375 -6.703125 L 6.5625 -6.703125 C 6.75 -6.703125 6.828125 -6.617188 6.796875 -6.453125 L 6.484375 -4.953125 C 6.460938 -4.890625 6.421875 -4.835938 6.359375 -4.796875 C 6.296875 -4.753906 6.226562 -4.734375 6.15625 -4.734375 C 6.070312 -4.734375 6 -4.75 5.9375 -4.78125 C 5.875 -4.820312 5.847656 -4.875 5.859375 -4.9375 C 5.878906 -5.289062 5.878906 -5.554688 5.859375 -5.734375 C 5.835938 -5.921875 5.769531 -6.0625 5.65625 -6.15625 C 5.539062 -6.25 5.363281 -6.300781 5.125 -6.3125 L 4.40625 -6.3125 L 3.234375 -1.25 C 3.203125 -1.070312 3.1875 -0.925781 3.1875 -0.8125 C 3.1875 -0.695312 3.226562 -0.601562 3.3125 -0.53125 C 3.394531 -0.457031 3.535156 -0.421875 3.734375 -0.421875 L 3.796875 -0.421875 C 3.867188 -0.421875 3.914062 -0.40625 3.9375 -0.375 C 3.957031 -0.351562 3.960938 -0.296875 3.953125 -0.203125 C 3.941406 -0.140625 3.910156 -0.0820312 3.859375 -0.03125 C 3.816406 0.0078125 3.765625 0.03125 3.703125 0.03125 C 3.253906 0.0078125 2.84375 0 2.46875 0 C 2.039062 0 1.59375 0.0078125 1.125 0.03125 Z M 1.125 0.03125 "/></g></g></g><g fill="#ca0035" fill-opacity="1"><g transform="translate(181.047811, 9.026014)"><g><path d="M -0.140625 0.03125 C -0.191406 0.03125 -0.226562 0.0078125 -0.25 -0.03125 C -0.269531 -0.0820312 -0.269531 -0.140625 -0.25 -0.203125 C -0.21875 -0.304688 -0.179688 -0.367188 -0.140625 -0.390625 C -0.109375 -0.410156 -0.0390625 -0.421875 0.0625 -0.421875 C 0.257812 -0.421875 0.414062 -0.457031 0.53125 -0.53125 C 0.65625 -0.601562 0.738281 -0.695312 0.78125 -0.8125 C 0.832031 -0.925781 0.882812 -1.070312 0.9375 -1.25 L 1.921875 -5.46875 C 1.953125 -5.644531 1.96875 -5.785156 1.96875 -5.890625 C 1.96875 -6.003906 1.925781 -6.097656 1.84375 -6.171875 C 1.757812 -6.242188 1.617188 -6.28125 1.421875 -6.28125 L 1.359375 -6.28125 C 1.285156 -6.28125 1.234375 -6.289062 1.203125 -6.3125 C 1.179688 -6.34375 1.175781 -6.40625 1.1875 -6.5 C 1.21875 -6.5625 1.253906 -6.613281 1.296875 -6.65625 C 1.335938 -6.707031 1.382812 -6.734375 1.4375 -6.734375 C 1.894531 -6.710938 2.3125 -6.703125 2.6875 -6.703125 L 6.03125 -6.703125 C 6.21875 -6.703125 6.285156 -6.617188 6.234375 -6.453125 L 5.9375 -4.96875 C 5.914062 -4.894531 5.867188 -4.835938 5.796875 -4.796875 C 5.722656 -4.765625 5.65625 -4.75 5.59375 -4.75 C 5.507812 -4.75 5.4375 -4.765625 5.375 -4.796875 C 5.320312 -4.828125 5.300781 -4.875 5.3125 -4.9375 C 5.332031 -5.289062 5.332031 -5.554688 5.3125 -5.734375 C 5.289062 -5.910156 5.222656 -6.039062 5.109375 -6.125 C 4.992188 -6.21875 4.816406 -6.269531 4.578125 -6.28125 L 3.15625 -6.28125 L 2.53125 -3.578125 L 4.453125 -3.578125 C 4.503906 -3.566406 4.535156 -3.539062 4.546875 -3.5 C 4.566406 -3.457031 4.570312 -3.40625 4.5625 -3.34375 C 4.550781 -3.28125 4.523438 -3.226562 4.484375 -3.1875 C 4.441406 -3.144531 4.394531 -3.125 4.34375 -3.125 L 2.421875 -3.125 L 1.953125 -1.109375 C 1.941406 -0.960938 1.9375 -0.84375 1.9375 -0.75 C 1.9375 -0.664062 1.976562 -0.585938 2.0625 -0.515625 C 2.15625 -0.453125 2.316406 -0.421875 2.546875 -0.421875 L 3.515625 -0.421875 C 3.773438 -0.429688 3.972656 -0.472656 4.109375 -0.546875 C 4.253906 -0.617188 4.382812 -0.734375 4.5 -0.890625 C 4.613281 -1.046875 4.765625 -1.300781 4.953125 -1.65625 C 5.023438 -1.78125 5.15625 -1.832031 5.34375 -1.8125 C 5.40625 -1.789062 5.457031 -1.757812 5.5 -1.71875 C 5.550781 -1.675781 5.566406 -1.625 5.546875 -1.5625 L 5.015625 -0.21875 C 4.972656 -0.125 4.925781 -0.0625 4.875 -0.03125 C 4.832031 -0.0078125 4.757812 0 4.65625 0 L 1.15625 0 C 0.769531 0 0.335938 0.0078125 -0.140625 0.03125 Z M -0.140625 0.03125 "/></g></g></g><g fill="#ca0035" fill-opacity="1"><g transform="translate(187.360301, 9.026014)"><g><path d="M 2.015625 0.21875 C 1.265625 0.21875 0.722656 0.0859375 0.390625 -0.171875 C 0.0546875 -0.429688 -0.0507812 -0.8125 0.0625 -1.3125 C 0.125 -1.570312 0.257812 -1.785156 0.46875 -1.953125 C 0.6875 -2.117188 0.929688 -2.203125 1.203125 -2.203125 C 1.367188 -2.191406 1.484375 -2.148438 1.546875 -2.078125 C 1.617188 -2.003906 1.644531 -1.9375 1.625 -1.875 C 1.625 -1.863281 1.582031 -1.835938 1.5 -1.796875 C 1.425781 -1.753906 1.347656 -1.691406 1.265625 -1.609375 C 1.191406 -1.523438 1.132812 -1.40625 1.09375 -1.25 C 1.03125 -0.914062 1.078125 -0.660156 1.234375 -0.484375 C 1.390625 -0.304688 1.679688 -0.21875 2.109375 -0.21875 C 2.398438 -0.21875 2.664062 -0.269531 2.90625 -0.375 C 3.15625 -0.488281 3.359375 -0.640625 3.515625 -0.828125 C 3.671875 -1.015625 3.773438 -1.210938 3.828125 -1.421875 C 3.890625 -1.679688 3.867188 -1.898438 3.765625 -2.078125 C 3.660156 -2.265625 3.515625 -2.421875 3.328125 -2.546875 C 3.140625 -2.671875 2.882812 -2.8125 2.5625 -2.96875 C 2.175781 -3.164062 1.867188 -3.34375 1.640625 -3.5 C 1.421875 -3.65625 1.25 -3.859375 1.125 -4.109375 C 1 -4.367188 0.984375 -4.691406 1.078125 -5.078125 C 1.222656 -5.691406 1.535156 -6.148438 2.015625 -6.453125 C 2.503906 -6.765625 3.09375 -6.921875 3.78125 -6.921875 C 4.320312 -6.921875 4.765625 -6.804688 5.109375 -6.578125 C 5.460938 -6.347656 5.585938 -6.015625 5.484375 -5.578125 C 5.429688 -5.328125 5.296875 -5.117188 5.078125 -4.953125 C 4.867188 -4.785156 4.625 -4.703125 4.34375 -4.703125 C 4.1875 -4.703125 4.070312 -4.738281 4 -4.8125 C 3.9375 -4.894531 3.910156 -4.96875 3.921875 -5.03125 C 3.929688 -5.03125 3.988281 -5.050781 4.09375 -5.09375 C 4.195312 -5.132812 4.296875 -5.195312 4.390625 -5.28125 C 4.484375 -5.375 4.546875 -5.492188 4.578125 -5.640625 C 4.640625 -5.898438 4.585938 -6.101562 4.421875 -6.25 C 4.253906 -6.40625 4.015625 -6.484375 3.703125 -6.484375 C 3.265625 -6.484375 2.910156 -6.378906 2.640625 -6.171875 C 2.378906 -5.972656 2.210938 -5.722656 2.140625 -5.421875 C 2.085938 -5.179688 2.109375 -4.976562 2.203125 -4.8125 C 2.296875 -4.644531 2.472656 -4.476562 2.734375 -4.3125 C 2.941406 -4.1875 3.175781 -4.0625 3.4375 -3.9375 C 3.84375 -3.726562 4.15625 -3.535156 4.375 -3.359375 C 4.601562 -3.191406 4.773438 -2.96875 4.890625 -2.6875 C 5.015625 -2.414062 5.023438 -2.078125 4.921875 -1.671875 C 4.847656 -1.316406 4.664062 -0.992188 4.375 -0.703125 C 4.082031 -0.421875 3.726562 -0.195312 3.3125 -0.03125 C 2.894531 0.132812 2.460938 0.21875 2.015625 0.21875 Z M 2.015625 0.21875 "/></g></g></g></g></g></svg>