<svg xmlns="http://www.w3.org/2000/svg" xmlns:xlink="http://www.w3.org/1999/xlink" width="500" zoomAndPan="magnify" viewBox="0 0 375 374.999991" height="500" preserveAspectRatio="xMidYMid meet" version="1.0"><defs><clipPath id="219b8264a3"><path d="M 0 64.519531 L 75 64.519531 L 75 310.519531 L 0 310.519531 Z M 0 64.519531 " clip-rule="nonzero"/></clipPath><clipPath id="33fb414b67"><path d="M 300 64.472656 L 374.996094 64.472656 L 374.996094 310.472656 L 300 310.472656 Z M 300 64.472656 " clip-rule="nonzero"/></clipPath><clipPath id="b6e6f4301a"><path d="M 117.96875 98 L 278 98 L 278 277 L 117.96875 277 Z M 117.96875 98 " clip-rule="nonzero"/></clipPath></defs><g clip-path="url(#219b8264a3)"><path fill="#000000" d="M 0.730469 187.554688 C 0.730469 182.109375 4.414062 177.386719 9.640625 175.84375 C 13.484375 174.730469 16.542969 172.828125 18.84375 170.167969 C 22.6875 165.742188 25.054688 160.265625 25.976562 153.769531 C 26.863281 147.273438 27.324219 138.515625 27.324219 127.496094 C 27.324219 111.785156 27.785156 100.601562 28.671875 93.941406 C 29.558594 87.285156 31.957031 81.378906 35.871094 76.199219 C 39.78125 71.015625 44.285156 67.800781 49.476562 66.457031 C 54.640625 65.175781 60.785156 64.519531 67.886719 64.519531 L 74.953125 64.519531 L 74.953125 84.496094 L 70.976562 84.496094 C 62.164062 84.496094 56.675781 85.578125 54.472656 87.710938 C 52.273438 89.84375 50.792969 92.894531 50.035156 96.863281 C 49.28125 100.832031 48.886719 111.753906 48.886719 129.597656 C 48.886719 148.980469 46.585938 162.59375 42.015625 170.464844 C 37.449219 178.335938 30.773438 184.042969 22.066406 187.621094 C 30.875 191.816406 37.152344 196.738281 40.867188 202.410156 C 44.582031 208.085938 46.847656 215.105469 47.671875 223.46875 C 48.492188 231.832031 48.886719 245.414062 48.886719 264.207031 C 48.886719 275.390625 50.367188 282.574219 53.324219 285.789062 C 56.28125 289.003906 62.164062 290.578125 70.976562 290.578125 L 74.953125 290.578125 L 74.953125 310.554688 L 67.886719 310.554688 C 60.785156 310.554688 54.671875 309.898438 49.542969 308.617188 C 44.417969 307.339844 39.945312 304.191406 36.132812 299.140625 C 32.320312 294.089844 29.953125 288.183594 29 281.394531 C 28.046875 274.605469 27.488281 263.355469 27.324219 247.644531 C 27.226562 236.195312 26.730469 227.308594 25.84375 220.945312 C 24.957031 214.582031 22.589844 209.203125 18.777344 204.804688 C 16.507812 202.183594 13.484375 200.34375 9.671875 199.199219 C 4.414062 197.722656 0.730469 193.03125 0.730469 187.554688 Z M 0.730469 187.554688 " fill-opacity="1" fill-rule="nonzero"/></g><g clip-path="url(#33fb414b67)"><path fill="#000000" d="M 374.265625 187.441406 C 374.265625 192.886719 370.585938 197.609375 365.359375 199.152344 C 361.511719 200.265625 358.457031 202.167969 356.15625 204.824219 C 352.308594 209.253906 349.941406 214.730469 349.023438 221.226562 C 348.132812 227.71875 347.675781 236.476562 347.675781 247.496094 C 347.675781 263.210938 347.214844 274.394531 346.328125 281.050781 C 345.4375 287.710938 343.039062 293.613281 339.128906 298.796875 C 335.214844 303.980469 330.714844 307.195312 325.519531 308.539062 C 320.359375 309.816406 314.210938 310.472656 307.113281 310.472656 L 300.046875 310.472656 L 300.046875 290.5 L 304.023438 290.5 C 312.832031 290.5 318.320312 289.417969 320.523438 287.285156 C 322.726562 285.152344 324.203125 282.101562 324.960938 278.132812 C 325.71875 274.164062 326.113281 263.242188 326.113281 245.398438 C 326.113281 226.015625 328.414062 212.402344 332.980469 204.53125 C 337.550781 196.65625 344.222656 190.949219 352.933594 187.375 C 344.125 183.175781 337.847656 178.257812 334.132812 172.582031 C 330.417969 166.910156 328.148438 159.890625 327.328125 151.523438 C 326.503906 143.160156 326.113281 129.582031 326.113281 110.789062 C 326.113281 99.601562 324.632812 92.417969 321.675781 89.207031 C 318.714844 85.992188 312.832031 84.417969 304.023438 84.417969 L 300.046875 84.417969 L 300.046875 64.441406 L 307.113281 64.441406 C 314.210938 64.441406 320.328125 65.097656 325.453125 66.375 C 330.582031 67.65625 335.050781 70.804688 338.863281 75.855469 C 342.679688 80.90625 345.042969 86.8125 345.996094 93.601562 C 346.949219 100.390625 347.511719 111.640625 347.675781 127.351562 C 347.773438 138.796875 348.265625 147.6875 349.152344 154.050781 C 350.039062 160.414062 352.40625 165.792969 356.21875 170.1875 C 358.488281 172.8125 361.511719 174.648438 365.324219 175.796875 C 370.585938 177.273438 374.265625 181.964844 374.265625 187.441406 Z M 374.265625 187.441406 " fill-opacity="1" fill-rule="nonzero"/></g><g clip-path="url(#b6e6f4301a)"><path fill="#111b1e" d="M 146.867188 102.835938 C 130.910156 93.675781 117.972656 101.179688 117.972656 119.585938 L 117.972656 255.414062 C 117.972656 273.835938 130.910156 281.332031 146.867188 272.179688 L 265.488281 204.09375 C 281.453125 194.929688 281.453125 180.082031 265.488281 170.921875 Z M 146.867188 102.835938 " fill-opacity="1" fill-rule="nonzero"/></g></svg>